<svg xmlns="http://www.w3.org/2000/svg" viewBox="0 0 1064.2483 1115.3532"><defs><style>.a{fill:#fdfdfc;}.b{fill:#fafbfc;}.c{fill:#e3b127;}.d{fill:#b5c5e8;}.e{fill:#fee077;}.f{fill:#f1c63c;}.g{fill:#94a6cb;}.h{fill:#1b1c1e;}.i{fill:#1c1c1d;}.j{fill:#4768b2;}.k{fill:#1b1b1d;}.l{fill:#f9f8f4;}.m{fill:#efc12d;}.n{fill:#e0af29;}.o{fill:#4466b1;}.p{fill:#b0b4c0;}.q{fill:#4667b2;}.r{fill:#fefdfa;}.s{fill:#fdfdfd;}.t{fill:#204396;}.u{fill:#204496;}.v{fill:#f9f9fb;}.w{fill:#f8f8fa;}</style></defs><path class="a" d="M157.7231,790.4573c-9.9963,11.6322-19.7264,23.2076-29.7461,34.5265-6.8516,7.74-14.2561,14.9161-24.2894,18.591a37.88,37.88,0,0,1-30.48-2.0066c-8.2265-4.1262-13.8808-11.9868-13.2436-22.1817A98.5182,98.5182,0,0,1,70.92,778.9751c9.113-17.2463,17.9327-34.6481,27.0989-51.8657,2.8379-5.3308,6.4936-10.2194,9.6045-15.4125,12.8686-21.4821,28.5069-40.9627,43.3877-61.01,2.8439-3.8313,2.4525-10.1179,3.3868-15.3018,2.0417-11.3277,2.5332-22.9937,9.6328-32.9639,5.7532-8.0794,13.4743-12.0794,22.8675-10.4527,10.684,1.85,16.755,7.579,19.1562,18.6172,1.44,6.6187.6686,13.71,1.002,20.5838.0757,1.5608.0689,3.716,1.0194,4.5508,7.7508,6.8076,11.0851,16.0651,14.6977,25.24,1.8786,4.7708,4.1543,9.3852,6.5153,14.6618,5.0464-4.1838,9.9291-7.7451,14.1345-11.9791,1.4991-1.5093,1.5823-4.618,1.9227-7.0512,1.3122-9.38,2.2142-18.8239,3.7488-28.1651,1.6653-10.1367,3.719-20.2168,5.8612-30.2667A345.959,345.959,0,0,1,276.57,531.6569a594.3929,594.3929,0,0,1,27.5754-54.3125c7.7084-13.6185,16.8839-26.4466,25.95-39.2419a265.9294,265.9294,0,0,1,18.56-22.7385c8.59-9.6546,17.29-19.2513,26.5045-28.3011a392.1835,392.1835,0,0,1,47.1522-39.4143,432.56,432.56,0,0,1,67.6114-40.0144c21.4335-10.0489,43.4893-18.5383,66.494-24.2422,16.0646-3.9831,32.212-7.7311,48.472-10.7891,9.464-1.78,19.2093-2.19,28.8528-2.8579,11.8151-.8186,23.6543-1.72,35.4861-1.7637a383.032,383.032,0,0,1,56.196,4.3159A420.1927,420.1927,0,0,1,781.79,284.2733a402.8416,402.8416,0,0,1,78.5678,31.8944,423.1151,423.1151,0,0,1,55.106,35.37,419.2543,419.2543,0,0,1,90.1334,93.7332,424.7151,424.7151,0,0,1,33.3085,56.249,402.4119,402.4119,0,0,1,31.4609,88.0233c3.5542,15.4664,5.9569,31.2276,8.2151,46.9511,1.544,10.75,2.2,21.6518,2.7781,32.511.6173,11.5839,1.3966,23.2345.8019,34.789-.7783,15.1258-2.3832,30.2485-4.4653,45.257-2.1827,15.7341-5.6469,31.29-7.8505,47.0221-.4675,3.3374,1.3764,7.5848,3.3986,10.5709,5.2852,7.8046,11.728,14.84,16.8376,22.7448,6.2625,9.689,12.4065,19.6006,17.1785,30.0649a166.331,166.331,0,0,1,10.6329,31.4031c2.7143,11.7532,3.785,23.8982,5.3269,35.9039a91.7257,91.7257,0,0,1,.8943,15.2333,202.1493,202.1493,0,0,1-16.2163,72.7676,183.72,183.72,0,0,1-26.1765,43.55,194.28,194.28,0,0,1-37.7057,35.7173c-17.2271,12.29-35.764,21.7321-56.0928,27.3364-10.157,2.8-20.66,4.4634-31.09,6.1134-7.0472,1.1147-14.2772,2.0787-21.3593,1.7375-11.1-.5351-22.14-2.2793-33.2166-3.3966a43.9573,43.9573,0,0,0-7.7242-.0078c-2.073.1586-3.8421,1.0855-3.2175,3.6783,1.8791,7.7991,3.3953,15.7213,5.8457,23.3406,9.9139,30.8253,20.2464,61.5157,30.1754,92.3363,4.9655,15.4136,9.5585,30.9528,14.0232,46.52,4.92,17.1561,2.5006,33.9575-3.94,50.1833a66.0885,66.0885,0,0,1-32.54,35.4021,56.679,56.679,0,0,1-24.1731,6.0159c-28.2683.8714-49.8265-11.4531-65.3637-34.1284-5.9354-8.6623-9.7042-18.9484-13.6186-28.828-8.91-22.4886-17.3382-45.1686-25.8875-67.799-7.4656-19.7624-14.64-39.6377-22.3826-59.29-1.7253-4.3794-5.2763-8.1284-11.03-7.4306q-10.7975,1.3095-21.57,2.821c-5.5483.7858-11.0513,1.9163-16.6111,2.5913-25.467,3.091-51.0674,3.3529-76.6439,2.6157-14.1266-.4071-28.2185-2.1929-42.3128-3.5a388.0171,388.0171,0,0,1-70.9048-13.8316c-18.7544-5.3671-37.2576-11.82-55.45-18.8777a435.2288,435.2288,0,0,1-44.3089-20.1993c-23.1295-12.108-45.4732-25.6474-66.039-41.8419-12.2376-9.6363-24.4084-19.4048-36.0253-29.7685-11.1468-9.9444-22.0177-20.2911-32.16-31.2477a464.3253,464.3253,0,0,1-50.0246-64.3663c-16.1663-25.1513-30.7614-51.1293-41.6941-79.0252-5.315-13.562-11.11-27.0083-15.2807-40.9284-5.5329-18.4655-9.6851-37.3446-14.45-56.0409C158.627,792.9512,158.1425,791.73,157.7231,790.4573Zm676.305,23.42-.8584.7816-.0433.0542q-.5236.8373-1.0475,1.6745l-.0131-.0361a94.439,94.439,0,0,0-24.6337,27.2961,8.5007,8.5007,0,0,0-1.2928,1.2553c-25.2273,37.6753-34.1717,78.97-27.3786,123.7231.5933,3.9085,1.648,7.747,2.5248,11.786,41.897-18.69,95.6633-58.8509,133.5764-122.414A314.4764,314.4764,0,0,0,950.08,774.3955c-34.8128-3.2884-80.2984,8.0591-114.2742,37.7834l-.676.68-.1851.18-.7881.7243ZM665.462,664.7344l-.6889-1.1232c-2.0513-3.146-4.1908-6.2385-6.1376-9.448A38.4344,38.4344,0,0,0,633.38,635.9586c-7.4441-1.7186-12.0834.18-15.708,6.8653-17.4068-9.0839-35.0166-17.8024-52.1721-27.3385-24.8255-13.8-49.0665-28.7434-76.2373-37.7323-17.1839-5.6848-34.3418-11.5647-51.8145-16.2186-11.5783-3.084-23.7071-4.0753-35.56-6.1684-3.7565-.6634-5.1141,1.4256-6.2223,4.3154-4.053,10.5687-8.8079,20.9225-12.0618,31.73-4.2513,14.12-7.327,28.5931-10.9085,42.9144l-16.7874,4.4164a17.913,17.913,0,0,1,.0128-3.129,355.1162,355.1162,0,0,1,24.2263-79.6488c11.4958-26.515,26.7434-50.79,43.6134-74.126,12.453-13.3732,24.2875-27.3954,37.4916-39.9806a294.1423,294.1423,0,0,1,86.3434-56.9194c9.2672-4.03,18.7305-7.608,28.1038-11.3932,1.17-.2783,2.3539-.5054,3.5062-.8425,25.3813-7.4233,51.1978-12.514,77.6537-13.6935a292.1538,292.1538,0,0,1,105.2172,14.4163,298.0727,298.0727,0,0,1,107.4851,62.7812c46.4992,42.0492,77.7983,93.6256,94.9836,153.7992,15.5545,54.4637,17.3772,109.5314,6.3972,165.0337-.764,3.8622-.1537,5.1772,3.8649,6.0256a172.0646,172.0646,0,0,1,64.9158,28.3359c1.3942.9922,2.8815,1.8535,4.6167,2.9617.4251-1.399.6734-2.0956.8487-2.81,9.7267-39.681,14.1384-79.8629,11.9-120.7475A403.81,403.81,0,0,0,1039.15,568.4819c-21.9069-69.1556-59.5285-128.3214-113.574-176.85a379.7777,379.7777,0,0,0-116.084-71.6737A395.0333,395.0333,0,0,0,712.8574,295.6a370.2929,370.2929,0,0,0-94.6828.332c-52.721,7.0595-102.35,23.1026-148.3766,49.9592a401.82,401.82,0,0,0-134.2574,126.88c-28.5753,43.1741-48.3876,90.1321-58.63,140.9232-3.1049,15.397-4.7352,31.0914-7.0409,46.65l-46.8271,40.4723c-2.1387-5.1294-4.1393-9.5179-5.8138-14.0275-3.6721-9.8895-6.9987-19.91-10.7978-29.7488-5.0147-12.987-11.9539-16.1692-23.7617-11.338.1716-1.947.27-3.9038.5279-5.8393,1.0126-7.596,2.1728-15.1745,3.0126-22.7888.123-1.1147-.9962-3.165-1.8893-3.3884a4.3442,4.3442,0,0,0-3.7249,1.5746,14.9149,14.9149,0,0,0-2.4452,6.1994c-1.3348,11.33-2.412,22.691-3.5786,34.0411a453.9436,453.9436,0,0,0-46.8329,54.198,121.3444,121.3444,0,0,0-8.0329,12.585c-9.815,17.3243-19.796,34.5651-29.1258,52.15a363.5374,363.5374,0,0,0-15.2914,33.226c-1.9092,4.6847-2.296,10.4565,2.229,14.346,12.3072,10.579,31.3769,9.2943,41.1734-5.3942,3.6921-5.5358,7.57-10.9528,11.5061-16.32q13.296-18.13,26.7375-36.154,8.2116-11.0689,16.48-22.0956c.3111,1.7848.6392,3.5668.9307,5.3548,3.1333,19.2157,5.1618,38.6887,9.5729,57.6061,23.9053,102.5215,75.7206,188.4016,156.49,256.0506,87.6832,73.4392,189.52,109.3728,303.6026,111.0286a470.2225,470.2225,0,0,0,81.8556-6.4658c8.1058-1.3094,16.1409-3.0576,24.5283-4.666l-2.5345-6.7767c-.9837.16-1.4274.2055-1.858.306a440.0193,440.0193,0,0,1-129.0045,10.5491,457.9829,457.9829,0,0,1-106.3613-19.8594c-152.4086-47.2027-272.2515-170.3405-315.6352-324.3031a414.1333,414.1333,0,0,1-14.2415-78.3619q8.7217,10.0935,17.4394,20.1907c8.2807,9.647,22.4878,9.26,31.9049.6342,12.41-11.3669,25.8275-21.6338,38.8119-32.3735A403.51,403.51,0,0,0,281.9856,805.53c-1.4723,6.0828-2.5567,12.2935-4.5107,18.2174-2.7069,8.2066.932,14.9106,9.4287,16.2354,2.22.3461,4.4346.7249,6.6517,1.0887a391.6472,391.6472,0,0,0,80.358,130.3545,384.53,384.53,0,0,0,116.6843,86.124c48.5939,23.3441,99.9282,35.74,153.74,38.0169a353.5016,353.5016,0,0,0,67.9754-3.7272c30.156-4.566,59.7414-11.5108,88.1624-22.8517,2.6165-1.044,5.2005-2.1692,8.5135-3.5553a185.0366,185.0366,0,0,1-38.1711-62.7008c-1.3073.4026-2.1712.609-2.99.9293a297.6994,297.6994,0,0,1-137.7091,19.3753A287.0653,287.0653,0,0,1,539.1421,999.17c-53.3714-23.7832-96.3077-60.1677-129.46-108.158-14.8688-21.5234-27.207-44.4136-36.0651-69.0969l1.5686-.2623,17.5487,5.8505c2.0825,4.6869,4,9.4555,6.2754,14.0469a315.0038,315.0038,0,0,0,39.37,61.3252,300.1154,300.1154,0,0,0,46.55,45.5762A278.0136,278.0136,0,0,0,551.72,987.3693a273.0147,273.0147,0,0,0,61.7622,17.3621c9.6772,1.4678,19.4544,2.549,29.2251,3.0544,10.5563.546,21.1624.42,31.7382.1905,6.41-.139,12.8031-1.03,19.5579-1.6141a24.8937,24.8937,0,0,0-.7332-3.6057c-10.6056-27.3476-21.1693-54.712-31.9225-82.0016-2.8262-7.1726-3.9731-13.9163-2.3939-21.93,6.7044-34.022,37.3343-57.3433,71.127-58.5268a63.8071,63.8071,0,0,1,45.7685,16.624,14.2523,14.2523,0,0,0,2.7236,1.49c.6718-1.0391,1.2123-1.7586,1.6328-2.5424,11.4028-21.2588,25.7149-40.1854,44.2215-55.8444a179.9986,179.9986,0,0,1,57.06-32.8767,176.3794,176.3794,0,0,1,67.3082-9.7183c4.178.1959,6-1.0909,6.5641-5.2446,1.5413-11.348,3.5593-22.6328,5.0083-33.9911.79-6.1955.8086-12.4895,1.2331-19.73-7.9921,1.3672-14.9084,2.5576-21.8275,3.7329-16.4462,2.7936-32.6766,6.0543-49.688,5.3771-24.3086-.9676-48.6985-.0513-72.9246-3.0509-10.76-1.3322-21.476-3.0157-32.212-4.54-.6661-5.0318-1.3321-10.0635-2.0245-15.2937,1.2385-.0821,2.2919-.0755,3.32-.2328,5.9522-.9109,12.0619-1.2849,17.8119-2.9187,11.2241-3.1891,20.2186-19.3278,12.6879-29.8278-4.9741-6.9353-11.4956-11.33-19.94-11.7583a268.9507,268.9507,0,0,0-27.6645.1145c-24.4777,1.2834-48.9241,2.8958-73.4227.17-6.3691-.7088-10.9089,3.3088-12.2567,9.65-2.1389,10.063,1.56,18.3039,10.5856,23.5861-3.9923-1.1739-7.9952-2.3124-11.974-3.53-5.5485-1.6982-11.0788-3.4558-16.6169-5.1879Zm164.133,20.0349c6.4071.5578,12.2938,1.5258,18.1764,1.5,20.3933-.089,40.8153.0415,61.1662-1.0421,11.8614-.6317,23.6474-3.1985,35.3926-5.31,7.9532-1.43,12.0038-6.3313,11.4409-14.3041a284.4248,284.4248,0,0,0-3.6655-31.8117c-2.6946-14.527-5.8308-29.0222-9.7693-43.2568-5.9367-21.4564-14.9393-41.7193-25.6923-61.24a293.1507,293.1507,0,0,0-39.532-55.7211c-14.6943-16.2057-30.7907-31.0749-48.903-43.4711a282.1014,282.1014,0,0,0-76.0823-37.2135,267.4044,267.4044,0,0,0-62.2261-11.9675c-15.0062-.9539-30.2-.2368-45.2284.857-11.5712.8422-23.0751,3.1193-34.5039,5.3066-26.0337,4.9825-50.2993,14.7809-73.6756,27.17a284.7988,284.7988,0,0,0-58.7165,41.3084c-16.2636,14.8291-31.4377,30.8267-43.8968,49.14-4.2015,6.1756-8.6388,12.2379-12.2741,18.74-4.8828,8.7336-2.9171,12.4679,6.756,14.6165,8.1471,1.81,16.41,3.23,24.4026,5.5722,12.169,3.566,24.16,7.7444,36.2056,11.7254,23.8055,7.8673,46.1644,18.8875,68.04,31.0218,21.3612,11.8489,42.8659,23.44,64.3654,35.0372a13.2239,13.2239,0,0,0,5.5775,1.2594c10.73.4487,19.87,4.3526,27.9956,11.4314,4.2786,3.7273,9.4659,6.4114,14.6192,9.815,5.6976-11.1916,14.6976-16.0087,25.0832-17.0243,16.9867-1.6612,34.0928-2.1408,51.1567-2.9475,5.4357-.257,10.8981-.019,16.3467.0778,15.4294.2741,30.83-.1,46.1794,2.8483,15.4432,2.9662,27.9307,18.741,28.1113,33.63C836.5474,669.0187,834.3143,676.6184,829.595,684.7693Zm223.861,136.6944c-39.1484,112.2213-109.9171,194.9283-214.5924,248.71a42.8144,42.8144,0,0,0,3.475,3.2543,159.2654,159.2654,0,0,0,199.58-8.8378,162.5455,162.5455,0,0,0,43.8844-60.5107c11.4845-27.46,16.0252-56.0964,12.5854-85.6868-3.0678-26.39-11.6362-51.0128-26.7143-73.0589C1066.2567,837.4137,1060.04,830.04,1053.456,821.4637ZM745.5679,1102.9989c.7191,2.0142,1.2914,3.7026,1.9213,5.3689q33.9911,89.9131,67.9553,179.8363c4.9008,13.0149,8.4763,26.597,14.2254,39.2052a54.4828,54.4828,0,0,0,28.0592,27.9988c15.5649,6.78,30.951,6.7773,44.4365-4.6007,18.0566-15.2347,20.1622-35.5073,15.1091-56.8467-3.023-12.766-8.0131-25.0643-12.0794-37.5857q-24.7726-76.2787-49.6221-152.5327a11.7263,11.7263,0,0,0-4.3369-5.2783c-8.6234-6.1408-17.5461-11.8667-26.08-18.1255-2.5649-1.8811-4.4221-2.207-7.3347-1.0942-12.7278,4.8637-25.4515,9.7837-38.3866,14.0463C768.535,1096.9826,757.345,1099.696,745.5679,1102.9989Zm40.4263-107.1283c4.6632,17.6,20.5516,43.6024,35.6179,59.1858,2.5613,2.6492,4.49,2.97,7.7923,1.3576a405.8233,405.8233,0,0,0,208.754-242.0273c1.1608-3.6742.4108-5.8014-2.6-8.0454-15.0706-11.2322-31.3487-20.0853-49.4143-25.4161-6.4582-1.9057-13.0706-3.29-19.9322-4.9914-13.1937,48.4121-34.8756,91.7087-66.0189,130.1191A324.3187,324.3187,0,0,1,785.9942,995.8706ZM211.7653,794.5a9.3353,9.3353,0,0,0,.04,2.98c7.0023,28.2361,16.0488,55.8179,28.372,82.1708,15.0816,32.2514,33.2166,62.68,55.5818,90.5541,13.559,16.8987,27.3123,33.56,43.5835,47.9314,12.95,11.4378,25.9149,22.8823,39.3087,33.789,19.6291,15.9846,41.27,29.0186,63.6276,40.7414a397.16,397.16,0,0,0,40.1857,18.48c16.5491,6.4429,33.4172,12.22,50.4691,17.1786a318.5253,318.5253,0,0,0,63.2045,12.0064c14.1093,1.1448,28.1895,2.9034,42.3193,3.4594,11.5694.4554,23.1928-.46,34.7922-.7673.4546-.012.9138.02,1.3633-.0329,10.161-1.1923,20.3453-2.2224,30.472-3.6571,6.0788-.8612,12.093-2.2454,18.0871-3.61,3.4714-.79,5.6394-3.5531,5.1461-6.8253-1.3575-9.0038-6.33-12.999-15.757-12.1885-11.9955,1.031-23.9444,3.1079-35.948,3.4264-21.4782.57-43.0207.784-64.3547-2.6-16.1358-2.5592-32.3417-4.87-48.3056-8.278-28.3657-6.0566-55.5232-15.9673-81.69-28.3886-22.403-10.6346-44.0318-22.78-63.716-37.96-14.7836-11.4-29.2929-23.2024-43.3433-35.49-8.2561-7.22-15.67-15.4813-22.9315-23.7415-8.9114-10.1372-17.5825-20.5209-25.7915-31.2321a381.126,381.126,0,0,1-33.8146-53.4218,415.1317,415.1317,0,0,1-31.719-78.1715c-3.203-10.9355-5.6161-22.1058-8.2662-33.1985-1.4343-6.0036-2.6109-12.0689-3.8731-17.9637Zm519.4666,62.095c-27.74.3955-53.371,20.44-56.5353,47.4422-.2541,2.1688-.5724,4.6353.168,6.57C686.3871,940.71,698.09,970.7443,709.711,1000.81c.8387,2.17,1.8438,3.0928,4.3869,2.3462,14.9318-4.3834,29.95-8.4779,44.8514-12.9587,6.61-1.9874,6.6374-3.0938,5.56-9.9977-1.6751-10.732-3.46-21.51-4.0719-32.3319a175.0658,175.0658,0,0,1,9.62-67.4363c.4828-1.4009.7435-3.602-.005-4.5752-2.833-3.6836-5.6969-7.5707-9.3307-10.3658C752.1213,858.8757,741.8683,856.9028,731.2319,856.5947Z" transform="translate(-59.9152 -267.9792)"/><path class="b" d="M423.4631,1205.53a47.4743,47.4743,0,0,0,4.7205-5.0643c3.9352-5.6294,7.8859-10.9887,15.1042-12.9219a17.2484,17.2484,0,0,1,18.6824,7.4534c3.5128,5.7847,3.2668,11.7781,1.8116,17.9978-.5288,2.26-.83,4.5739-1.3948,7.7644,4.9617-.482,9.2511-1.434,13.474-1.1971,8.7849.4929,17.0182,2.9774,23.7925,9.01a41.0987,41.0987,0,0,1,3.5438,3.5257c3.0859,3.5091,6.0966,4.2278,10.9291,2.3637,11.936-4.604,20.9855-.6133,25.9835,13.4716,1.0571,2.9792,1.5709,5.316,4.6782,1.19,2.2473-2.9842,5.372-5.3308,8.2134-7.8393,4.8118-4.2478,15.4546-3.4807,19.4759.08,4.5164,3.9985,8.3255,3.5771,13.6417.3182,13.9407-8.5458,27.7982-7.3268,37.8284,2.9427,1.7508,1.7927,3.1957,3.8843,5.248,6.412,2.6073-2.3235,5.195-4.2786,7.3591-6.6243a35.05,35.05,0,0,1,23.8284-11.124c12.6089-.921,27.4314,7.26,30.5837,22.2384,1.1876,5.643.4987,11.7594.1226,17.6253-.2549,3.9775,1.2033,6.4028,4.5289,8.1649a18.5148,18.5148,0,0,1,6.5885,27.4681c-6.0209,8.0932-14.8035,11.0663-24.4574,12.6742a54.9626,54.9626,0,0,1-25.8295-1.97,30.19,30.19,0,0,1-7.528-3.4987c-5.1147-3.3606-9.5179-3.023-14.1252,1.1284-12.68,11.4249-27.5212,12.6032-42.46,6.3744a31.962,31.962,0,0,0-22.1925-1.3342c-2.646.729-6.0692.8836-8.4683-.192-5.4817-2.4578-10.8616-1.6207-16.1557-.4908-9.0687,1.9352-17.2248-.6177-23.9424-5.91-5.0005-3.94-8.6459-9.7934-12.2841-15.2053-2.79-4.1507-4.11-4.8019-8.1462-1.4317-7.3638,6.1482-15.8317,9.7709-25.3916,9.5868-14.3084-.2756-24.7949-7.4126-32.0163-19.5763-.6686-1.1261-1.12-2.3879-1.8383-3.4767-2.6968-4.0854-4.0647-4.1706-8.0207-1.1832-7.752,5.8541-15.1868,6.9342-22.342,2.2607-6.1383-4.0092-11.034-11.2915-7.9092-21.2626,1.4338-4.575,3.052-9.0918,4.5295-13.6536a17.7755,17.7755,0,0,0,.9886-4.2548,12.423,12.423,0,0,0-.6791-3.2986c-1.1093.2654-2.6244.1664-3.2515.8649-1.8577,2.0691-3.2072,4.5912-5.043,6.684-3.5794,4.0805-6.7617,8.8892-11.1664,11.79-10.4967,6.9128-22.8758-1.2-25.3881-11.6053-2.1933-9.0836,1.2814-17.1476,5.0039-24.833,6.6307-13.69,13.9011-27.0771,21.1541-40.4554,3.1185-5.7521,6.3485-11.5862,10.468-16.6126,4.0026-4.884,10.0666-5.9839,16.194-4.5008,6.9018,1.6705,10.6836,6.5322,12.75,13.1543,2.1461,6.8763-.5024,12.974-2.3976,19.2827a41.9206,41.9206,0,0,0-.9165,6.7818Zm-21.1483,5.8481c.7581-1.6149,1.4178-2.9506,2.0187-4.3121,3.0567-6.9248,6.2659-13.7888,9.0887-20.808,2.0325-5.0539.3107-9.5714-3.7108-11.17-4.2006-1.67-8.0378.4068-10.3045,5.562-.914,2.0786-1.7579,4.1952-2.7958,6.2109-7.4865,14.5382-15.1715,28.977-22.444,43.621a89.0822,89.0822,0,0,0-5.9669,16.11c-1.1679,4.2761,1.341,8.0477,5.1606,9.4615,4.3473,1.6089,6.4579-1.011,8.1961-4.3339,3.8574-7.3747,7.8827-14.6687,11.4929-22.1626,1.5811-3.2825,3.3886-3.7435,6.4037-2.2509,6.3758,3.1565,12.7693,6.2835,19.2363,9.2464,2.6686,1.2226,2.5965,2.7176,1.49,5.0233-3.4713,7.233-6.8055,14.532-10.1451,21.8274a31.4907,31.4907,0,0,0-2.3177,5.8993c-.9074,3.9573.3656,7.3158,4.0256,9.2356,3.4976,1.8345,6.8876.9806,9.51-1.8328a21.1068,21.1068,0,0,0,3.7163-5.648q13.7953-30.645,27.392-61.3791a17.2493,17.2493,0,0,0,1.4536-5.1977,6.7412,6.7412,0,0,0-4.701-7.471,6.8672,6.8672,0,0,0-8.4314,2.697,41.2606,41.2606,0,0,0-2.748,5.2112c-3.1153,6.1461-6.2209,12.2973-9.2775,18.3424-8.7013-3.8222-16.726-7.3438-24.7448-10.8789A16.4512,16.4512,0,0,1,402.3148,1211.3783Zm149.1518,92.9124c2.3344,2.5732,4.0782,5.1189,6.4041,6.9077a7.5234,7.5234,0,0,0,10.05-.2934c2.8152-2.373,4.14-5.8184,2.2111-8.9672-3.28-5.3551-2.9432-11.059-2.6067-16.7436.4916-8.3075,1.4495-16.5888,2.2672-24.8753.7089-7.1842-2.6292-12.0522-8.36-12.057q-7.1682-.006-8.5773,9.3609c-1.5516,10.4117-4.1145,20.5346-9.4926,29.6808-2.211,3.76-4.8747,8.0934-10.1709,6.7095-5.0492-1.3194-5.3936-6.3275-5.4633-10.45-.1661-9.83.0065-19.6809.49-29.5014.3648-7.414-1.2451-11.19-6.0564-11.8255-4.933-.6516-8.1075,2.9149-9.1066,10.2328-.0206.15-.0338.3017-.0418.4529-.4537,8.6223-1.3645,17.2533-1.202,25.864a63.3782,63.3782,0,0,0,2.8048,17.818c2.5062,7.8719,8.322,12.7419,16.7486,14.25C539.2435,1312.2642,545.5728,1309.1977,551.4666,1304.2907Zm103.6173-13.3986q.2348-.8532.47-1.7064c2.2579-.7623,4.7429-1.1517,6.7286-2.361,4.8371-2.9458,10.3266-5.4971,13.9412-9.6206,5.8813-6.7093,6.04-14.9886,1.9779-22.9547-3.67-7.1961-9.9727-10.5121-17.8972-10.09-12.9356.6885-24.6231,12.3238-25.5923,25.3067a62.4308,62.4308,0,0,0,.0821,12.69c1.5169,11.538,6.0354,21.8611,17.5381,26.1629,12.3322,4.6118,25.0517,3.6224,36.9841-2.3693,5.2128-2.6178,7.1146-7.8644,5.0683-12.1139-1.9712-4.0933-6.3833-4.5625-12.2534-2.9648a93.9928,93.9928,0,0,1-19.0526,2.8658C660.4786,1293.89,657.7525,1291.9044,655.0839,1290.8921ZM502.0712,1261.549c-.3613-2.7686-.5765-5.6455-1.129-8.4558-4.1192-20.9535-26.2982-29.1087-42.995-15.8462-12.3016,9.7712-17.3158,28.6043-11.4971,43.1829,6.8137,17.0715,25.5821,22.4437,40.3545,11.51C496.9629,1284.4209,500.5342,1273.5864,502.0712,1261.549Zm110.5261,32.4133-.1666,2.18c-2.6893.902-5.4846,2.7728-8.0449,2.4929-4.542-.4964-9.0209-2.0733-13.3791-3.6143-4.7871-1.6925-8.9936-.8913-11.3142,2.715-2.33,3.6213-1.3929,7.9934,2.4246,11.3086,11.6818,10.1455,32.7982,8.8951,43.0955-2.5517,6.4991-7.2247,6.246-16.7993-.611-23.6549-6.3562-6.3549-14.3452-9.2772-22.881-11.2927-1.8929-.4469-3.4505-2.3133-5.1624-3.526,1.6012-1.7143,2.9737-3.7874,4.8894-5.0084,1.15-.7329,3.1587-.2545,4.7606-.1013,1.4886.1421,2.9717.91,4.4179.8132,3.49-.2328,5.9939-2.0132,6.8243-5.5942.8691-3.7475-1.35-7.47-5.5-9.386-8.8608-4.0908-19.6952-1.056-26.8087,7.5092-8.161,9.8265-5.6167,22.943,5.8154,28.655,3.4726,1.7351,7.5062,2.3108,11.1214,3.8074C605.69,1290.209,609.0994,1292.1927,612.5973,1293.9623Z" transform="translate(-59.9152 -267.9792)"/><path class="b" d="M300.3236,1172.4369c-5.4547-1.13-8.32,2.6015-11.5061,5.1123-3.1,2.4434-5.6182,5.6114-8.51,8.3366-10.6271,10.0163-27.8361,5.6552-30.7445-7.82-1.9793-9.17-8.4082-7.5048-13.85-8.5513-18.5594-3.5687-33.3447-15.6889-37.5348-35.5264a71.4683,71.4683,0,0,1-.9676-12.0314c-.112-2.9789-1.387-4.5381-4.3848-4.373a36.6624,36.6624,0,0,1-27.6182-9.6121c-3.2663-2.9279-6.7793-2.148-10.2644.3654-5.3491,3.8577-10.74,7.315-17.9008,7.54-12.4264.3912-22.1376-13.2656-16.6945-25.6585,2.8406-6.4676,8.01-10.9441,13.1977-15.457,5.312-4.6213,10.4157-9.4838,15.5405-14.3153.5474-.5162.6255-1.53.9273-2.3289-7.2721-1.4446-14.5084-2.1509-21.24-4.3814-11.7258-3.8851-20.7279-11.2364-26.3314-22.7395-6.9707-14.31-5.951-28.4831.4991-42.2255,5.6831-12.1084,15.2659-21.2072,26.98-27.5659a59.7171,59.7171,0,0,1,32.2982-7.4c22.582,1.2921,42.5933,16.827,45.0954,41.585,1.12,11.0785-2.511,20.7352-7.0492,30.1811-2.1583,4.4922-.0336,6.663,2.7265,8.9887,6.69,5.6369,13.7752,10.8382,20.15,16.8038a29.5594,29.5594,0,0,1,9.5581,21.6145,16.78,16.78,0,0,0,1.0209,6.0632,4.4082,4.4082,0,0,0,3.3751,1.9979,54.7059,54.7059,0,0,0,7.9056-.7941c21.01-2.6368,37.9335,13.3286,37.7329,32.2137a63.83,63.83,0,0,0,.8146,7.4187c10.8041-4.8107,20.02-4.0575,28.7922,3.6948,3.656,3.2311,9.09,4.4,13.6125,6.71,10.8421,5.5376,17.2392,13.9842,18.7335,26.4808,1.7076,14.2806-3.5843,26.5364-10.124,38.309a110.2458,110.2458,0,0,1-14.8295,20.2773c-5.388,5.9328-12.5007,8.5511-20.8713,5.9867-9.4827-2.9052-16.49-13.594-11.64-24.0254,3.306-7.1119,7.6048-13.76,11.4-20.6486A38.4448,38.4448,0,0,0,300.3236,1172.4369ZM195.5414,999.5849c.2344-15.3074-9.3324-28.1393-24.4782-32.8328-25.4509-7.8869-56.0837,9.8607-62.2483,36.0648-4.4493,18.9128,6.0072,36.2456,24.7791,41.2806,9.2446,2.48,18.26,1.6107,27.27-1.142C180.0467,1037.0952,195.2573,1018.1269,195.5414,999.5849Zm4.051,52.0226c-.0231-7.7574-3.4513-11.8215-8.8879-10.2033a16.8808,16.8808,0,0,0-5.6849,3.57c-12.5633,10.6787-25.05,21.4477-37.5689,32.1782-5.5125,4.725-11.1879,9.272-16.5208,14.1908-3.7707,3.4779-4.046,8.4672-1.2343,11.8189,2.8925,3.4479,7.993,3.6954,12.2438.5,1.5683-1.179,2.9851-2.5594,4.4756-3.8426,5.4663-4.7065,10.9346-9.4107,16.6774-14.3526,1.2423,2.6286,2.22,4.8325,3.31,6.98,4.9938,9.8455,13.6457,15.0079,23.7643,14.2235,13.7939-1.0694,28.8439-15.2242,30.7223-28.8949,1.4614-10.6353-3.63-19.5458-13.6027-23.6C204.7811,1053.1569,202.1491,1052.4512,199.5924,1051.6075Zm103.1467,85.8255c1.0995-4.6345.6379-8.4171-3.6814-10.4751-3.6166-1.7234-7.5572-.14-11.0211,4.11-.1912.2347-.3527.4934-.5419.73-7.8474,9.8093-15.7485,19.5765-23.51,29.4531-2.0432,2.6-4.5043,5.3384-5.2206,8.3791-.6746,2.8636-.2176,6.8986,1.4585,9.1269,1.358,1.8053,5.5085,2.7208,7.9713,2.137,2.3675-.5613,4.46-3.3226,6.1519-5.5188,8.3405-10.8249,18.7018-18.5425,32.3578-20.9639,7.2868-1.292,10.8044,2.5116,9.3506,9.6993a29.5065,29.5065,0,0,1-2.9511,9.0212c-4.801,8.1944-9.76,16.3247-15.1713,24.1232-3.68,5.3039-4.1605,9.9023-.1653,13.3357,3.6317,3.121,8.7132,2.4278,12.8054-2.1727,10.1075-11.3631,17.75-24.2089,21.5867-38.9934,4.8656-18.7522-5.4985-31.9364-24.7567-31.9915C306.05,1137.43,304.6973,1137.433,302.7391,1137.433Zm-76.4646-16.6558c1.2993.85,2.2877,1.508,3.2877,2.1481a40.0573,40.0573,0,0,0,25.4706,6.5095,17.3041,17.3041,0,0,0,15.9709-17.3047c.085-12.3129-11.127-22.4765-23.7828-21.3774-13.7,1.19-24.7115,7.6342-33.412,18.0307a26.5831,26.5831,0,0,0-6.027,19.4585c1.297,19.2129,16.1686,28.4683,32.4835,31.2,5.3959.9034,9.5766-2.1435,10.3678-6.5846.781-4.3834-2.2214-8.0569-7.5554-9.7438a68.5289,68.5289,0,0,1-11.4-4.357C225.2742,1135.3748,223.0907,1127.9832,226.2745,1120.7772Z" transform="translate(-59.9152 -267.9792)"/><path class="c" d="M373.6166,821.9147c8.8582,24.6833,21.1964,47.5735,36.0652,69.0969,33.1526,47.99,76.0889,84.3748,129.46,108.158a287.0653,287.0653,0,0,0,90.9764,23.8666,297.6994,297.6994,0,0,0,137.7091-19.3753c.8193-.32,1.6832-.5267,2.99-.9293a185.0366,185.0366,0,0,0,38.1711,62.7008c-3.313,1.3861-5.897,2.5113-8.5135,3.5553-28.421,11.3409-58.0064,18.2857-88.1624,22.8517a353.5016,353.5016,0,0,1-67.9754,3.7272c-53.8121-2.2769-105.1464-14.6728-153.74-38.0169a384.53,384.53,0,0,1-116.6843-86.124,391.6472,391.6472,0,0,1-80.358-130.3545c12.7291-.0353,23.0362-5.6741,31.8891-14.236a13.44,13.44,0,0,0,3.4879-7.0031c.6043-3.48.0142-7.1473.2547-10.7129q3.2235-47.8026,6.5933-95.5952a50.6385,50.6385,0,0,1,1.3663-10.3348c4.907-17.1434,3.74-34.488,2.0125-51.8488a24.1566,24.1566,0,0,0-7.3321-14.7562A13.3487,13.3487,0,0,0,318.06,632.93a74.5768,74.5768,0,0,0-24.9687,11.52c-7.5809,5.517-15.4683,10.6127-23.2214,15.8932,2.3057-15.5582,3.936-31.2526,7.0409-46.65,10.2423-50.7911,30.0546-97.7491,58.63-140.9232a401.82,401.82,0,0,1,134.2574-126.88c46.0268-26.8566,95.6556-42.9,148.3766-49.9592a370.2929,370.2929,0,0,1,94.6828-.332,395.0333,395.0333,0,0,1,96.6342,24.3585,379.7777,379.7777,0,0,1,116.084,71.6737c54.0455,48.5288,91.6671,107.6946,113.574,176.85a403.81,403.81,0,0,1,17.9393,100.3229c2.238,40.8846-2.1737,81.0665-11.9,120.7475-.1753.7146-.4236,1.4112-.8487,2.81-1.7352-1.1082-3.2225-1.9695-4.6167-2.9617a172.0646,172.0646,0,0,0-64.9158-28.3359c-4.0186-.8484-4.6289-2.1634-3.8649-6.0256,10.98-55.5023,9.1573-110.57-6.3972-165.0337-17.1853-60.1736-48.4844-111.75-94.9836-153.7992a298.0727,298.0727,0,0,0-107.4851-62.7812,292.1538,292.1538,0,0,0-105.2172-14.4163c-26.4559,1.18-52.2724,6.27-77.6537,13.6935-1.1523.3371-2.3367.5642-3.5064.8424-1.99-.254-4.1507-1.1412-5.9425-.6591-11.4809,3.0895-22.8828,6.4732-34.3071,9.7723-14.0129,4.0467-25.5979,12.6342-37.9284,19.9211-9.2565,5.47-16.9991,12.4423-24.3976,20.0343-3.0439,3.1235-6.5813,5.76-9.7785,8.7416-11.761,10.97-25.1273,20.4854-32.3066,35.6229-2.3634,4.983-4.8485,9.9084-7.2779,14.86-16.87,23.3362-32.1176,47.611-43.6134,74.126a355.1162,355.1162,0,0,0-24.2263,79.6488,17.2919,17.2919,0,0,0-.0065,3.1261c-4.3576,2.272-5.5682,5.8469-4.6544,10.5433.6826,3.5085.9769,7.0927,1.4441,10.6432-.7828,9.9279-1.7892,19.8442-2.3059,29.786-1.4719,28.3231,2.02,56.2575,8.483,83.7086C362.7453,789.8316,368.6366,805.7659,373.6166,821.9147Zm631.286-272.05c-.1028-10.95-4.5869-29.1354-9.5206-40.0763-12.0391-26.6979-31.6008-47.4566-52.7009-67.0121a13.2847,13.2847,0,0,0-2.6441-1.7552c-4.0833-2.2573-7.6983-1.7621-10.7327,1.4211-3.0774,3.2283-3.2108,6.7293-.7874,10.3286,2.5355,3.7661,5.4112,7.3161,7.7725,11.184,13.9373,22.8311,25.5185,46.7234,33.5545,72.3472a120.6461,120.6461,0,0,0,10.7114,23.4515c4.4572,7.79,13.2607,9.3537,19.4278,4.5492C1005.016,560.3824,1004.0718,554.5761,1004.9026,549.8652ZM911.2764,423.7077c.11-8.8339-10.4618-20.0068-19.2754-19.8734-5.6624.0858-10.0953,3.0972-13.01,7.9312-2.6147,4.3366-2.5035,9.2114.8579,12.7075,4.1073,4.2722,8.7494,8.6055,14.0235,11.0486C902.2729,439.4128,911.1628,432.8519,911.2764,423.7077Z" transform="translate(-59.9152 -267.9792)"/><path class="d" d="M372.6956,634.3255c3.5814-14.3213,6.6571-28.7948,10.9084-42.9144,3.2539-10.8071,8.0088-21.1609,12.0618-31.73,1.1082-2.89,2.4658-4.9788,6.2223-4.3154,11.8532,2.0931,23.982,3.0844,35.56,6.1684,17.4727,4.6539,34.6306,10.5338,51.8145,16.2186,27.1708,8.9889,51.4118,23.9327,76.2373,37.7323,17.1555,9.5361,34.7653,18.2546,52.1722,27.3384-4.0479,12.9405-2.0625,26.1175-1.552,39.24.8824,22.6844,2.18,45.3644,2.4673,68.0569.2676,21.1338.4454,42.1732,9.108,61.9575a20.0093,20.0093,0,0,0,6.5466,7.5417c5.3115,3.8622,11.0477,2.0354,16.9634.7569,11.0352-2.3848,17.9019-9.1974,18.9532-20.431a109.43,109.43,0,0,0,.7957-14.0618c-.8515-23.6228-.1615-47.2232,1.3207-70.7818a124.9418,124.9418,0,0,0-6.82-50.3469c5.5381,1.7321,11.0684,3.49,16.6169,5.1879,3.9788,1.2179,7.9817,2.3564,11.9734,3.53l-.16-.0066L696.24,674.5l21.3473,7.3838,2.7233.8266-.047-.019,24.5244,8.1867c1.5182,18.5445,3.5484,37.0654,4.4019,55.64.7639,16.6228.143,33.3059.295,49.961.1486,16.2767,11.9536,27.2211,28.0559,26.2356,8.4775-.5189,12.5545-4.1319,13.65-11.6512,3.8176-26.2077.7754-52.2854-1.5961-78.3451-.9975-10.9615-3.0649-21.8257-4.6459-32.7342,10.736,1.5239,21.4523,3.2074,32.212,4.54,24.2261,3,48.616,2.0833,72.9246,3.0509,17.0114.6772,33.2418-2.5835,49.688-5.3771,6.9191-1.1753,13.8354-2.3657,21.8275-3.7329-.4245,7.24-.4428,13.5342-1.2331,19.73-1.449,11.3583-3.467,22.6431-5.0083,33.9911-.5641,4.1537-2.3861,5.44-6.5641,5.2446a176.3794,176.3794,0,0,0-67.3082,9.7183,179.9986,179.9986,0,0,0-57.06,32.8767c-18.5066,15.659-32.8187,34.5856-44.2215,55.8444-.4205.7838-.961,1.5033-1.6328,2.5424a14.2523,14.2523,0,0,1-2.7236-1.49,63.8071,63.8071,0,0,0-45.7685-16.624c-33.7927,1.1835-64.4226,24.5048-71.127,58.5268-1.5792,8.0139-.4323,14.7576,2.3939,21.93,10.7532,27.29,21.3169,54.654,31.9225,82.0016a24.8937,24.8937,0,0,1,.7332,3.6057c-6.7548.5839-13.1482,1.4751-19.5579,1.6141-10.5758.2295-21.1819.3555-31.7382-.1905-9.7707-.5054-19.5479-1.5866-29.2251-3.0544A273.0147,273.0147,0,0,1,551.72,987.3693a278.0136,278.0136,0,0,1-66.7908-38.9181,300.1154,300.1154,0,0,1-46.55-45.5762,315.0038,315.0038,0,0,1-39.37-61.3252c-2.2753-4.5914-4.1929-9.36-6.2755-14.0469,10.458-.5855,20.8187-1.9026,29.1906-8.8787,6.3144-5.2619,12.0563-11.2111,18.053-16.8544,1.7128,4.0337,3.12,8.2317,5.1877,12.0746C459.21,839.95,477.0385,863.0965,499.989,881.997c8.3851,6.9054,17.396,13.0613,26.2319,19.4053,5.9108,4.2438,11.9789,2.6927,16.7815-.99,4.7151-3.6155,5.9247-10.3151,2.3908-15.8969-3.5214-5.5621-8.3481-10.2806-12.1166-15.7064-8.8756-12.7784-17.9084-25.4841-26.0328-38.7371-7.3287-11.9551-14.2546-24.2092-17.9764-38.0086-2.7088-10.0432-6.1742-19.8884-9.48-29.7624-1.8642-5.5683-4.088-11.0162-6.15-16.5183,1.6859-6.4693,3.3719-12.9386,5.3022-20.3456,3.4412,4.7916,6.2946,8.63,9.0075,12.5649,13.3116,19.3083,26.7441,38.4429,35.4609,60.5737,4.1993,10.6616,12.6086,18,25.2909,18.3822,8.6987.262,15.9531-3.1109,23.4349-7.1968,6.5462-3.575,9.9324-8.494,11.5612-15.2485,2.8613-11.8657,4.4034-23.7836,1.6167-35.9242a42.9991,42.9991,0,0,1-.6506-6.7693c-2.1584-32.772-4.26-65.5479-6.4949-98.3147-.3537-5.1843-1.4585-10.2332-6.13-13.6027-13.0032-9.3786-27.08-11.3323-42.1653-6.0761-3.0119,1.0494-4.7459,3.2485-4.434,6.5993.4877,5.2386.95,10.4842,1.6335,15.6992,2.1453,16.3655,4.4054,32.7159,6.58,49.0776.4369,3.2862.6959,6.5961,1.1654,11.1368-1.8236-2.2166-2.8277-3.3169-3.6985-4.5141-10.45-14.3679-21.9-27.8989-35.0833-39.8047a52.5708,52.5708,0,0,0-14.1463-8.6323c-7.8586-3.4368-15.1853-2.08-20.7214,4.9713-3.912,4.9827-7.9731,9.9247-11.2279,15.33-5.9215,9.834-10.9909,20.1847-16.9963,29.9634-4.2687,6.9509-9.49,13.317-14.9926,20.9208-1.6552-6.4648-3.0539-11.5317-4.2446-16.647-4.9739-21.3672-9.841-42.7593-14.844-64.12-1.6888-7.21-5.884-12.6912-12.7794-15.5169C381.7979,636.5338,377.1694,635.6182,372.6956,634.3255ZM574.1809,905.0111c-2.3555.8728-5.0171,1.3072-7.0107,2.6985-6.7888,4.7378-9.0973,16.6638-4.8895,23.8609,5.5763,9.5377,14.0154,15.1423,24.552,17.9364,11.3175,3.0013,19.5866-8.635,18.5384-17.2507C603.5024,916.8947,586.7355,905.9207,574.1809,905.0111Z" transform="translate(-59.9152 -267.9792)"/><path class="e" d="M1053.456,821.4637c6.5839,8.5767,12.8007,15.95,18.2178,23.87,15.0781,22.0461,23.6465,46.6689,26.7143,73.0589,3.44,29.59-1.1009,58.2271-12.5854,85.6868a162.5455,162.5455,0,0,1-43.8844,60.5107,158.8466,158.8466,0,0,1-199.58,8.8378,42.8144,42.8144,0,0,1-3.475-3.2543C943.5389,1016.392,1014.3076,933.685,1053.456,821.4637Z" transform="translate(-59.9152 -267.9792)"/><path class="c" d="M745.5679,1102.9989c11.7771-3.3029,22.9671-6.0163,33.8675-9.6083,12.9351-4.2626,25.6588-9.1826,38.3866-14.0463,2.9126-1.1128,4.77-.7869,7.3347,1.0942,8.5335,6.2588,17.4562,11.9847,26.08,18.1255a11.7263,11.7263,0,0,1,4.3369,5.2783q24.9523,76.22,49.6221,152.5327c4.0663,12.5214,9.0564,24.82,12.0794,37.5857,5.0531,21.3394,2.9475,41.612-15.1091,56.8467-13.4855,11.378-28.8716,11.3809-44.4365,4.6007a54.4828,54.4828,0,0,1-28.0592-27.9988c-5.7491-12.6082-9.3246-26.19-14.2254-39.2052q-33.8725-89.9577-67.9553-179.8363C746.8593,1106.7015,746.287,1105.0131,745.5679,1102.9989Z" transform="translate(-59.9152 -267.9792)"/><path class="f" d="M785.9942,995.8706a324.3187,324.3187,0,0,0,114.1987-89.8177c31.1433-38.41,52.8252-81.707,66.0189-130.1191,6.8616,1.7015,13.474,3.0857,19.9322,4.9914,18.0656,5.3308,34.3437,14.1839,49.4143,25.4161,3.0109,2.244,3.7609,4.3712,2.6,8.0454a405.8233,405.8233,0,0,1-208.754,242.0273c-3.3026,1.612-5.231,1.2916-7.7923-1.3576C806.5458,1039.473,790.6574,1013.47,785.9942,995.8706Z" transform="translate(-59.9152 -267.9792)"/><path class="g" d="M835.8062,812.179c33.9758-29.7244,79.4614-41.0719,114.2742-37.7835a314.4764,314.4764,0,0,1-35.2185,83.6022c-37.9131,63.5631-91.6794,103.7244-133.5764,122.414-.8768-4.039-1.9315-7.8775-2.5248-11.786-6.7931-44.7527,2.1513-86.0478,27.3786-123.7231a8.44,8.44,0,0,1,1.2937-1.2548c4.9928.881,8.8205-.1728,10.4349-5.6974.4393-1.5036,1.8214-2.7226,2.7277-4.1006q5.7483-8.7406,11.47-17.4986l.0133.0361q.5238-.8373,1.0472-1.6746l.0429-.0542q.429-.3908.859-.7814l.1276-.1136q.3935-.3622.7893-.7242l.1837-.18Q835.4659,812.5189,835.8062,812.179Z" transform="translate(-59.9152 -267.9792)"/><path class="h" d="M372.6955,634.3255c4.4739,1.2927,9.1024,2.2083,13.3866,3.9639,6.8954,2.8257,11.0906,8.3067,12.7794,15.5169,5.003,21.36,9.87,42.7524,14.844,64.12,1.1907,5.1153,2.5894,10.1822,4.2446,16.647,5.5029-7.6038,10.7239-13.97,14.9926-20.9208,6.0054-9.7787,11.0748-20.1294,16.9963-29.9634,3.2548-5.4055,7.3159-10.3475,11.2279-15.33,5.5361-7.0513,12.8628-8.4081,20.7214-4.9713a52.5708,52.5708,0,0,1,14.1463,8.6323c13.1834,11.9058,24.6333,25.4368,35.0833,39.8047.8708,1.1972,1.8749,2.2975,3.6985,4.5141-.47-4.5407-.7285-7.8506-1.1654-11.1368-2.175-16.3617-4.4351-32.7121-6.58-49.0776-.6835-5.215-1.1458-10.4606-1.6335-15.6992-.3119-3.3508,1.4221-5.55,4.434-6.5993,15.0857-5.2562,29.1621-3.3025,42.1653,6.0761,4.6717,3.3695,5.7765,8.4184,6.13,13.6027,2.2351,32.7668,4.3365,65.5427,6.4949,98.3147a42.9991,42.9991,0,0,0,.6506,6.7693c2.7867,12.1406,1.2446,24.0585-1.6167,35.9242-1.6288,6.7545-5.015,11.6735-11.5612,15.2485-7.4818,4.0859-14.7362,7.4588-23.4349,7.1968-12.6823-.3821-21.0916-7.7206-25.2909-18.3822-8.7168-22.1308-22.1493-41.2654-35.4609-60.5737-2.7129-3.9351-5.5663-7.7733-9.0075-12.5649-1.93,7.407-3.6163,13.8763-5.3012,20.3473-2.027,2.9332-4.2443,5.7531-6.0516,8.8149-9.2613,15.6893-18.417,31.4409-27.61,47.1707-5.9967,5.6433-11.7386,11.5925-18.053,16.8544-8.3719,6.9761-18.7326,8.2932-29.1906,8.8787l-17.5486-5.8505c-1.12-5.3021-2.6875-10.5553-3.2728-15.9159-1.61-14.748-2.42-29.59-4.2641-44.3042-2.5409-20.27-5.6933-40.4652-8.6746-60.679-2.0089-13.6212-4.1743-27.2194-6.27-40.8278-.4672-3.5505-.7615-7.1347-1.4441-10.6432-.9138-4.6964.2968-8.2713,4.6544-10.5433Q364.2986,636.5351,372.6955,634.3255Zm54.7226,166.6357-.0751.0975c8.1926-7.7866,14.167-17.1154,18.9579-27.267,11.4416-18.1716,21.9152-36.7845,26.4827-58.0926.8834-3.3963,1.8322-6.7308,6.3325-6.7172.906,1.1736,1.868,2.3085,2.7089,3.5271q9.1972,13.3272,18.3533,26.6829l12.4423,18.2855c6.8219,13.26,13.4176,26.6432,20.5467,39.7359,4.6289,8.501,11.7308,12.225,21.8827,10.2518,9.9855-1.9407,19.0843-9.1682,21.0312-18.77.89-4.3887.7663-8.983,1.1027-13.4845-.6022-9.0123-1.2785-18.02-1.7834-27.038-.4056-7.2443-.6036-14.5-.8937-21.7511q-1.7649-23.6761-3.529-47.3536l.044-13.589a89.048,89.048,0,0,1-1.7622-9.7c-.4369-5.8324-2.81-10.5781-8.451-12.154a150.7794,150.7794,0,0,0-20.2769-3.6638c-3.5915-.4881-5.3163,1.8379-5.01,5.317.5393,6.1313,1.2777,12.2451,1.9328,18.3663q.8763,6.5982,1.7528,13.1964l4.2816,36.7249q.7754,9.8937,1.5509,19.7873l.2743-.0457q-.2177,3.1956-.4355,6.3912c-2.0593-.7606-4.7038-.9652-6.0609-2.3932-3.1866-3.3533-5.7576-7.2916-8.5779-10.9924l-12.9135-17.41c-10.1311-11.1232-20.099-22.4022-30.4782-33.2888-3.86-4.0489-9.0285-5.9365-14.871-4.2354-1.9387,1.3406-4.5528,2.26-5.6974,4.0957-4.5906,7.3634-8.7258,15.0108-13.0294,22.5532-.8116,1.0742-1.7023,2.0982-2.422,3.2308q-8.9323,14.058-17.8107,28.15-2.9715,4.7022-5.9365,9.4084-5.09,6.4272-10.18,12.8544-3.041,2.0348-5.1747-.9358l-4.19-16.3413q-3.7365-16.7554-7.4734-33.51-3.0732-14.0208-6.1463-28.0418c-1.2541-5.27-2.6329-10.5148-3.7366-15.8166-2.3687-11.3781-16.0367-15.5294-24.9155-12.7112-3.344,1.0613-4.7566,3.054-4.2537,6.3942,1.7945,11.9192,3.6488,23.8294,5.4805,35.743q1.3162,10.8687,2.6324,21.7374,3.0581,19.9866,6.1159,39.9732l2.437,20.7209c1.0661,10.0406,1.6728,20.16,3.3732,30.0918.9966,5.8214,3.6488,11.3774,5.7793,16.9678a3.8386,3.8386,0,0,0,2.8333,1.9,81.83,81.83,0,0,0,8.46-.2535c11.9193-.5619,20.42-7.4033,28.2808-15.4152Q426.9106,801.5678,427.4181,800.9612Z" transform="translate(-59.9152 -267.9792)"/><path class="g" d="M731.2319,856.5947c10.6364.3081,20.8894,2.281,29.4891,8.8958,3.6338,2.7951,6.4977,6.6822,9.3307,10.3658.7485.9732.4878,3.1743.005,4.5752a175.0658,175.0658,0,0,0-9.62,67.4363c.6123,10.8222,2.3968,21.6,4.0719,32.3319,1.0776,6.9039,1.05,8.01-5.56,9.9977-14.9018,4.4808-29.92,8.5753-44.8514,12.9587-2.5431.7466-3.5482-.1765-4.3869-2.3462-11.6213-30.0656-23.3239-60.1-34.8464-90.2034-.74-1.9343-.4221-4.4008-.168-6.57C677.8609,877.0348,703.4922,856.99,731.2319,856.5947Z" transform="translate(-59.9152 -267.9792)"/><path class="i" d="M269.87,660.3434c7.7531-5.28,15.64-10.3762,23.2214-15.8932A74.5768,74.5768,0,0,1,318.06,632.93a13.3487,13.3487,0,0,1,13.7671,3.6541,24.1566,24.1566,0,0,1,7.3321,14.7562c1.7274,17.3608,2.8945,34.7054-2.0125,51.8488A50.6385,50.6385,0,0,0,335.78,713.524q-3.3652,47.7927-6.5933,95.5952c-.24,3.5656.35,7.2331-.2547,10.7129a13.44,13.44,0,0,1-3.4879,7.0031c-8.8529,8.5619-19.16,14.2007-31.8891,14.236-2.2171-.3638-4.4318-.7426-6.6517-1.0887-8.4967-1.3248-12.1356-8.0288-9.4287-16.2354,1.954-5.9239,3.0384-12.1346,4.5107-18.2165a22.7585,22.7585,0,0,0,.6948-3.0428c1.507-16.3968,3.1733-32.7824,4.3942-49.201.8546-11.493,1.762-23.0594-1.2757-35.0291l-16.882,12.6973c-12.9844,10.74-26.402,21.0066-38.8119,32.3735-9.4171,8.6255-23.6242,9.0128-31.9049-.6342q-8.6886-10.1222-17.4393-20.1905l-4.2442-5.1965-3.1014,4.734q-8.242,11.0463-16.48,22.0956-13.3959,18.0569-26.7375,36.154c-3.9357,5.3668-7.814,10.7838-11.5061,16.32-9.7965,14.6885-28.8662,15.9732-41.1734,5.3942-4.525-3.8895-4.1382-9.6613-2.229-14.346A363.5374,363.5374,0,0,1,90.58,774.4327c9.33-17.5846,19.3108-34.8254,29.1258-52.15a121.3444,121.3444,0,0,1,8.0329-12.585A453.9612,453.9612,0,0,1,174.5719,655.5l8.0975-9.7984c11.8078-4.8312,18.747-1.649,23.7617,11.338,3.7991,9.839,7.1257,19.8593,10.7978,29.7488,1.6745,4.51,3.6751,8.8981,5.8138,14.0275Zm51.0358,130.8813q1.3827-11.2923,2.7653-22.5845c.3677-6.1392.7015-12.2806,1.11-18.4171q1.7055-25.63,3.4607-51.2565,1.2582-14.8872,2.5163-29.7743c-.2856-5.2692-.2669-10.5764-.9191-15.8-1.4452-11.5747-9.9293-15.75-19.8376-9.4143-11.816,7.5558-23.2356,15.7316-34.8269,23.6387l-18.6525,14.9955-18.4589,15.2431c-3.15,2.947-6.2462,5.9537-9.4666,8.8214-2.411,2.1471-4.9816,4.115-7.4811,6.1627-1.0528-1.04-2.5529-1.8895-3.0884-3.1493-4.656-10.9534-9.1638-21.97-13.6638-32.99-2.6182-6.4111-4.6044-13.1487-7.8542-19.2148-3.4459-6.4322-4.8738-6.2588-9.9891-1.1521-1.3917,1.3892-2.8152,2.7484-4.1649,4.1774q-11.3459,12.0111-22.6589,24.0526-7.623,9.4115-15.2458,18.8231c-7.2818,8.2209-13.9808,16.8341-18.2363,27.0921L108.4217,761.88c-1.0422,1.6571-2.2364,3.2388-3.1024,4.9833-6.6465,13.39-13.2966,26.779-19.7884,40.244a7.3193,7.3193,0,0,0,2.6579,9.6393c3.39,2.3489,7.698,4.112,11.4039,1.0574,6.51-5.366,13.2172-10.7269,18.66-17.0993,7.7383-9.06,14.4084-19.0321,21.5369-28.6164l12.9773-18.4552c6.4218-8.5027,12.7952-17.0428,19.3156-25.4693,1.022-1.3209,2.711-2.1256,4.0915-3.1691l6.3449,4.1469q4.8343,6.0091,9.6706,12.0146l7.6066,8.937c1.2759,1.6748,2.4483,3.4418,3.8453,5.0087,6.346,7.1177,10.97,7.7412,18.925,2.5885a44.8252,44.8252,0,0,0,4.3436-3.2569c4.9772-4.1607,9.8318-8.4724,14.887-12.535,13.0421-10.4814,26.1664-20.86,39.2563-31.2814l8.3653-7.7115q1.8413-.0549,3.6845-.1114,1.0818,5.408,2.1634,10.8161c.3858,7.8458,1.1839,15.6981,1.06,23.5358-.1831,11.6326-1.0187,23.2548-1.5776,34.8828l-1.74,18.7122c-1.2765,11.6423-.9181,23.5545-6.3065,34.493-1.2287,2.4943-.316,5.0449,3.0773,5.019,4.9007-.0373,10.1027.5076,14.6227-.9327,5.9481-1.8955,12.2927-4.8649,13.5084-12.0751C319.3615,808.6482,319.9461,799.9049,320.9056,791.2247Z" transform="translate(-59.9152 -267.9792)"/><path class="j" d="M173.4153,742.0413l3.1013-4.734,4.2442,5.1965a414.1261,414.1261,0,0,0,14.2414,78.3617c43.3837,153.9626,163.2266,277.1,315.6352,324.3031a457.9829,457.9829,0,0,0,106.3613,19.8594,440.0193,440.0193,0,0,0,129.0045-10.5491c.4306-.1005.8743-.1461,1.858-.306l2.5345,6.7767c-8.3874,1.6084-16.4225,3.3566-24.5283,4.666a470.2225,470.2225,0,0,1-81.8556,6.4658c-114.0827-1.6558-215.9194-37.5894-303.6026-111.0286-80.77-67.649-132.5851-153.5291-156.49-256.0506-4.4111-18.9174-6.44-38.39-9.5729-57.6061C174.0544,745.6081,173.7263,743.8261,173.4153,742.0413Z" transform="translate(-59.9152 -267.9792)"/><path class="h" d="M784.949,699.9847c1.581,10.9085,3.6484,21.7727,4.6459,32.7342,2.3715,26.06,5.4137,52.1374,1.5961,78.3451-1.0953,7.5193-5.1723,11.1323-13.65,11.6512-16.1023.9855-27.9073-9.9589-28.0559-26.2356-.152-16.6551.4689-33.3382-.295-49.961-.8535-18.575-2.8837-37.0959-4.4019-55.64-.3838-.57-.6611-1.5094-1.167-1.6551-7.7683-2.2382-15.5663-4.373-23.3574-6.5318l.0468.0189-2.7231-.8265q-10.6736-3.692-21.3473-7.3841l-2.3552-1.0327.16.0066c-9.0253-5.2822-12.7239-13.5231-10.585-23.5861,1.3478-6.3411,5.8876-10.3587,12.2567-9.65,24.4986,2.726,48.945,1.1136,73.4227-.17a268.9507,268.9507,0,0,1,27.6645-.1145c8.4446.4286,14.9661,4.823,19.94,11.7583,7.5307,10.5-1.4638,26.6387-12.6879,29.8278-5.75,1.6338-11.86,2.0078-17.8119,2.9187-1.0283.1573-2.0817.1507-3.32.2328C783.6169,689.9212,784.2829,694.9529,784.949,699.9847Zm-11.4976-51.5109-29.4224,1.6115q-25.8741,0-51.7481.0047c-.7681,11.28,1.0335,13.9029,11.6257,16.9815,1.4448.42,2.8624.9334,4.297,1.39q19.5886,6.23,39.1792,12.4544c2.767.7387,4.76,2.1846,4.88,5.3417q2.8324,28.9341,5.6651,57.8675.2974,9.7749.5949,19.55c-.0192,11.3283-.2237,22.66.0124,33.9833.1394,6.6842,3.0227,12.5163,9.7429,14.35,10.3058,2.8126,14.4862.7275,14.7555-8.1123.2281-7.4924.1718-15,.0146-22.4957-.161-7.68-.5975-15.3542-.9136-23.031l-.9788-18.3086c-1.2058-6.4685-2.7-12.8992-3.5534-19.4139-1.4576-11.1314-2.5132-22.3153-3.7375-33.4775-.2732-3.1064-1.86-7.2116-.4636-9.0488,1.5064-1.9818,5.8047-1.8413,8.885-2.6267,4.6535-.3554,9.3806-.3142,13.9427-1.1614,6.4386-1.1956,11.6348-4.7338,13.7236-11.1668,1.6126-4.9662-1.3258-8.9227-5.1086-11.6612a16.3179,16.3179,0,0,0-8.29-3.1187C788.871,648.0317,781.1546,648.3948,773.4514,648.4738Z" transform="translate(-59.9152 -267.9792)"/><path class="k" d="M665.4551,664.7555a124.9418,124.9418,0,0,1,6.82,50.3469c-1.4822,23.5586-2.1722,47.159-1.3207,70.7818a109.43,109.43,0,0,1-.7957,14.0618c-1.0513,11.2336-7.918,18.0462-18.9532,20.431-5.9157,1.2785-11.6519,3.1053-16.9634-.7569a20.0093,20.0093,0,0,1-6.5466-7.5417c-8.6626-19.7843-8.84-40.8237-9.108-61.9575-.2874-22.6925-1.5849-45.3725-2.4673-68.0569-.51-13.1227-2.4959-26.3,1.552-39.24,3.6245-6.6849,8.2638-8.5838,15.7079-6.8652a38.4344,38.4344,0,0,1,25.2552,18.2046c1.9468,3.21,4.0863,6.302,6.1376,9.448q.3444.5616.6889,1.1232Zm-37.0069,109.03c-1.2779,12.1622,1.8264,23.3328,7.4272,34.0249,1.6855,3.2175,4.182,4.8858,7.5285,4.7756,8.2988-.2729,16.2936-3.4464,17.5739-13.5884,1.0541-8.3485.6758-16.8778.9323-25.327q-.4836-7.114-.9674-14.2279a53.8171,53.8171,0,0,1-.3226-6.2258c.9864-16.4609,2.0582-32.9167,3.1045-49.3808l-2.3919-17.5036c-.281-14.0256-7.1215-25.1345-16.4555-34.6964-3.0649-3.14-7.9155-4.8373-12.2437-6.3557-3.9968-1.4022-7.4545,1.3824-8.0025,5.5365a112.51,112.51,0,0,0,1.0959,34.689l1.8225,18.9361q.4433,29.5476.8853,59.0973Z" transform="translate(-59.9152 -267.9792)"/><path class="l" d="M352.7041,659.9255c2.0954,13.6084,4.2608,27.2066,6.27,40.8278,2.9813,20.2138,6.1337,40.4086,8.6746,60.679,1.8444,14.7146,2.654,29.5562,4.2641,44.3042.5853,5.3606,2.1531,10.6138,3.2728,15.916l-1.5687.2622c-4.98-16.1488-10.8713-32.0831-14.7354-48.4946-6.4632-27.4511-9.9549-55.3855-8.483-83.7086C350.9149,679.77,351.9213,669.8534,352.7041,659.9255Z" transform="translate(-59.9152 -267.9792)"/><path class="m" d="M423.7606,481.8381c2.4294-4.9518,4.9145-9.8772,7.2779-14.86,7.1793-15.1375,20.5456-24.6532,32.3066-35.6229,3.1972-2.982,6.7346-5.6181,9.7785-8.7416,7.3985-7.592,15.1411-14.5639,24.3976-20.0343,12.33-7.2869,23.9155-15.8744,37.9284-19.9211,11.4243-3.2991,22.8262-6.6828,34.3071-9.7723,1.7918-.4821,3.9522.4051,5.9425.6591-9.3731,3.7853-18.8364,7.3638-28.1036,11.3933a294.1423,294.1423,0,0,0-86.3434,56.9194C448.0481,454.4427,436.2136,468.4649,423.7606,481.8381Z" transform="translate(-59.9152 -267.9792)"/><path class="n" d="M268.9169,730.955l16.882-12.6973c3.0377,11.97,2.13,23.5361,1.2757,35.0291-1.2209,16.4186-2.8872,32.8042-4.3942,49.201a22.7585,22.7585,0,0,1-.6948,3.0428A403.5331,403.5331,0,0,1,268.9169,730.955Z" transform="translate(-59.9152 -267.9792)"/><path class="o" d="M182.6694,645.7014,174.5719,655.5c1.1666-11.35,2.2438-22.7106,3.5786-34.0409a14.9149,14.9149,0,0,1,2.4452-6.1994,4.3442,4.3442,0,0,1,3.7249-1.5746c.8931.2234,2.0123,2.2737,1.8893,3.3884-.84,7.6143-2,15.1928-3.0126,22.7888C182.9393,641.7976,182.841,643.7544,182.6694,645.7014Z" transform="translate(-59.9152 -267.9792)"/><path class="p" d="M832.0658,816.3512q-5.7328,8.7507-11.47,17.4986c-.9063,1.378-2.2884,2.597-2.7277,4.1006-1.6144,5.5246-5.4421,6.5784-10.4349,5.6974A94.4186,94.4186,0,0,1,832.0658,816.3512Z" transform="translate(-59.9152 -267.9792)"/><path class="p" d="M833.1263,814.7127q-.5234.8373-1.0472,1.6746Q832.6026,815.55,833.1263,814.7127Z" transform="translate(-59.9152 -267.9792)"/><path class="p" d="M834.9451,813.0393q-.3951.362-.7893.7242Q834.5517,813.4016,834.9451,813.0393Z" transform="translate(-59.9152 -267.9792)"/><path class="p" d="M834.0282,813.877q-.43.3908-.859.7815Q833.5991,814.2678,834.0282,813.877Z" transform="translate(-59.9152 -267.9792)"/><path class="d" d="M665.462,664.7344q-.3446-.5616-.6889-1.1232Z" transform="translate(-59.9152 -267.9792)"/><path class="p" d="M835.8062,812.179q-.34.34-.6774.68Q835.4689,812.5191,835.8062,812.179Z" transform="translate(-59.9152 -267.9792)"/><path class="j" d="M402.3148,1211.3783a16.4512,16.4512,0,0,0,1.5968,1.0025c8.0188,3.5351,16.0435,7.0567,24.7448,10.8789,3.0566-6.0451,6.1622-12.1963,9.2775-18.3424a41.2606,41.2606,0,0,1,2.748-5.2112,6.8672,6.8672,0,0,1,8.4314-2.697,6.7412,6.7412,0,0,1,4.701,7.471,17.2493,17.2493,0,0,1-1.4536,5.1977q-13.62,30.7233-27.392,61.3791a21.1068,21.1068,0,0,1-3.7163,5.648c-2.6223,2.8134-6.0123,3.6673-9.51,1.8328-3.66-1.92-4.933-5.2783-4.0256-9.2356a31.4907,31.4907,0,0,1,2.3177-5.8993c3.34-7.2954,6.6738-14.5944,10.1451-21.8274,1.1066-2.3057,1.1787-3.8007-1.49-5.0233-6.467-2.9629-12.8605-6.09-19.2363-9.2464-3.0151-1.4926-4.8226-1.0316-6.4037,2.2509-3.61,7.4939-7.6355,14.7879-11.4929,22.1626-1.7382,3.3229-3.8488,5.9428-8.1961,4.3339-3.82-1.4138-6.3285-5.1854-5.1606-9.4615a89.0822,89.0822,0,0,1,5.9669-16.11c7.2725-14.644,14.9575-29.0828,22.444-43.621,1.0379-2.0157,1.8818-4.1323,2.7958-6.2109,2.2667-5.1552,6.1039-7.2316,10.3045-5.562,4.0215,1.5987,5.7433,6.1162,3.7108,11.17-2.8228,7.0192-6.032,13.8832-9.0887,20.808C403.7326,1208.4277,403.0729,1209.7634,402.3148,1211.3783Z" transform="translate(-59.9152 -267.9792)"/><path class="q" d="M551.4666,1304.2907c-5.8938,4.907-12.2231,7.9735-20.1011,6.5633-8.4266-1.5082-14.2424-6.3782-16.7486-14.25a63.3782,63.3782,0,0,1-2.8048-17.818c-.1625-8.6107.7483-17.2417,1.202-25.864.008-.1512.0212-.3027.0418-.4529.9991-7.3179,4.1736-10.8844,9.1066-10.2328,4.8113.6354,6.4212,4.4115,6.0564,11.8255-.4832,9.8205-.6558,19.6715-.49,29.5014.07,4.1225.4141,9.1306,5.4633,10.45,5.2962,1.3839,7.96-2.9494,10.1709-6.7095,5.3781-9.1462,7.941-19.2691,9.4926-29.6808q1.3956-9.3655,8.5773-9.3609c5.73.0048,9.0684,4.8728,8.36,12.057-.8177,8.2865-1.7756,16.5678-2.2672,24.8753-.3365,5.6846-.6733,11.3885,2.6067,16.7436,1.9286,3.1488.6041,6.5942-2.2111,8.9672a7.5234,7.5234,0,0,1-10.05.2934C555.5448,1309.41,553.801,1306.8639,551.4666,1304.2907Z" transform="translate(-59.9152 -267.9792)"/><path class="o" d="M655.0839,1290.8921c2.6686,1.0123,5.3947,2.998,7.9944,2.8445a93.9928,93.9928,0,0,0,19.0526-2.8658c5.87-1.5977,10.2822-1.1285,12.2534,2.9648,2.0463,4.2495.1445,9.4961-5.0683,12.1139-11.9324,5.9917-24.6519,6.9811-36.9841,2.3693-11.5027-4.3018-16.0212-14.6249-17.5381-26.1629a62.4308,62.4308,0,0,1-.0821-12.69c.9692-12.9829,12.6567-24.6182,25.5923-25.3067,7.9245-.4219,14.2276,2.8941,17.8972,10.09,4.0622,7.9661,3.9034,16.2454-1.9779,22.9547-3.6146,4.1235-9.1041,6.6748-13.9412,9.6206-1.9857,1.2093-4.4707,1.5987-6.7286,2.361Q655.3188,1290.0389,655.0839,1290.8921Zm-3.3148-15.9264c4.1422-2.2643,8.1431-3.9313,11.4226-6.5143,1.2179-.9593,1.107-4.1145.8308-6.1643-.0877-.6509-2.8205-1.6139-4.0861-1.3219C654.3632,1262.2521,651.0167,1267.6563,651.7691,1274.9657Z" transform="translate(-59.9152 -267.9792)"/><path class="q" d="M502.0712,1261.549c-1.537,12.0374-5.1083,22.8719-15.2666,30.3909-14.7724,10.9337-33.5408,5.5615-40.3545-11.51-5.8187-14.5786-.8045-33.4117,11.4971-43.1829,16.6968-13.2625,38.8758-5.1073,42.995,15.8462C501.4947,1255.9035,501.71,1258.78,502.0712,1261.549Zm-17.1388.45a42.83,42.83,0,0,0-.6429-5.8182c-.9341-3.8092-2.7185-7.2-6.8326-8.3138-4.09-1.1072-7.4139.7419-10.1279,3.6364-5.6817,6.0594-7.83,13.1831-5.5948,21.282,2.3371,8.4681,10.1022,10.5883,16.3378,4.4747C482.29,1273.1243,485.0988,1268.2259,484.9324,1261.9987Z" transform="translate(-59.9152 -267.9792)"/><path class="j" d="M612.5973,1293.9623c-3.4979-1.77-6.9072-3.7533-10.5187-5.2486-3.6152-1.4966-7.6488-2.0723-11.1214-3.8074-11.4321-5.712-13.9764-18.8285-5.8154-28.655,7.1135-8.5652,17.9479-11.6,26.8087-7.5092,4.1494,1.9156,6.369,5.6385,5.5,9.386-.83,3.581-3.3341,5.3614-6.8243,5.5942-1.4462.0964-2.9293-.6711-4.4179-.8132-1.6019-.1532-3.6108-.6316-4.7606.1013-1.9157,1.221-3.2882,3.2941-4.8894,5.0084,1.7119,1.2127,3.2695,3.0791,5.1624,3.526,8.5358,2.0155,16.5248,4.9378,22.881,11.2927,6.857,6.8556,7.11,16.43.611,23.6549-10.2973,11.4468-31.4137,12.6972-43.0955,2.5517-3.8175-3.3152-4.7548-7.6873-2.4246-11.3086,2.3206-3.6063,6.5271-4.4075,11.3142-2.715,4.3582,1.541,8.8371,3.1179,13.3791,3.6143,2.56.28,5.3556-1.5909,8.0449-2.4929Z" transform="translate(-59.9152 -267.9792)"/><path class="q" d="M195.5414,999.5849c-.2841,18.542-15.4947,37.51-34.677,43.3706-9.0107,2.7527-18.0258,3.6218-27.27,1.142-18.7719-5.035-29.2284-22.3678-24.7791-41.2806,6.1646-26.2041,36.7974-43.9517,62.2483-36.0648C186.209,971.4456,195.7758,984.2775,195.5414,999.5849ZM144.4759,1028.64c13.0376.2576,26.7932-8.3559,32.1124-20.1083,6.0355-13.3348-1.1518-25.7848-15.7321-26.55-14.4118-.7568-25.6566,5.44-32.9124,17.7835C119.3206,1014.4346,127.4752,1028.3036,144.4759,1028.64Z" transform="translate(-59.9152 -267.9792)"/><path class="q" d="M199.5924,1051.6075c2.5567.8437,5.1887,1.5494,7.6936,2.5676,9.9729,4.0538,15.0641,12.9643,13.6027,23.6C219.01,1091.4454,203.96,1105.6,190.1664,1106.67c-10.1186.7844-18.77-4.378-23.7643-14.2235-1.0893-2.1475-2.0674-4.3514-3.31-6.98-5.7428,4.9419-11.2111,9.6461-16.6774,14.3526-1.49,1.2832-2.9073,2.6636-4.4756,3.8426-4.2508,3.1957-9.3513,2.9482-12.2438-.5-2.8117-3.3517-2.5364-8.341,1.2343-11.8189,5.3329-4.9188,11.0083-9.4658,16.5208-14.1908,12.5193-10.7305,25.0056-21.5,37.5689-32.1782a16.8808,16.8808,0,0,1,5.6849-3.57C196.1411,1039.786,199.5693,1043.85,199.5924,1051.6075Zm-8.0632,15.0814c-10.56,1.1245-17.5013,4.2025-11.2448,15.5759.7254,1.3189,1.3358,2.7024,2.088,4.0048,1.8821,3.2594,5.052,4.4994,8.1156,2.8694,4.161-2.2137,8.63-4.7376,11.4956-8.3086,5.59-6.966,3.48-11.544-5.2678-13.3865C194.805,1067.0414,192.8442,1066.8755,191.5292,1066.6889Z" transform="translate(-59.9152 -267.9792)"/><path class="q" d="M302.7391,1137.433c1.9582,0,3.31-.0034,4.6626,0,19.2582.0551,29.6223,13.2393,24.7567,31.9915-3.8362,14.7845-11.4792,27.63-21.5867,38.9934-4.0922,4.6005-9.1737,5.2937-12.8054,2.1727-3.9952-3.4334-3.5151-8.0318.1653-13.3357,5.4115-7.7985,10.37-15.9288,15.1713-24.1232a29.5065,29.5065,0,0,0,2.9511-9.0212c1.4538-7.1877-2.0638-10.9913-9.3506-9.6993-13.656,2.4214-24.0173,10.139-32.3578,20.9639-1.6921,2.1962-3.7844,4.9575-6.1519,5.5188-2.4628.5838-6.6133-.3317-7.9713-2.137-1.6761-2.2283-2.1331-6.2633-1.4585-9.1269.7163-3.0407,3.1774-5.7791,5.2206-8.3791,7.7617-9.8766,15.6628-19.6438,23.51-29.4531.1892-.2366.3507-.4953.5419-.73,3.4639-4.25,7.4045-5.8337,11.0211-4.11C303.377,1129.0159,303.8386,1132.7985,302.7391,1137.433Z" transform="translate(-59.9152 -267.9792)"/><path class="q" d="M226.2745,1120.7772c-3.1838,7.206-1,14.5976,5.4028,17.9791a68.5289,68.5289,0,0,0,11.4,4.357c5.334,1.6869,8.3364,5.36,7.5554,9.7438-.7912,4.4411-4.9719,7.488-10.3678,6.5846-16.3149-2.7315-31.1865-11.9869-32.4835-31.2a26.5831,26.5831,0,0,1,6.027-19.4585c8.7005-10.3965,19.7118-16.8408,33.412-18.0307,12.6558-1.0991,23.8678,9.0645,23.7828,21.3774a17.3041,17.3041,0,0,1-15.9709,17.3047,40.0573,40.0573,0,0,1-25.4706-6.5095C228.5622,1122.2852,227.5738,1121.6269,226.2745,1120.7772Zm13.164-11.63-.1025,2.3592a105.5236,105.5236,0,0,0,10.8124,2.2672c1.384.1573,2.9353-1.1567,4.41-1.8-1.3108-1.4248-2.5715-3.9939-3.9418-4.0538C246.9157,1107.7582,243.1679,1108.6645,239.4385,1109.1471Z" transform="translate(-59.9152 -267.9792)"/><path class="r" d="M1004.9026,549.8652c-.8308,4.7109.1134,10.5172-4.9195,14.438-6.1671,4.8045-14.9706,3.2411-19.4278-4.5492a120.6461,120.6461,0,0,1-10.7114-23.4515c-8.036-25.6238-19.6172-49.5161-33.5545-72.3472-2.3613-3.8679-5.237-7.4179-7.7725-11.184-2.4234-3.5993-2.29-7.1.7874-10.3286,3.0344-3.1832,6.6494-3.6784,10.7327-1.4211a13.2847,13.2847,0,0,1,2.6441,1.7552c21.1,19.5555,40.6618,40.3142,52.7009,67.0121C1000.3157,520.73,1004.8,538.9152,1004.9026,549.8652Z" transform="translate(-59.9152 -267.9792)"/><path class="r" d="M911.2764,423.7077c-.1136,9.1442-9.0035,15.7051-17.4039,11.8139-5.2741-2.4431-9.9162-6.7764-14.0235-11.0486-3.3614-3.4961-3.4726-8.3709-.8579-12.7075,2.9146-4.834,7.3475-7.8454,13.01-7.9312C900.8146,403.7009,911.3862,414.8738,911.2764,423.7077Z" transform="translate(-59.9152 -267.9792)"/><path class="s" d="M439.9775,801.77c9.1927-15.73,18.3484-31.4814,27.61-47.1707,1.8073-3.0618,4.0246-5.8817,6.0516-8.8149,2.0607,5.5,4.2845,10.9483,6.1487,16.5166,3.3057,9.874,6.7711,19.7192,9.48,29.7624,3.7218,13.7994,10.6477,26.0535,17.9764,38.0086,8.1244,13.253,17.1572,25.9587,26.0328,38.7371,3.7685,5.4258,8.5952,10.1443,12.1166,15.7064,3.5339,5.5818,2.3243,12.2814-2.3908,15.8969-4.8026,3.6828-10.8707,5.2339-16.7815.99-8.8359-6.344-17.8468-12.5-26.2319-19.4053-22.95-18.9-40.7795-42.0475-54.8238-68.1526C443.0978,810.0015,441.69,805.8035,439.9775,801.77Z" transform="translate(-59.9152 -267.9792)"/><path class="s" d="M574.1809,905.0111c12.5546.91,29.3215,11.8836,31.19,27.2451,1.0482,8.6157-7.2209,20.252-18.5384,17.2507-10.5366-2.7941-18.9757-8.3987-24.552-17.9364-4.2078-7.1971-1.8993-19.1231,4.8895-23.8609C569.1638,906.3183,571.8254,905.8839,574.1809,905.0111Z" transform="translate(-59.9152 -267.9792)"/><path class="l" d="M720.264,682.6915c7.7911,2.1588,15.5891,4.2936,23.3574,6.5318.5059.1457.7832,1.085,1.167,1.6551Q732.5264,686.7848,720.264,682.6915Z" transform="translate(-59.9152 -267.9792)"/><path class="l" d="M717.5877,681.8839l2.7231.8265Z" transform="translate(-59.9152 -267.9792)"/><path class="a" d="M693.8852,673.4671,696.24,674.5Q695.0627,673.9838,693.8852,673.4671Z" transform="translate(-59.9152 -267.9792)"/><path class="t" d="M530.24,726.3125c2.82,3.7015,5.3911,7.64,8.5777,10.9931,1.3571,1.428,4.0016,1.6326,6.0621,2.3959a60.4271,60.4271,0,0,1,4.095,5.3594,64.031,64.031,0,0,0,16.4177,18.4664c4.3856,3.2875,7.8913,7.7488,11.7914,11.6839-.3361,4.5011-.2126,9.0954-1.1024,13.4841-1.9469,9.6016-11.0457,16.8291-21.0312,18.77-10.1519,1.9732-17.2538-1.7508-21.8827-10.2518-7.1291-13.0927-13.7248-26.4759-20.5442-39.7366,7.7314-7.8258,15.3837-15.666,15.7132-27.7336C528.368,728.5831,529.5772,727.4553,530.24,726.3125Z" transform="translate(-59.9152 -267.9792)"/><path class="u" d="M426.4028,802.1743c-7.8608,8.0119-16.3615,14.8533-28.2808,15.4152a81.83,81.83,0,0,1-8.46.2535,3.8386,3.8386,0,0,1-2.8333-1.9c-2.1305-5.59-4.7827-11.1464-5.7793-16.9678-1.7-9.932-2.3071-20.0512-3.3739-30.0927,11.2574-6.2249,23.8332-9.9762,34.0523-18.15q2.1328,2.9684,5.1736.94c2.48,5.9285,5.2484,11.7544,7.366,17.8079,2.712,7.7532,5.8431,15.5185,4.1285,24.0886-.4936,2.4677-.7093,4.991-1.0524,7.4888l.075-.0975Z" transform="translate(-59.9152 -267.9792)"/><path class="t" d="M427.0807,738.8176q2.9682-4.7043,5.9366-9.4084,8.8979-14.08,17.8107-28.15c.72-1.1326,1.61-2.1566,2.4233-3.2291,3.8581,3.5376,7.701,7.0889,11.577,10.6037,2.6271,2.3824,5.3008,4.7136,7.9537,7.0677-4.5659,21.306-15.0395,39.9189-26.4809,58.0911-4.2388-.99-6.3748-3.7433-7.7278-7.8582-1.9913-6.0565-4.5914-11.9189-7.0669-17.8074C430.1763,744.9627,428.5651,741.9168,427.0807,738.8176Z" transform="translate(-59.9152 -267.9792)"/><path class="u" d="M500.1783,739.1919q-9.1722-13.3446-18.3533-26.6829c-.8409-1.2186-1.8029-2.3535-2.7094-3.5269-.233-1.4854-.4725-2.97-.6969-4.4569-1.6814-11.1393-9.7879-21.03-6.4419-33.1459,5.8425-1.7012,11.0109.1864,14.871,4.2353,10.3792,10.8866,20.3471,22.1656,30.4791,33.29-2.8956,8.144-5.615,16.3566-8.77,24.3982A9.0218,9.0218,0,0,1,500.1783,739.1919Z" transform="translate(-59.9152 -267.9792)"/><path class="u" d="M400.0627,700.8841q3.7364,16.7554,7.4711,33.5109a66.37,66.37,0,0,1-8.0918,1.8961c-6.7237.7461-12.7967,2.61-17.7227,7.6359-1.7643,1.8-4.298,2.8457-6.48,4.2356q-3.0579-19.9866-6.1159-39.9732a37.3709,37.3709,0,0,1,17.58-11.1768C392.2865,695.2806,396.6979,695.8168,400.0627,700.8841Z" transform="translate(-59.9152 -267.9792)"/><path class="u" d="M570.977,679.0694q1.7649,23.6762,3.5305,47.3536c-1.8755-.3822-4.33-.14-5.5329-1.2514-7.2642-6.7113-16.5851-8.6508-25.486-11.6056q-2.1408-18.3624-4.2819-36.7254c5.1073-.68,10.2807-2.205,15.3049-1.8136C560.0713,675.46,565.4943,677.6465,570.977,679.0694Z" transform="translate(-59.9152 -267.9792)"/><path class="v" d="M543.4886,713.566c8.9009,2.9548,18.2218,4.8943,25.486,11.6056,1.2032,1.1117,3.6574.8692,5.5329,1.2514.2894,7.25.4874,14.5055.893,21.75.5049,9.0177,1.1812,18.0257,1.7833,27.0382-3.9-3.9349-7.406-8.3962-11.7916-11.6837a64.031,64.031,0,0,1-16.4177-18.4664,60.4271,60.4271,0,0,0-4.095-5.3594q.216-3.2.4343-6.3939l-.2743.0457Q544.264,723.46,543.4886,713.566Z" transform="translate(-59.9152 -267.9792)"/><path class="t" d="M366.4905,686.452c-1.8317-11.9136-3.686-23.8238-5.4805-35.743-.5029-3.34.91-5.3329,4.2537-6.3942,8.8788-2.8182,22.5468,1.3331,24.9155,12.7112,1.1037,5.3018,2.4825,10.5462,3.7353,15.818-3.0677,2.9407-5.6595,6.9424-9.31,8.5733C378.9457,683.9449,372.565,684.8557,366.4905,686.452Z" transform="translate(-59.9152 -267.9792)"/><path class="t" d="M537.4542,663.6447c-.6551-6.1212-1.3935-12.235-1.9328-18.3663-.306-3.4791,1.4188-5.8051,5.01-5.317a150.7794,150.7794,0,0,1,20.2769,3.6638c5.6412,1.5759,8.0141,6.3216,8.451,12.154a89.0306,89.0306,0,0,0,1.7623,9.7c-4.9188-.053-9.8651-.4548-14.75-.0728C549.8483,665.9088,543.4357,667.4459,537.4542,663.6447Z" transform="translate(-59.9152 -267.9792)"/><path class="v" d="M427.0808,738.8176c1.4843,3.0992,3.0955,6.1451,4.4256,9.3091,2.4755,5.8885,5.0756,11.7509,7.0669,17.8074,1.353,4.1149,3.489,6.8679,7.7278,7.8582-4.7911,10.151-10.7655,19.48-18.9581,27.2664.3432-2.4978.5589-5.0211,1.0525-7.4888,1.7146-8.57-1.4165-16.3354-4.1285-24.0886-2.1176-6.0535-4.8861-11.8794-7.366-17.8078Q421.99,745.2442,427.0808,738.8176Z" transform="translate(-59.9152 -267.9792)"/><path class="b" d="M375.2388,748.1626c2.1825-1.39,4.7162-2.4356,6.48-4.2356,4.926-5.0259,10.999-6.89,17.7227-7.6359a66.37,66.37,0,0,0,8.0918-1.8961q2.0976,8.17,4.1927,16.34c-10.2182,8.1719-22.794,11.9232-34.0514,18.1481Q376.4576,758.5236,375.2388,748.1626Z" transform="translate(-59.9152 -267.9792)"/><path class="v" d="M500.1783,739.1919a9.0218,9.0218,0,0,0,8.3783-5.8895c3.1553-8.0416,5.8747-16.2542,8.77-24.3982q6.4554,8.7038,12.9127,17.4087c-.6624,1.1424-1.8716,2.27-1.9033,3.43-.33,12.0676-7.9818,19.9078-15.7132,27.7336Q506.3983,748.3351,500.1783,739.1919Z" transform="translate(-59.9152 -267.9792)"/><path class="v" d="M471.9768,671.3793c-3.346,12.116,4.76,22.0066,6.4419,33.1459.2244,1.4869.4639,2.9715.6969,4.4569-4.5-.0138-5.4486,3.3207-6.3328,6.718-2.6537-2.353-5.3274-4.6842-7.9545-7.0666-3.876-3.5148-7.7189-7.0661-11.577-10.6037,4.3023-7.5441,8.4375-15.1915,13.0281-22.5549C467.424,673.6392,470.0381,672.72,471.9768,671.3793Z" transform="translate(-59.9152 -267.9792)"/><path class="w" d="M366.4905,686.452c6.0745-1.5963,12.4552-2.5071,18.1137-5.0347,3.6508-1.6309,6.2426-5.6326,9.31-8.5733q3.0752,14.0187,6.1479,28.04c-3.3645-5.0675-7.7759-5.6037-13.3594-3.8717a37.3709,37.3709,0,0,0-17.58,11.1768Q367.8067,697.3207,366.4905,686.452Z" transform="translate(-59.9152 -267.9792)"/><path class="w" d="M537.4542,663.6447c5.9815,3.8012,12.3941,2.2641,18.8176,1.7617,4.885-.382,9.8313.02,14.75.0728q-.0222,6.7944-.0445,13.59c-5.4831-1.4223-10.9061-3.6087-16.4658-4.0418-5.0242-.3914-10.1976,1.1333-15.3049,1.8136Q538.3307,670.2432,537.4542,663.6447Z" transform="translate(-59.9152 -267.9792)"/><path class="v" d="M426.4028,802.1743l1.0153-1.2131Q426.9105,801.5678,426.4028,802.1743Z" transform="translate(-59.9152 -267.9792)"/><path class="t" d="M159.693,684.562q11.328-12.0282,22.6617-24.0507c1.35-1.429,2.7732-2.7882,4.1649-4.1774,5.1153-5.1067,6.5432-5.28,9.9891,1.1521,3.25,6.0661,5.236,12.8037,7.8542,19.2148,4.5,11.0192,9.0078,22.0361,13.6638,32.99.5355,1.26,2.0356,2.11,3.0879,3.15-.3136,3.9973-.98,7.5628-6.29,7.6186-1.0861.0114-2.2519,1.3725-3.22,2.283q-9.745,9.1706-19.4171,18.4187-4.8345-6.0092-9.6679-12.0188c2.7246-5.1693,5.4484-10.3382,8.4017-15.9426-12.2868-4.4023-19.61-14.7233-28.5194-23.1C161.0017,688.7824,160.5717,686.4336,159.693,684.562Z" transform="translate(-59.9152 -267.9792)"/><path class="u" d="M238.0628,697.8555q9.23-7.6216,18.4593-15.2426c2.1929,1.8167,4.7261,3.35,6.5163,5.5007,6.146,7.3847,12.0317,14.9861,18.0166,22.505-13.0915,10.42-26.2158,20.7989-39.2579,31.28-5.0552,4.0626-9.91,8.3743-14.887,12.535a44.8252,44.8252,0,0,1-4.3436,3.2569c-7.9554,5.1527-12.579,4.5292-18.925-2.5885-1.397-1.5669-2.5694-3.3339-3.8443-5.0091a21.42,21.42,0,0,1,1.85-1.93c13.93-11.39,27.9555-22.665,41.7682-34.1952,4.08-3.4059,3.6272-4.9574-.1693-8.9147C241.2193,702.9413,239.7717,700.273,238.0628,697.8555Z" transform="translate(-59.9152 -267.9792)"/><path class="u" d="M275.1742,667.6169c11.5913-7.9071,23.0109-16.0829,34.8269-23.6387,9.9083-6.3358,18.3924-2.16,19.8376,9.4143.6522,5.2234.6335,10.5306.9193,15.8-9.535,9.6568-18.9319,19.4567-28.7062,28.8645-2.3379,2.25-5.9334,3.194-8.9506,4.7387q-1.8413.055-3.684.1081c-1.528-3.4554-3.0974-6.8909-4.5725-10.3664C281.3621,684.3322,281.89,674.57,275.1742,667.6169Z" transform="translate(-59.9152 -267.9792)"/><path class="t" d="M294.75,772.0279c.558-11.6266,1.3936-23.2488,1.5767-34.8814.1234-7.8377-.6747-15.69-1.0591-23.5357,3.6378-2.1191,7.0832-5.37,10.9664-6.025,3.569-.6015,5.8443-2.5368,8.7292-3.8943,4.23-1.9909,8.8336-3.189,13.278-4.7249q-1.7339,25.6281-3.4608,51.2565c-.4084,6.1365-.7422,12.2779-1.11,18.4171-3.2414,1.1148-6.4257,2.9233-9.7365,3.1961C307.5776,772.36,301.1492,772.0135,294.75,772.0279Z" transform="translate(-59.9152 -267.9792)"/><path class="t" d="M139.7877,772.0906c-7.1265,9.5824-13.7966,19.5547-21.5349,28.6145-5.4429,6.3724-12.15,11.7333-18.66,17.0993-3.7059,3.0546-8.0141,1.2915-11.4039-1.0574a7.3193,7.3193,0,0,1-2.6579-9.6393c6.4918-13.465,13.1419-26.8541,19.7884-40.244a58.6582,58.6582,0,0,1,3.1026-4.9833c7.0188-.0131,14.1152.8218,20.68-2.8493,3.0563-1.7091,4.8054.5166,6.015,2.903C136.8009,765.2553,138.2426,768.6992,139.7877,772.0906Z" transform="translate(-59.9152 -267.9792)"/><path class="u" d="M126.2137,730.4791c4.2555-10.258,10.9545-18.8712,18.2379-27.0905,2.838.29,5.7124.3774,8.5034.9058,8.4416,1.5982,13.6882,8.0264,19.4265,13.5144,1.8568,1.7759,2.5611,4.7566,3.7926,7.1863-1.3805,1.0435-3.07,1.8482-4.0915,3.1691-6.52,8.4265-12.8938,16.9666-19.3158,25.47-4.3346-1.3365-8.5712-2.5045-10.0068-7.8613-1.7209-6.4215-4.8-11.8064-12.4573-12.753C128.8571,732.8413,127.5726,731.36,126.2137,730.4791Z" transform="translate(-59.9152 -267.9792)"/><path class="t" d="M320.9056,791.2247c-.9595,8.68-1.5441,17.4235-2.994,26.021-1.2157,7.21-7.56,10.18-13.5084,12.0751-4.52,1.44-9.722.8954-14.6227.9327-3.3933.0259-4.306-2.5247-3.0773-5.019,5.3884-10.9385,5.03-22.8507,6.306-34.4938,6.5118-1.8694,13.06-3.6247,19.52-5.6587,2.8616-.901,4.6614-.0291,6.0783,2.3394C319.368,788.6925,320.1393,789.9571,320.9056,791.2247Z" transform="translate(-59.9152 -267.9792)"/><path class="v" d="M238.0628,697.8555c1.7089,2.4175,3.1565,5.0858,5.1833,7.1983,3.7965,3.9573,4.2494,5.5088.1693,8.9147-13.8127,11.53-27.8382,22.8053-41.7682,34.1952a21.42,21.42,0,0,0-1.85,1.93q-3.8047-4.4679-7.6085-8.9348c6.4663-6.1431,12.92-12.3031,19.4162-18.4168.9676-.91,2.1334-2.2716,3.22-2.283,5.3106-.0558,5.9766-3.6213,6.29-7.6186,2.5-2.0481,5.0707-4.016,7.4817-6.1631C231.8166,703.8092,234.9131,700.8025,238.0628,697.8555Z" transform="translate(-59.9152 -267.9792)"/><path class="b" d="M126.2137,730.4791c1.3589.88,2.6434,2.3622,4.089,2.5408,7.6575.9466,10.7364,6.3315,12.4573,12.753,1.4356,5.3568,5.6722,6.5248,10.0068,7.8613q-6.4884,9.2267-12.9781,18.4554c-1.5461-3.39-2.9878-6.8343-4.6713-10.1555-1.21-2.3864-2.9587-4.6121-6.015-2.903-6.5653,3.6711-13.6617,2.8362-20.68,2.8493Q117.3177,746.18,126.2137,730.4791Z" transform="translate(-59.9152 -267.9792)"/><path class="v" d="M176.1741,724.9951c-1.2315-2.43-1.9358-5.41-3.7926-7.1863-5.7383-5.488-10.9849-11.9162-19.4265-13.5144-2.791-.5284-5.6654-.6154-8.5034-.9058q7.62-9.414,15.2428-18.8257c.8773,1.8707,1.3073,4.22,2.7078,5.5362,8.9092,8.3765,16.2326,18.6975,28.5194,23.1-2.9533,5.6044-5.6771,10.7733-8.4017,15.9426Q179.3462,727.0688,176.1741,724.9951Z" transform="translate(-59.9152 -267.9792)"/><path class="v" d="M275.1742,667.6169c6.7157,6.9534,6.1879,16.7153,9.6705,24.9209,1.4751,3.4755,3.0445,6.911,4.5725,10.3664q-4.18,3.8585-8.363,7.7139c-5.9841-7.5184-11.87-15.12-18.0158-22.5045-1.79-2.1512-4.3234-3.684-6.5163-5.5007Q265.8477,675.1144,275.1742,667.6169Z" transform="translate(-59.9152 -267.9792)"/><path class="w" d="M328.2415,698.9666c-4.4443,1.5359-9.0477,2.734-13.2779,4.7249-2.8849,1.3575-5.16,3.2928-8.7292,3.8943-3.8832.6545-7.3286,3.9059-10.9664,6.025q-1.0837-5.4081-2.1658-10.8155c3.0162-1.5439,6.6117-2.4876,8.95-4.7379,9.7743-9.4078,19.1712-19.2077,28.7062-28.8645Q329.5,684.0792,328.2415,698.9666Z" transform="translate(-59.9152 -267.9792)"/><path class="v" d="M320.9056,791.2247c-.7663-1.2676-1.5376-2.5322-2.298-3.8033-1.4169-2.3685-3.2167-3.24-6.0783-2.3394-6.46,2.034-13.0083,3.7893-19.52,5.6587q.8706-9.3549,1.7408-18.7121c6.3992-.0151,12.8276.3318,19.1844-.1923,3.3108-.2728,6.4951-2.0813,9.7365-3.1961Q322.2882,779.9325,320.9056,791.2247Z" transform="translate(-59.9152 -267.9792)"/><path class="t" d="M773.8645,687.1694c1.2246,11.1619,2.28,22.3458,3.7378,33.4772.8532,6.5147,2.3476,12.9454,3.5538,19.4142a40.3856,40.3856,0,0,1-20.579,3.5732,9.895,9.895,0,0,0-2.65.4915q-2.8325-28.9342-5.6652-57.8689Q763.063,686.7125,773.8645,687.1694Z" transform="translate(-59.9152 -267.9792)"/><path class="t" d="M747.3828,680.9155q-19.59-6.2265-39.1792-12.4544c-1.4346-.4562-2.8522-.97-4.297-1.39-10.5922-3.0786-12.3938-5.7011-11.6258-16.9839q25.8743-.0035,51.7487-.0026c5.2276,8.1661,5.69,17.3738,5.5886,26.633C749.6028,678.1251,748.1634,679.5167,747.3828,680.9155Z" transform="translate(-59.9152 -267.9792)"/><path class="t" d="M782.1346,758.3691c.316,7.6768.7525,15.3509.9135,23.031.1572,7.4959.2135,15.0033-.0146,22.4957-.2693,8.84-4.45,10.9249-14.7555,8.1123-6.72-1.834-9.6035-7.6661-9.7429-14.35-.2361-11.3229-.0316-22.655-.0127-33.9835,5.3794-1.3885,10.7415-2.8513,16.1468-4.1313C777.1133,758.9642,779.6434,758.7491,782.1346,758.3691Z" transform="translate(-59.9152 -267.9792)"/><path class="b" d="M747.3828,680.9155c.7806-1.3988,2.22-2.79,2.2353-4.1975.1009-9.2592-.361-18.4669-5.5886-26.633q14.7105-.8054,29.4223-1.6111,4.4176,13.51,8.8344,27.02c-3.08.7854-7.3786.6449-8.885,2.6267-1.3965,1.8372.19,5.9424.4635,9.0489q-10.8018-.4565-21.6025-.9126C752.1428,683.1,750.15,681.6542,747.3828,680.9155Z" transform="translate(-59.9152 -267.9792)"/><path class="t" d="M782.2862,675.4936q-4.4171-13.51-8.8344-27.02c7.7028-.0791,15.4192-.4422,23.1024-.0884a16.3179,16.3179,0,0,1,8.29,3.1187c3.7828,2.7385,6.7212,6.695,5.1086,11.6612-2.0888,6.433-7.285,9.9712-13.7236,11.1668C791.6668,675.1794,786.94,675.1382,782.2862,675.4936Z" transform="translate(-59.9152 -267.9792)"/><path class="b" d="M782.1346,758.3691c-2.4912.38-5.0213.5951-7.4654,1.1739-5.4053,1.28-10.7674,2.7428-16.1468,4.1313q-.2971-9.7745-.5947-19.5492a9.9055,9.9055,0,0,1,2.6494-.4911,40.3851,40.3851,0,0,0,20.5789-3.5732Q781.645,749.2147,782.1346,758.3691Z" transform="translate(-59.9152 -267.9792)"/><path class="t" d="M628.4359,763.5369q-.4434-29.5474-.8866-59.0951c1.6843-.6135,3.3342-1.626,5.0585-1.7747,10.41-.898,20.9133-3.5306,31.116,1.1756-1.0455,16.4574-2.1173,32.9132-3.1037,49.3741a53.8335,53.8335,0,0,0,.3225,6.2256C650.4825,763.7891,639.3986,763.1822,628.4359,763.5369Z" transform="translate(-59.9152 -267.9792)"/><path class="t" d="M625.727,685.5058a112.5071,112.5071,0,0,1-1.096-34.689c.548-4.1541,4.0057-6.9387,8.0025-5.5365,4.3282,1.5184,9.1788,3.2158,12.2437,6.3557,9.334,9.5619,16.1745,20.6708,16.4538,34.6966a7.6849,7.6849,0,0,1-1.5451.8432A51.6086,51.6086,0,0,1,625.727,685.5058Z" transform="translate(-59.9152 -267.9792)"/><path class="t" d="M661.91,773.6705c-.2565,8.4492.1218,16.9785-.9323,25.327-1.28,10.142-9.2751,13.3155-17.5739,13.5884-3.3465.11-5.843-1.5581-7.5285-4.7756-5.6008-10.6921-8.7051-21.8627-7.4277-34.0258,1.8841-.34,4.0174-.2233,5.6126-1.0932C643.5962,767.491,652.8469,767.02,661.91,773.6705Z" transform="translate(-59.9152 -267.9792)"/><path class="w" d="M625.727,685.5058a51.6086,51.6086,0,0,0,34.0589,1.67,7.6849,7.6849,0,0,0,1.5451-.8432q1.1985,8.7515,2.3932,17.5068c-10.2031-4.7029-20.7068-2.07-31.1164-1.1723-1.7243.1487-3.3742,1.1612-5.0585,1.7747Q626.6382,694.974,625.727,685.5058Z" transform="translate(-59.9152 -267.9792)"/><path class="w" d="M661.91,773.6705c-9.0632-6.6508-18.3139-6.1795-27.85-.9792-1.5952.87-3.7285.7531-5.6126,1.0932q-.006-5.1218-.0124-10.2465c10.9633-.3558,22.0472.2511,32.5073-4.0956Q661.4265,766.5568,661.91,773.6705Z" transform="translate(-59.9152 -267.9792)"/><path class="w" d="M651.7691,1274.9657c-.7524-7.3094,2.5941-12.7136,8.1673-14,1.2656-.292,3.9984.671,4.0861,1.3219.2762,2.05.3871,5.205-.8308,6.1643C659.9122,1271.0344,655.9113,1272.7014,651.7691,1274.9657Z" transform="translate(-59.9152 -267.9792)"/><path class="v" d="M484.9324,1261.9987c.1664,6.2272-2.6425,11.1256-6.86,15.2611-6.2356,6.1136-14.0007,3.9934-16.3378-4.4747-2.2353-8.0989-.0869-15.2226,5.5948-21.282,2.714-2.8945,6.0382-4.7436,10.1279-3.6364,4.1141,1.1139,5.8985,4.5046,6.8326,8.3138A42.83,42.83,0,0,1,484.9324,1261.9987Z" transform="translate(-59.9152 -267.9792)"/><path class="b" d="M144.4759,1028.64c-17.0007-.336-25.1553-14.205-16.5321-28.875,7.2558-12.344,18.5006-18.54,32.9124-17.7835,14.58.7654,21.7676,13.2154,15.7321,26.55C171.2691,1020.2837,157.5135,1028.8972,144.4759,1028.64Z" transform="translate(-59.9152 -267.9792)"/><path class="w" d="M191.5292,1066.6889c1.315.1866,3.2758.3525,5.1866.755,8.7481,1.8425,10.8581,6.42,5.2678,13.3865-2.8659,3.571-7.3346,6.0949-11.4956,8.3086-3.0636,1.63-6.2335.39-8.1156-2.8694-.7522-1.3024-1.3626-2.6859-2.088-4.0048C174.0279,1070.8914,180.97,1067.8134,191.5292,1066.6889Z" transform="translate(-59.9152 -267.9792)"/><path class="w" d="M239.4385,1109.1471c3.7294-.4826,7.4772-1.3889,11.1785-1.2275,1.37.06,2.631,2.629,3.9418,4.0537-1.4751.6435-3.0264,1.9575-4.41,1.8a105.5236,105.5236,0,0,1-10.8124-2.2672Z" transform="translate(-59.9152 -267.9792)"/></svg>