<svg xmlns="http://www.w3.org/2000/svg" viewBox="0 0 980.5213 1028.3272"><defs><style>.a{fill:#fdfdfc;}.b{fill:#f9fafc;}.c{fill:#f1c63c;}.d{fill:#b5c5e8;}.e{fill:#fee077;}.f{fill:#e3b127;}.g{fill:#94a6cb;}.h{fill:#244799;}.i{fill:#1b1c1e;}.j{fill:#1c1c1d;}.k{fill:#1b1b1d;}.l{fill:#eec33e;}.m{fill:#254899;}.n{fill:#b0b4c0;}.o{fill:#224598;}.p{fill:#fefdfb;}.q{fill:#faf9f5;}.r{fill:#fdfdfd;}.s{fill:#204396;}.t{fill:#204496;}.u{fill:#f9fafb;}.v{fill:#fafbfb;}.w{fill:#f8f8fa;}</style></defs><path class="a" d="M210.5538,778.3367c-9.5068,11.0621-18.48,21.7528-27.74,32.19-6.1289,6.9084-12.7574,13.2827-21.6479,16.7583-9.768,3.8186-19.7,2.7614-28.48-1.5157-7.7943-3.7969-13.0122-11.16-12.4-20.7306.8076-12.63,3.6917-24.7937,9.5886-36.1171,8.5622-16.4414,16.4849-33.2568,25.844-49.23,8.7235-14.8886,18.7616-29.0288,28.6169-43.2233,6.36-9.1609,13.8561-17.5486,19.97-26.8568,2.2772-3.467,2.4033-8.5269,2.9284-12.93,1.0926-9.1632,2.028-18.4269,6.0366-26.8,6.608-13.8031,20.6571-19.4564,33.9543-9.9292,5.5635,3.9862,8.2123,10.4136,8.6245,17.3147.2989,5.0028-.1194,10.0456-.1,15.07.0044,1.1745.0775,2.8221.8076,3.4475,7.6952,6.5926,10.6882,15.8065,14.24,24.7561,1.58,3.9815,3.5672,7.8014,5.5643,12.1155,4.571-3.7887,9.0165-6.9775,12.7738-10.8368,1.4607-1.5,1.6129-4.4807,1.9376-6.8451.9663-7.0369,1.4315-14.1525,2.6278-21.1456,1.8711-10.9369,4.0783-21.82,6.3276-32.6875,4.38-21.1588,11.5746-41.47,19.79-61.353,7.7735-18.8128,16.5213-37.2752,27.9569-54.2007,11.1444-16.4946,22.1981-33.1423,34.6392-48.64,10.3053-12.8372,22.18-24.5062,34.0688-35.9554a350.7942,350.7942,0,0,1,50.728-39.9214A383.0862,383.0862,0,0,1,523.175,330.38a370.3117,370.3117,0,0,1,56.5743-19.9832,393.1649,393.1649,0,0,1,40.0625-8.348c14.2052-2.1372,28.59-3.2082,42.9307-4.2713a229.2034,229.2034,0,0,1,29.5346-.764c13.6567.7575,27.2657,2.5041,40.87,4.0466,25.8946,2.9361,50.9176,9.6241,75.3389,18.4945,20.3866,7.4049,40.3877,15.8319,58.7726,27.5042,15.6139,9.9131,31.3578,19.7175,46.2357,30.6694a297.4063,297.4063,0,0,1,46.2325,42.8743,533.2271,533.2271,0,0,1,34.9754,44.2641c8.2455,11.6086,14.9881,24.3263,21.9335,36.81a315.5122,315.5122,0,0,1,27.9719,68.1513c4.56,16.215,8.3055,32.6923,11.6453,49.2082a251.1636,251.1636,0,0,1,5.1876,48.1786c.073,11.1138,1.1843,22.2588.6273,33.3292-.68,13.5247-2.2581,27.0363-4.1224,40.46-1.7329,12.479-3.934,24.9295-6.7127,37.2151-2.26,9.9931,2.9795,16.4715,8.6394,23.2346,10.6493,12.7247,19.6267,26.5578,25.7705,42.0158,3.6139,9.0928,7.2757,18.3005,9.4634,27.7915,2.4675,10.7061,3.3908,21.7771,4.806,32.7127a82.423,82.423,0,0,1,.8255,12.7864,184.7351,184.7351,0,0,1-14.9977,68.7389,166.6824,166.6824,0,0,1-24.1887,40.1132c-13.7564,16.7188-29.7417,31.0436-48.691,41.9823a182.0442,182.0442,0,0,1-51.8254,19.8153c-7.6934,1.7159-15.7154,2.219-23.6218,2.6435a230.3289,230.3289,0,0,1-24.3063-.0048c-6.52-.34-12.9713-1.905-19.4921-2.331-8.0449-.5251-8.6726-.21-6.7105,9.2523,1.6285,7.8528,4.62,15.43,7.1073,23.0962,8.34,25.706,16.8044,51.3716,25.0593,77.1047,4.6408,14.4667,9.2075,28.9658,13.3623,43.5772,4.4506,15.6523,2.2559,31.0812-3.5991,45.9044a61.0956,61.0956,0,0,1-30.2591,32.9229,53.8145,53.8145,0,0,1-21.8776,5.4675c-23.2805,1.1126-41.4647-8.84-56.4772-25.5741-7.2271-8.056-10.9373-18.2448-14.7892-28.156-8.5136-21.906-16.6777-43.948-24.9948-65.9306q-10.4805-27.701-21-55.3873a10.5461,10.5461,0,0,0-10.5707-6.935c-6.6416.5873-13.24,1.69-19.8466,2.64-4.9793.7158-9.9276,1.6625-14.9169,2.29-25.2751,3.179-50.6891,2.8737-76.0645,2.3866-11.1955-.2149-22.3976-1.783-33.5274-3.259-12.2478-1.6242-24.51-3.3994-36.5939-5.9315-13.7055-2.8718-27.3644-6.1692-40.785-10.1533a443.0045,443.0045,0,0,1-64.6889-24.9993,422.86,422.86,0,0,1-76.3638-46.3563c-11.2594-8.67-22.3-17.6754-32.9037-27.1311-10.17-9.0688-20.06-18.5312-29.3313-28.51a433.8487,433.8487,0,0,1-40.3316-50.4978,442.55,442.55,0,0,1-37.699-66.0074c-6.0182-13.19-11.7977-26.566-16.4708-40.2726-5.7239-16.7886-10.3023-33.9755-15.1119-51.0646C212.6006,790.4031,211.7748,784.3877,210.5538,778.3367Zm623.0236,21.7074-.12.105q-.3952.36-.79.72l-.04.05q-.4823.7716-.9646,1.5432l-.0123-.0331a87.0257,87.0257,0,0,0-22.6954,25.161,27.1914,27.1914,0,0,0-1.8437,2.23c-21.4445,32.1733-29.6526,67.575-25.5656,105.8959.6287,5.8944,1.9984,11.71,3.1694,18.3817,49.7739-24.0872,88.4074-59.2953,117.9065-104.7251a291.5168,291.5168,0,0,0,37.9261-86.0859c-40.8-1.4912-76.0141,9.997-106.2813,36.0915ZM678.15,662.6714l-.6345-1.0356c-1.89-2.9-3.8611-5.75-5.6547-8.7088a35.4116,35.4116,0,0,0-23.2684-16.7806c-6.8586-1.5843-11.1325.1659-14.4723,6.3281-16.0376-8.3732-32.2625-16.4095-48.0685-25.2-22.8727-12.72-45.207-26.4953-70.24-34.7812-15.8322-5.24-31.6405-10.66-47.7389-14.95-10.6675-2.8427-21.8421-3.7567-32.763-5.6861-3.4607-.6115-4.7119,1.3136-5.733,3.9778-3.734,9.742-8.1152,19.286-11.1131,29.2478-3.9169,13.0152-6.7506,26.3566-10.05,39.5577L393,638.6632c.5455-3.9742.8483-8,1.6737-11.9147a321.4883,321.4883,0,0,1,54.2841-123.2294c23.1507-32.0676,51.3125-58.9163,85.048-79.6635C592.56,387.8447,655.8081,373.7045,724.06,384.0181c54.2749,8.2016,101.4009,31.7234,142.1754,68.0633a288.58,288.58,0,0,1,66.2832,87.1891A316.0491,316.0491,0,0,1,965.6,665.1285a310.0845,310.0845,0,0,1-6.1991,81.6273c-.6079,2.8505.1355,3.96,3.0026,4.5454a161.7823,161.7823,0,0,1,61.6906,26.9705c.9369.6636,1.9656,1.1974,3.9789,2.4107,2.9-16.7178,6.0038-32.4462,8.2972-48.292,4.4245-30.5721,4.2186-61.2611.4478-91.87a367.8328,367.8328,0,0,0-44.31-136.1436c-27.2795-48.6836-63.5321-89.347-109.5079-120.9746-66.25-45.5748-139.7515-66.484-220.1027-63.26a346.3841,346.3841,0,0,0-72.7106,10.8008,363.3374,363.3374,0,0,0-117.0655,53.55,369.3727,369.3727,0,0,0-98.95,101.2235c-26.1029,39.5886-44.4224,82.5457-53.7962,129.1-2.9121,14.4621-4.4949,29.1922-6.6839,43.7945l-43.245,37.403c-2.3922-6.01-4.586-11.5169-6.7757-17.0249-4.0013-10.0652-7.7917-20.2218-12.096-30.1556-1.9029-4.3917-6.0373-5.9833-10.8057-5.4945-1.941.199-3.8678.5366-5.8011.811,1.1642-7.7258,2.4244-15.4389,3.4519-23.1828.5131-3.867-1.5316-6.6576-4.8624-7.0607-3.5883-.4341-6.3078,1.1884-6.8144,4.6882-1.9175,13.2451-3.5181,26.5362-5.2372,39.81-.6076.7607-1.1951,1.5386-1.8258,2.28-12.6316,14.8414-25.3437,29.6154-37.8412,44.5688-2.5593,3.0623-4.4465,6.7218-6.4239,10.23-9.0719,16.0941-18.3376,32.088-26.9864,48.4082a263.021,263.021,0,0,0-13.9311,30.6506c-1.3116,3.4959-.8518,9.3163,1.3151,12.1419,6.02,7.85,21.4692,8.8827,28.4155,4.9874,6.5331-3.6638,9.9043-9.406,13.9789-15.0333,14.299-19.7473,28.8944-39.28,43.3773-58.8937a20.6512,20.6512,0,0,1,.7368,2.7547c15.8673,124.1143,74.0171,224.5165,172.6567,300.3853,90.0762,69.2823,192.9656,100.3431,306.7319,93.5091,14.8775-.8937,29.6432-3.5774,44.4813-5.2489,4.14-.4663,4.9639-2.3053,3.4776-5.8428-.2691-.64-.417-1.3312-.6293-1.9961-1.8469-5.7857-2.1422-5.681-7.9525-4.7839-14.3183,2.2108-28.6251,4.9264-43.043,5.979-39.6567,2.8958-78.9519-.43-117.8119-8.8434C404.1185,1075.5251,266.36,934.7606,237.1356,759.2389c-1.1787-7.08-1.5852-14.2879-2.3515-21.4362q6.49,7.6589,12.9836,15.3153c7.4528,8.74,20.5624,8.37,29.1788.5218,11.5-10.4742,23.8636-20,35.8562-29.9326a371.0024,371.0024,0,0,0,12.0311,68.7546c-1.3752,5.6579-2.4073,11.428-4.21,16.9461-2.4113,7.3809.9886,13.5691,8.69,14.796,2.0635.3288,4.1243.6737,6.1864,1.0113,21.8641,58.0187,55.9868,107.5444,103.012,147.9828,55.67,47.8721,120.1082,75.7829,193.0054,84.4367a353.84,353.84,0,0,0,91.39-1.35,345.7618,345.7618,0,0,0,72.126-18.1322c4.9165-1.8212,9.7738-3.802,15.4428-6.0154A170.7391,170.7391,0,0,1,775.33,974.56a5.3225,5.3225,0,0,0-1.3227-.0614q-1.7851.5948-3.5432,1.2707a275.9427,275.9427,0,0,1-94.4055,18.4788,261.09,261.09,0,0,1-72.5067-8.6436A276.9205,276.9205,0,0,1,494.9246,929.109c-37.4947-31.5945-64.9919-70.3872-83.5186-115.6619-.778-1.9014-.7676-4.1258-1.1221-6.2l16.5911,5.461c1.9189,4.3208,3.6862,8.7168,5.7825,12.95a290.3548,290.3548,0,0,0,36.2749,56.53,274.8324,274.8324,0,0,0,42.8945,42.0074A256.6862,256.6862,0,0,0,573.3451,960.07a252.2592,252.2592,0,0,0,56.907,16.0043c8.9163,1.3533,17.9249,2.3481,26.9275,2.8142,9.7264.5038,19.4985.3895,29.2428.1785,5.9063-.1279,11.7975-.95,18.0215-1.4888a22.73,22.73,0,0,0-.6721-3.32c-9.94-25.5936-20.0139-51.1356-29.77-76.7988-1.6916-4.45-3.4945-9.6309-2.7905-14.0859,3.3754-21.3626,14.0142-38.3441,33.1071-49.2033,23.6963-13.4773,50.11-13.5092,72.7092,3.1407,1.7176,1.2654,3.3222,2.6841,5.1469,4.1679.798-1.2261,1.2995-1.8856,1.6861-2.6069,10.5058-19.5968,23.6893-37.0459,40.74-51.4818a165.79,165.79,0,0,1,52.5717-30.3108,162.4727,162.4727,0,0,1,62.0158-8.9631c3.8392.18,5.5345-.9845,6.0552-4.8251,1.4177-10.461,3.28-20.8631,4.6156-31.3333.7286-5.7117.7456-11.5142,1.1373-18.1927-7.3614,1.26-13.7338,2.3509-20.1066,3.44-15.1515,2.59-30.1,5.6029-45.7811,4.9623-22.3955-.9149-44.8693-.0531-67.1908-2.818-9.9138-1.228-19.7875-2.78-29.6795-4.1849-.6137-4.6382-1.2276-9.2763-1.8657-14.0979,1.1411-.0756,2.1117-.0693,3.059-.2144,5.4835-.84,11.1107-1.1894,16.41-2.6912,10.3271-2.9263,18.6344-17.8063,11.6921-27.4926-4.5824-6.3936-10.5915-10.4435-18.3712-10.8392a247.5185,247.5185,0,0,0-25.4882.1052c-22.5523,1.1827-45.0756,2.67-67.6472.1565-5.8683-.6535-10.0516,3.0495-11.2934,8.8941-1.9713,9.2779,1.4382,16.8779,9.7531,21.7406-3.6784-1.0813-7.3668-2.13-11.0326-3.2519-5.1124-1.5651-10.2079-3.1856-15.3107-4.7824ZM829.67,680.63a12.0521,12.0521,0,0,0,2.9511,1.0869c4.5341.3724,9.0824.8733,13.6213.8332,18.7893-.166,37.6048.01,56.3547-.99,10.9286-.5829,21.7823-2.9772,32.61-4.8932,6.994-1.2376,10.9225-5.9186,10.4192-12.89a265.5062,265.5062,0,0,0-3.3724-29.3235c-2.51-13.5222-5.438-27.01-9.0753-40.2695-6.0112-21.9121-15.4871-42.4136-26.8567-62.0767a245.75,245.75,0,0,0-33.6179-45.9545,299.2317,299.2317,0,0,0-33.2167-30.6425,325.1353,325.1353,0,0,0-38.1761-25.1854c-19.4686-11.19-40.6082-18.6185-62.4942-23.4339a253.3529,253.3529,0,0,0-38.6924-5.7992,306.7654,306.7654,0,0,0-41.2507.7584,217.902,217.902,0,0,0-34.274,5.0569,266.3012,266.3012,0,0,0-65.4027,24.8854,270.0126,270.0126,0,0,0-54.0635,38.1552c-14.9675,13.69-28.9378,28.4421-40.4346,45.3062-3.9561,5.8031-8.1143,11.5132-11.5272,17.63-4.15,7.4381-2.1123,11.12,6.2288,13.0388,9.4569,2.1752,19.0145,4.0342,28.306,6.783,22.0474,6.5226,43.8963,13.7937,64.4368,24.2271,17.4087,8.8427,34.3379,18.63,51.4832,27.9926,6.9836,3.8134,13.85,7.8714,21.0025,11.3372,7.0125,3.3978,13.508,8.1339,21.89,8.251,8.8556.1236,16.187,4.36,22.1625,10.4921,3.9294,4.0323,8.5627,5.9068,13.8678,7.3659,4.8706-9.629,13.5768-13.797,23.4376-14.7511,15.1012-1.4613,30.306-1.8944,45.475-2.5838,5.2867-.24,10.6081-.1428,15.8954.1419,13.7676.7414,27.5576,1.3247,41.2775,2.62,15.2275,1.4373,27.0355,16.8906,27.0688,31.5249A41.0443,41.0443,0,0,1,829.67,680.63ZM1035.441,807.5725C999.6669,910.5305,934.3682,986.83,837.3927,1036.6614c4.2783,2.9987,7.5964,5.5058,11.0872,7.7431,32.8389,21.0446,68.645,28.1526,106.8124,20.9708,35.286-6.64,64.4325-24.4726,87.1962-52.307,27.6106-33.7607,38.7323-72.74,34.56-115.876-2.6724-27.6282-12.7929-52.7466-29.4526-75.0554C1043.975,817.2882,1039.8444,812.8205,1035.441,807.5725ZM752.2168,1067.3043c.3113.9062.7629,2.3434,1.2946,3.75q35.2376,93.2581,70.464,186.5206c2.3505,6.2311,3.7227,12.9116,6.6854,18.8125,4.2658,8.4961,11.1606,14.9562,19.1858,20.0657,22.1965,14.132,48.88,6.2071,58.54-17.739,5.3418-13.2426,5.1609-26.6541.6042-40.4571-18.7758-56.8748-37.0838-113.9039-55.6752-170.84a10.1271,10.1271,0,0,0-3.6606-4.6525q-12.4222-8.8593-25.1513-17.2814a6.8609,6.8609,0,0,0-5.1724-.7227c-4.2454,1.3418-8.2331,3.49-12.4666,4.8807C788.8643,1055.5552,770.8122,1061.31,752.2168,1067.3043Zm36.7384-99.3033c7.6435,21.5007,18.9245,40.0736,34.68,55.8222.8247.8244,3.4467.7916,4.6731.1263,13.001-7.05,26.2854-13.6867,38.7352-21.625A366.2619,366.2619,0,0,0,972.4166,900.6169a375.1271,375.1271,0,0,0,49.0061-99.5711c1.1767-3.6844.5239-5.8233-2.5623-8.0873-11.2052-8.22-23.0195-15.3623-36.1319-19.9947-8.863-3.1312-18.0141-5.4464-27.3687-8.2254-12.2946,44.99-32.1752,84.9459-60.9145,120.3381A299.15,299.15,0,0,1,788.9552,968.001ZM259.55,782.693c2.7294,9.5866,5.6952,20.4821,8.9369,31.2948,7.9595,26.5494,19.3176,51.6535,32.7213,75.8535A396.8242,396.8242,0,0,0,337.4436,944.14c12.4018,15.6483,25.1315,30.9606,40.1408,44.194,12.0477,10.6222,24.0517,21.3182,36.52,31.4332,17.6846,14.3474,37.1106,26.169,57.2322,36.7174,12.3806,6.49,25.2495,12.0812,38.0586,17.7133a323.654,323.654,0,0,0,66.1011,20.7087c19.8476,4.0213,40.0789,6.4644,60.255,8.43,12.4567,1.2134,25.1386.554,37.6992.1331,11.9613-.4007,23.9289-1.2754,35.8308-2.5361,7.3644-.78,14.6281-2.589,21.9032-4.0989,3.1907-.6623,5.2912-3.1436,4.8778-6.1665-1.1561-8.4512-5.9116-12.1378-14.799-11.3791-12.0227,1.0262-24.0141,2.76-36.053,3.1592-12.48.4134-25.0114-.1673-37.4992-.76a275.1183,275.1183,0,0,1-29.5254-2.5954c-12.41-1.9448-24.7308-4.5993-36.9731-7.4507a353.5141,353.5141,0,0,1-70.9719-25.06c-20.9249-9.8924-41.0722-21.1644-59.4586-35.2652-13.4275-10.2977-26.8138-20.7448-39.347-32.0892a335.4325,335.4325,0,0,1-39.8905-43.7151,402.6556,402.6556,0,0,1-36.8255-56.7506,331.6627,331.6627,0,0,1-23.7116-55.19c-4.6286-14.4712-8.4065-29.2213-12.3215-43.9117-1.7846-6.6962-2.9863-13.5479-4.432-20.2347ZM686.04,887.0235a26.5944,26.5944,0,0,0,.7722,2.5675q16.0146,41.3573,32.0266,82.7157c.8626,2.2362,1.93,2.9906,4.3641,2.2754,13.7555-4.0425,27.5888-7.824,41.3093-11.9795,5.7591-1.7441,5.89-2.96,4.922-9.0141-1.5144-9.4748-3.2145-18.9815-3.764-28.5366a163.9941,163.9941,0,0,1,8.9121-63.82c.4363-1.2543.5259-3.3729-.2132-4.1677-3.7509-4.0337-7.2561-8.7607-11.8922-11.4246-19.1775-11.02-45.18-6.672-61.7105,9.6315C692.07,863.8477,687.27,874.2722,686.04,887.0235Z" transform="translate(-120.2371 -296.7993)"/><path class="b" d="M644.8846,1203.2384c2.41-2.2388,4.6431-4.0419,6.5534-6.1395a32.23,32.23,0,0,1,21.914-10.3437c11.4755-.8922,25.21,6.43,28.288,20.3811,1.1429,5.18.4641,10.835.132,16.2437-.2222,3.6163.97,6.029,4.0549,7.614,5.78,2.97,8.85,7.5742,9.4744,14.139.8338,8.7674-6.8332,17.3253-15.1637,20.1952-14.1413,4.8718-28.29,5.3607-41.6384-2.5-4.8518-2.8571-8.6165-2.46-12.6581,1.1508-11.8533,10.5889-25.5941,11.7345-39.4873,5.7778-7.1766-3.077-13.4753-2.8009-20.4823-1.0437a13.1129,13.1129,0,0,1-7.7844-.3457c-5.0669-2.1476-10.0063-1.2491-14.8946-.2524-8.2,1.6722-15.6065-.6775-21.6916-5.4341-4.6278-3.6174-8.0367-8.9875-11.3948-13.9772-2.6267-3.9029-3.8073-4.5757-7.4231-1.5162-6.7618,5.7213-14.5726,9.0343-23.3684,8.9093-13.1859-.1873-22.876-6.7306-29.5443-17.9442-.4769-.802-.6657-1.7759-1.146-2.5751-2.8562-4.753-3.8068-4.6789-8.5508-1.3518-6.7823,4.757-13.1473,6.0275-19.9426,1.6741-5.78-3.7028-10.1994-10.47-7.452-19.5547,1.6672-5.5129,3.4958-10.9779,5.0943-16.51.2611-.9038-.2955-2.0442-.4741-3.0753-1.1323.2876-2.6516.2148-3.32.9339-1.6473,1.7711-2.7506,4.04-4.3491,5.8669-3.2943,3.7642-6.2395,8.1541-10.2758,10.8847-9.5906,6.4884-21.1019-.9018-23.45-10.5056-2.0732-8.4783,1.1816-16.0319,4.7292-23.2593,6.1184-12.4642,12.6726-24.72,19.2754-36.9382,2.8678-5.3066,5.8327-10.6937,9.6276-15.3276,3.6734-4.4858,9.2592-5.68,14.9173-4.31,6.3147,1.5283,9.8892,6.0018,11.8259,12.0794,2.0127,6.3161-.4039,11.9673-2.1265,17.7942a41.9853,41.9853,0,0,0-.8976,6.4114l1.9579.8594c1.4625-1.6725,3.0326-3.2635,4.3668-5.0327,3.7107-4.9206,7.3325-9.6326,13.7273-11.6845,6.5305-2.0956,14.8143,2.4673,17.4737,7.1779,3.1038,5.4977,2.8027,10.9225,1.5283,16.6327-.4409,1.9752-.7716,3.975-1.321,6.8423,4.1037-.4242,7.6-1.0551,11.1032-1.0912a34.823,34.823,0,0,1,19.6113,5.57c2.9668,1.9275,5.4248,4.6546,8.05,7.0883,2.1512,1.9945,4.2306,3.0116,7.343,1.6832,12.5509-5.357,20.9508-.8916,25.5805,11.6906,1.5382,4.18,1.3989,4.087,4.4283.9626a57.4154,57.4154,0,0,1,7.7569-6.95c5.1853-3.6871,12.5518-3.7744,17.4857.0377,4.3341,3.3489,7.6374,3.47,12.6059.3868,12.9226-8.0191,25.8693-6.8362,35.1667,2.8462C641.7011,1199.0557,643.0271,1200.9492,644.8846,1203.2384Zm-209.2725-36.6371c.783-1.6135,1.43-2.8375,1.9824-4.1029,2.9036-6.653,5.9753-13.242,8.6-20.0041,1.6-4.1223-.2924-8.11-3.7953-9.4468-3.6233-1.3826-7.2.3862-9.0964,4.529-.8714,1.9042-1.5938,3.8823-2.5492,5.7416-6.9575,13.5391-14.093,26.989-20.8691,40.6179a87.07,87.07,0,0,0-5.601,14.8326,7.3292,7.3292,0,0,0,4.9,9.0208c4.06,1.3718,5.9072-1.1778,7.4865-4.1972,3.6224-6.9248,7.3359-13.8051,10.7925-20.8119,1.21-2.4532,2.5789-2.9706,4.9261-1.8257,6.1469,2.9983,12.2973,5.9916,18.4974,8.8772,2.1341.9933,2.4643,2.1379,1.43,4.2512-2.3315,4.7637-4.4246,9.6438-6.6238,14.4725-1.5617,3.4287-3.3443,6.7741-4.6531,10.2963-1.4679,3.95-.0778,7.729,3.0441,9.5141,3.2562,1.8616,7.3525.9023,9.99-2.5956a28.231,28.231,0,0,0,3.08-5.45q11.9192-26.56,23.7345-53.1677a32.5057,32.5057,0,0,0,2.0966-5.4582c.9026-3.7368-.7653-7.05-3.917-8.33-3.1938-1.2973-6.5369-.0643-8.5711,3.28-.7946,1.3065-1.354,2.7548-2.0442,4.1263-2.8064,5.5762-5.6222,11.1476-8.4854,16.8216Zm137.5069,85.6329c2.0345,2.226,3.7208,4.6846,5.977,6.3874a6.9449,6.9449,0,0,0,9.2558-.3758c2.7509-2.3632,2.9625-5.3325,1.9826-8.772-1.1184-3.9254-2.4474-8.016-2.3722-12.01.1548-8.21,1.2649-16.3989,1.8035-24.6082a22.203,22.203,0,0,0-.5274-7.3988c-.9244-3.2479-3.4715-4.9537-6.9686-4.9366a6.96,6.96,0,0,0-6.8062,4.6465,41.5418,41.5418,0,0,0-1.1742,4.8583c-1.9986,7.2453-3.7206,14.59-6.1952,21.6706a26.4979,26.4979,0,0,1-5.846,9.0337c-3.9289,4.1553-8.4309,2.8457-10.15-2.6476a18.8139,18.8139,0,0,1-.9372-5.7622q.1932-14.2139.6912-28.4229c.1815-5.1019-1.7107-8.3042-5.6315-8.8789-3.9167-.574-6.74,1.8591-7.9425,6.8605a14.07,14.07,0,0,0-.4991,2.4567c-.4705,8.4946-1.3117,16.997-1.1956,25.4855a49.6892,49.6892,0,0,0,2.6473,15.5622c4.411,12.5439,18.8376,16.9975,29.95,9.7031C570.5614,1254.18,571.86,1253.15,573.119,1252.2342Zm95.4023-12.5522q.2831-.7329.566-1.4656c2.1126-.6966,4.4485-1.0292,6.2933-2.1622,4.4486-2.7325,9.6072-5.0643,12.8016-8.9415,9.2711-11.2534,2.4523-28.3641-11.6481-30.2332-6.6447-.8806-12.3145,1.8367-17.3548,5.8836-10.5023,8.4324-10.8171,19.9075-8.819,31.7313,1.64,9.7045,6.2364,18.1073,15.9123,21.5333A42.0872,42.0872,0,0,0,700,1253.8069c5.0215-2.51,6.8131-7.5079,4.695-11.47-1.9556-3.6576-5.9393-3.9213-11.4314-2.4234a83.652,83.652,0,0,1-17.58,2.5326C673.3506,1242.5681,670.912,1240.6639,668.5213,1239.682Zm-140.92-26.6315c-.3114-2.4982-.4981-5.1493-.9878-7.7433-3.7335-19.7736-24.5678-27.3333-40.0724-14.5719-11.1785,9.2006-15.5433,26.694-9.9754,39.9789,6.3885,15.2426,23.3681,19.9928,36.7361,10.2828C522.7442,1234.1382,526.0854,1224.186,527.6013,1213.0505Zm101.847,29.5289q-.0931,1.1782-.1864,2.3566c-2.6774.7593-5.44,2.3478-8.0125,2.0845-3.91-.4-7.77-1.869-11.5022-3.28-4.5378-1.7158-8.6545-.9047-10.7339,2.5873-2.0218,3.3954-1.047,7.4155,2.5209,10.3967,10.8487,9.0644,29.4072,8.0759,39.1106-2.0831,6.4625-6.7658,6.3145-15.8219-.3541-22.3885-5.1333-5.055-11.3937-7.9227-18.3181-9.5382a37.09,37.09,0,0,1-5.2255-1.4563c-2.3854-.9433-2.7426-2.5371-1.0584-4.5654,2.4236-2.9188,5.2176-3.6321,8.9364-2.4383,5.3731,1.7249,9.8263-1.4978,9.4325-6.5265-.285-3.6391-2.6806-5.682-5.8461-6.9617-8.1821-3.3078-17.0182-.7768-23.6753,6.7511-8.0661,9.1211-5.7433,21.59,5.2194,26.9481,3.0944,1.5125,6.66,2.0309,9.87,3.3453C622.9869,1239.1875,626.1811,1240.9727,629.4483,1242.5794Z" transform="translate(-120.2371 -296.7993)"/><path class="b" d="M326.42,1082.15c9.7439-4.1847,17.9719-3.7407,25.9471,3.1083,3.7129,3.1888,9.23,4.1738,13.63,6.6834,9.3328,5.3229,15.2763,12.8764,16.6259,24.1207,1.5816,13.1765-3.2566,24.4988-9.251,35.3518a84.1582,84.1582,0,0,1-14.2673,19.2482c-10.144,9.9677-23.5109,7.2885-29.3546-4.1244-3.0117-5.8816-1.4347-11.7841,1.6448-17.2713,3.0319-5.4024,6.2262-10.7133,9.3155-16.0837a17.5153,17.5153,0,0,0,.9285-2.4193c-4.9371-1.4237-7.4663,2.3229-10.39,4.5241-3.0078,2.2643-5.3555,5.3844-8.148,7.9607-9.654,8.9069-25.3591,5.0494-28.08-7.261-1.9409-8.7828-8.2318-6.9452-13.4982-8.049-17.3961-3.6457-32.6218-16.6949-34.0151-35.9-.1072-1.4782-.8685-2.9582-.76-4.3944.6323-8.3346-1.7924-7.6606-7.678-7.5752-7.94.1151-14.72-3.0011-20.7869-7.8814-4.4616-3.5887-5.7633-3.5942-10.6683-.3967-4.8366,3.1527-9.42,6.7079-15.7542,6.7011-6.65-.0072-11.5642-2.6019-14.9249-8.2387-3.83-6.423-3.515-13.1647.9194-18.6989,4.6819-5.843,10.6319-10.6723,16.0552-15.9161,3.291-3.182,6.6339-6.31,10.5865-10.0638-7.728-1.5925-14.146-2.442-20.2679-4.2791a39.0161,39.0161,0,0,1-24.9018-21.2493c-6.418-13.2273-5.3886-26.32.6956-38.9042,5.3929-11.1538,14.2-19.5136,25.3235-25.3493a55.85,55.85,0,0,1,28.9908-6.6433c18.5589.8489,36.4219,12.9033,40.8454,32.9388,2.24,10.1434.5159,19.4734-3.544,28.6722-.9232,2.0915-1.9721,4.1338-2.7815,6.2677-1.29,3.4013,1.45,4.9844,3.4288,6.6742,6.1314,5.2357,12.6728,10.0226,18.52,15.55a27.1214,27.1214,0,0,1,8.6219,19.5782,13.2243,13.2243,0,0,0,.9567,5.5673,4.6865,4.6865,0,0,0,3.7273,1.8671c3.3663-.1741,6.8813-1.8173,10.0155-1.2113,6.1326,1.1858,12.6978,2.4292,17.9086,5.589,9.4534,5.7325,13.8358,14.9825,13.5009,26.2587C325.4908,1078.4662,326.0489,1080.0494,326.42,1082.15ZM164.4292,978.4665c-.5447,17.1779,8.7791,29.7079,22.8485,33.6771,23.1654,6.5354,50.034-8.5148,56.595-31.701,5.0235-17.7525-4.2876-34.5474-22.0168-39.5785a41.8705,41.8705,0,0,0-29.78,2.6608C176.0247,950.9914,165.9992,963.1483,164.4292,978.4665Zm50.878,71.988c1.12,2.4,2.007,4.4374,3.0053,6.4189,4.9138,9.754,14.549,15.2146,23.9277,12.8372,11.9-3.0164,20.8322-9.8929,25.1138-21.834,4.1866-11.6761-.8615-22.3743-12.4856-26.6442-2.05-.7529-4.15-1.3713-6.2708-2.0663.7142-3.8275.1317-7.0155-3.3966-8.8243-3.7883-1.942-6.6266.124-9.389,2.49q-20.4987,17.5525-41.0371,35.0591c-3.3875,2.9-6.8839,5.7164-9.9573,8.9284a7.4939,7.4939,0,0,0-.0252,10.2807,7.7388,7.7388,0,0,0,9.9558.881,48.0431,48.0431,0,0,0,4.5531-3.6741C204.5655,1059.775,209.8076,1055.2178,215.3072,1050.4545Zm128.8117,47.9228c.0718-.764.0772-1.311.18-1.8386.6341-3.2417-.3255-5.943-3.2185-7.5018a6.5876,6.5876,0,0,0-8.4609,1.2967c-3.52,3.945-6.6519,8.2361-9.9512,12.3783-6.0842,7.6388-12.38,15.1211-18.1752,22.9735-3.3306,4.5132-2.3327,9.791,1.4756,12.2538,3.7523,2.4268,8.1483,1.0956,11.32-3.6875,6.1125-9.2175,14.779-15.0816,24.861-19.0147a21.7982,21.7982,0,0,1,7.3693-1.3031c5.1861-.1018,7.5795,2.4917,6.8317,7.6251a27.4484,27.4484,0,0,1-2.7832,9.5746q-6.6287,11.5724-14.1894,22.6018c-3.2014,4.6794-3.6,8.9023-.1361,11.9973,3.2224,2.8791,7.972,2.4484,11.518-1.4729,9.6-10.6165,16.84-22.68,20.352-36.6192,4.36-17.3016-5.292-29.2682-23.1357-29.2633C346.7445,1098.3776,345.5121,1098.3773,344.1189,1098.3773Zm-70.77-15.42c1.3411.8676,2.3562,1.539,3.3855,2.1877a36.7862,36.7862,0,0,0,23.0877,5.9014,16.0032,16.0032,0,0,0,14.9-16.6365,19.3755,19.3755,0,0,0-16.7823-18.5868c-13.9839-1.8987-24.9054,4.6273-34.1123,14.2248a26.01,26.01,0,0,0-6.2984,11.0984c-5.3664,21.316,11.1051,35.783,30.4195,37.62a7.3975,7.3975,0,0,0,8.0361-6.44c.4686-3.5862-1.7632-6.8389-5.689-8.2565-3.6631-1.3225-7.48-2.32-10.9685-4.0029C272.8141,1096.9255,270.5434,1090.4284,273.3484,1082.9571Z" transform="translate(-120.2371 -296.7993)"/><path class="c" d="M410.2816,807.2474c.3568,2.0739.3464,4.2983,1.1244,6.2,18.5267,45.2747,46.0239,84.0674,83.5186,115.6619A276.9205,276.9205,0,0,0,603.552,985.6043a261.09,261.09,0,0,0,72.5067,8.6436,275.9427,275.9427,0,0,0,94.4055-18.4788q1.7561-.6765,3.5432-1.2707a5.3225,5.3225,0,0,1,1.3227.0614,170.7391,170.7391,0,0,0,35.1456,57.5771c-5.669,2.2134-10.5263,4.1942-15.4428,6.0154a345.7618,345.7618,0,0,1-72.126,18.1322,353.84,353.84,0,0,1-91.39,1.35c-72.8972-8.6538-137.3357-36.5646-193.0054-84.4367C391.4864,932.76,357.3637,883.2339,335.5,825.2152c11.7223-.0428,21.2206-5.2344,29.3787-13.1212a12.5188,12.5188,0,0,0,3.2165-6.4565c.5552-3.0618-.0011-6.3061.211-9.4525q2.9838-44.2746,6.0978-88.54a46.4239,46.4239,0,0,1,1.2508-9.5271c4.5423-15.8024,3.43-31.7924,1.8587-47.7951a22.15,22.15,0,0,0-6.7529-13.6,12.3312,12.3312,0,0,0-12.6841-3.3749,69.0767,69.0767,0,0,0-23.3336,10.8693c-6.8537,5.0233-14.0227,9.6161-21.0532,14.3981,2.1914-14.6074,3.7742-29.3375,6.6863-43.8,9.3738-46.5539,27.6933-89.511,53.7962-129.1a369.3727,369.3727,0,0,1,98.95-101.2235,363.3374,363.3374,0,0,1,117.0655-53.55,346.3841,346.3841,0,0,1,72.7106-10.8008c80.3512-3.2237,153.8528,17.6855,220.1027,63.26,45.9758,31.6276,82.2284,72.291,109.5079,120.9746a367.8328,367.8328,0,0,1,44.31,136.1436c3.7708,30.6093,3.9767,61.2983-.4478,91.87-2.2934,15.8458-5.3972,31.5742-8.2972,48.292-2.0133-1.2133-3.042-1.7471-3.9789-2.4107a161.7823,161.7823,0,0,0-61.6906-26.9705c-2.8671-.5855-3.6105-1.6949-3.0026-4.5454A310.0845,310.0845,0,0,0,965.6,665.1285a316.0491,316.0491,0,0,0-33.0816-125.858,288.58,288.58,0,0,0-66.2832-87.1891c-40.7745-36.34-87.9-59.8617-142.1754-68.0633-68.252-10.3136-131.5,3.8266-190.0543,39.8375-33.7355,20.7472-61.8973,47.5959-85.048,79.6635a321.4883,321.4883,0,0,0-54.2841,123.2294c-.8254,3.9152-1.1282,7.94-1.6681,11.9116-3.999,2.101-5.2205,5.3528-4.3427,9.7328.65,3.244.9,6.5684,1.3276,9.857-.7354,9.4149-1.8357,18.8185-2.13,28.2473a298.6041,298.6041,0,0,0,4.0063,57.0257,313.0527,313.0527,0,0,0,15.8067,60.5348c.477,1.2674,1.6974,2.2549,2.572,3.3726ZM991.758,556.6987l-.8339-.29c-.0795-.9745-.1683-1.9483-.2373-2.9236-1.5155-21.4467-10.0989-40.1825-22.2966-57.4454-9.8751-13.9758-22.0262-25.9231-34.4188-37.62a13.7811,13.7811,0,0,0-2.743-1.9024c-3.7916-2.1256-7.0992-1.7142-9.9166,1.1655-2.8777,2.9414-3.1688,5.9464-.6324,9.8462,2.432,3.7394,5.3019,7.2032,7.6092,11.0125a303.91,303.91,0,0,1,31.1707,68.4246,86.3415,86.3415,0,0,0,9.1439,19.2013c4.5188,7.4152,14.2722,8.8338,18.7279,2.76C989.7911,565.5738,990.3448,560.8208,991.758,556.6987ZM904.6319,440.35c.0175-8.0069-9.3509-18.0129-17.4943-18.1661-5.2337-.0984-9.3488,2.6544-12.1113,7.0643-2.5768,4.1136-2.458,8.7137.7215,12.089,3.6547,3.88,7.8541,7.7561,12.5913,9.99C896.2418,455.0542,904.6131,448.9686,904.6319,440.35Z" transform="translate(-120.2371 -296.7993)"/><path class="d" d="M408.4126,634.6407c3.3-13.2011,6.1335-26.5425,10.05-39.5577,2.9979-9.9618,7.3791-19.5058,11.1131-29.2478,1.0211-2.6642,2.2723-4.5893,5.733-3.9778,10.9209,1.9294,22.0955,2.8434,32.763,5.6861,16.0984,4.29,31.9067,9.71,47.7389,14.95,25.0335,8.2859,47.3678,22.0608,70.2405,34.7812,15.806,8.79,32.0309,16.8265,48.0686,25.1995-3.73,11.9284-1.9,24.0747-1.43,36.171.8129,20.91,2.0086,41.8162,2.2732,62.7338.2465,19.4808.4109,38.8744,8.3916,57.1113a18.4387,18.4387,0,0,0,6.0317,6.9518c4.8936,3.56,10.1786,1.8763,15.6289.6978,10.1673-2.1984,16.4938-8.4778,17.4625-18.8326a101.1981,101.1981,0,0,0,.7335-12.9621c-.7818-21.9148-.1564-43.81,1.24-65.6639a114.146,114.146,0,0,0-6.3074-45.99c5.1028,1.5968,10.1983,3.2173,15.3107,4.7824,3.6658,1.1223,7.3542,2.1706,11.0321,3.2519l-.1482-.0056,2.17.953,19.6684,6.8075,2.5075.7616-.0422-.0171,22.5945,7.5459c1.3991,17.0938,3.27,34.1659,4.0568,51.2879.7041,15.3226.1317,30.7009.2717,46.0532.1369,15.0042,11.0126,25.0921,25.8489,24.1837,7.811-.4782,11.5673-3.8084,12.5764-10.74,3.5173-24.1579.7142-48.1958-1.4706-72.2173-.919-10.1042-2.8239-20.1186-4.2807-30.1739,9.8919,1.4048,19.7656,2.9567,29.6794,4.1847,22.3215,2.7649,44.7953,1.9031,67.1908,2.818,15.6813.6406,30.63-2.372,45.7811-4.9623,6.3728-1.0895,12.7452-2.1808,20.1066-3.44-.3917,6.6785-.4087,12.481-1.1373,18.1927-1.3356,10.47-3.1979,20.8723-4.6156,31.3333-.5207,3.8406-2.216,5.005-6.0552,4.8251a162.4727,162.4727,0,0,0-62.0158,8.9631,165.79,165.79,0,0,0-52.5717,30.3108c-17.0511,14.4359-30.2346,31.885-40.74,51.4818-.3866.7213-.8881,1.3808-1.6861,2.6069-1.8247-1.4838-3.4293-2.9025-5.1469-4.1679-22.6-16.65-49.0129-16.618-72.7092-3.1407-19.0929,10.8592-29.7317,27.8407-33.1071,49.2033-.704,4.455,1.0989,9.6364,2.7905,14.0859,9.7562,25.6632,19.83,51.2052,29.77,76.7988a22.73,22.73,0,0,1,.6721,3.32c-6.224.5385-12.1152,1.3609-18.0215,1.4888-9.7443.211-19.5164.3253-29.2428-.1785-9.0026-.4661-18.0112-1.4609-26.9275-2.8142a252.2592,252.2592,0,0,1-56.907-16.0043,256.6862,256.6862,0,0,1-61.5182-35.8741,274.8324,274.8324,0,0,1-42.8945-42.0074,290.3548,290.3548,0,0,1-36.2749-56.53c-2.0963-4.2328-3.8636-8.6288-5.7826-12.95,9.6353-.5395,19.1809-1.7535,26.8941-8.1843,5.8177-4.85,11.1079-10.334,16.6329-15.5359,1.5782,3.7182,2.875,7.5879,4.78,11.13,12.9394,24.0635,29.3662,45.4,50.5115,62.8221,7.7255,6.3652,16.0276,12.04,24.1686,17.8874,5.4457,3.9117,11.0365,2.4821,15.4614-.9126,4.3441-3.3327,5.4586-9.5083,2.2027-14.6535-3.2444-5.127-7.6914-9.4765-11.1635-14.4779-8.1775-11.779-16.5-23.4909-23.9851-35.7073-6.7523-11.02-13.1334-22.3156-16.5624-35.0358-2.4957-9.2577-5.6885-18.3328-8.7342-27.4345-1.7175-5.1328-3.7664-10.1545-5.6661-15.2263L506.3,718.6256c3.17,4.4167,5.7992,7.9547,8.2986,11.5819,12.2647,17.7982,24.6407,35.4361,32.6718,55.836,3.869,9.8277,11.6169,16.5943,23.3014,16.944,8.0124.24,14.6981-2.8657,21.5913-6.6325a20.2722,20.2722,0,0,0,10.6524-14.0556c2.636-10.9375,4.0575-21.9233,1.49-33.1144a39.6382,39.6382,0,0,1-.6-6.24c-1.9886-30.2088-3.9246-60.4212-5.984-90.6252-.3258-4.7787-1.3434-9.4332-5.6475-12.5391-11.98-8.6453-24.9494-10.4465-38.8486-5.6017-2.7749.9672-4.3733,2.9938-4.0859,6.0827.4492,4.8289.8749,9.6641,1.5048,14.4713,1.9765,15.0855,4.0587,30.1571,6.0629,45.239.4025,3.0295.6415,6.0806,1.0742,10.2664-1.68-2.0429-2.6053-3.0568-3.4075-4.16A235.7585,235.7585,0,0,0,522.05,669.3869a48.4348,48.4348,0,0,0-13.0334-7.9574c-7.24-3.1682-13.991-1.918-19.0918,4.5816A142.3293,142.3293,0,0,0,479.58,680.1422c-5.4558,9.0649-10.1266,18.606-15.66,27.62-3.933,6.4074-8.7432,12.2759-13.8132,19.2852-1.5254-5.96-2.814-10.63-3.911-15.3445-4.5826-19.696-9.0669-39.4149-13.6763-59.1046-1.5559-6.6463-5.421-11.6986-11.7739-14.3034C416.7991,636.6762,412.5347,635.8323,408.4126,634.6407Zm185.8146,249.53c-2.1846.7685-4.6388,1.1331-6.5048,2.379-6.4054,4.277-8.54,15.5584-4.5087,22.308,5.222,8.7433,12.984,13.9563,22.7384,16.378,10.4883,2.604,17.9245-8.4629,16.8143-16.22C620.71,894.6522,605.2416,885.0288,594.2272,884.1705Z" transform="translate(-120.2371 -296.7993)"/><path class="e" d="M1035.441,807.5725c4.4034,5.248,8.534,9.7157,12.155,14.5644,16.66,22.3088,26.78,47.4272,29.4526,75.0554,4.1722,43.1356-6.95,82.1153-34.56,115.876-22.7637,27.8344-51.91,45.6672-87.1962,52.307-38.1674,7.1818-73.9735.0738-106.8124-20.9708-3.4908-2.2373-6.8089-4.7444-11.0872-7.7431C934.3682,986.83,999.6669,910.5305,1035.441,807.5725Z" transform="translate(-120.2371 -296.7993)"/><path class="c" d="M752.2168,1067.3043c18.5954-5.9942,36.6475-11.7491,54.6475-17.6628,4.2335-1.3909,8.2212-3.5389,12.4666-4.8807a6.8609,6.8609,0,0,1,5.1724.7227q12.7416,8.3912,25.1513,17.2814a10.1271,10.1271,0,0,1,3.6606,4.6525c18.5914,56.9361,36.8994,113.9652,55.6752,170.84,4.5567,13.803,4.7376,27.2145-.6042,40.4571-9.6593,23.9461-36.3431,31.871-58.54,17.739-8.0252-5.11-14.92-11.57-19.1858-20.0657-2.9627-5.9009-4.3349-12.5814-6.6854-18.8125q-35.1869-93.2775-70.464-186.5206C752.98,1069.6477,752.5281,1068.2105,752.2168,1067.3043Z" transform="translate(-120.2371 -296.7993)"/><path class="f" d="M788.9552,968.001a299.15,299.15,0,0,0,105.49-82.9245c28.7393-35.3922,48.62-75.3482,60.9145-120.3381,9.3546,2.779,18.5057,5.0942,27.3687,8.2254,13.1124,4.6324,24.9267,11.7745,36.1319,19.9947,3.0862,2.264,3.739,4.4029,2.5623,8.0873a375.1271,375.1271,0,0,1-49.0061,99.5711,366.2619,366.2619,0,0,1-105.3731,101.7076c-12.45,7.9383-25.7342,14.5748-38.7352,21.625-1.2264.6653-3.8484.6981-4.6731-.1263C807.88,1008.0746,796.5987,989.5017,788.9552,968.001Z" transform="translate(-120.2371 -296.7993)"/><path class="g" d="M834.2659,799.3789c30.2672-26.0945,65.4815-37.5827,106.2813-36.0915a291.5168,291.5168,0,0,1-37.9261,86.0859c-29.4991,45.43-68.1326,80.6379-117.9065,104.7251-1.171-6.672-2.5407-12.4873-3.1694-18.3817-4.087-38.3209,4.1211-73.7226,25.5656-105.8959a26.9309,26.9309,0,0,1,1.8446-2.23c4.6007.8129,8.1253-.162,9.6133-5.2524.4051-1.386,1.6779-2.51,2.5128-3.78q5.2963-8.0567,10.5684-16.1292l.0125.0331q.4825-.7716.9644-1.5432l.04-.05q.3951-.36.7913-.72l.1185-.1052Q833.92,799.7112,834.2659,799.3789Z" transform="translate(-120.2371 -296.7993)"/><path class="h" d="M234.7841,737.8027c.7663,7.1483,1.1728,14.3566,2.3515,21.4362,29.2248,175.5217,166.9829,316.2862,343.0966,354.4175,38.86,8.4137,78.1552,11.7392,117.8119,8.8434,14.4179-1.0526,28.7247-3.7682,43.043-5.979,5.81-.8971,6.1056-1.0018,7.9525,4.7839.2123.6649.36,1.3558.6293,1.9961,1.4863,3.5375.6623,5.3765-3.4776,5.8428-14.8381,1.6715-29.6038,4.3552-44.4813,5.2489-113.7663,6.834-216.6557-24.2268-306.7319-93.5091-98.64-75.8688-156.7894-176.271-172.6567-300.3853a20.4916,20.4916,0,0,0-.7376-2.7539c1.9568-2.5591,3.9143-5.119,6.1069-7.9862Z" transform="translate(-120.2371 -296.7993)"/><path class="i" d="M470.4019,788.9882c-5.525,5.2019-10.8152,10.6856-16.6329,15.5359-7.7132,6.4308-17.2588,7.6448-26.8941,8.1843q-8.2955-2.73-16.5922-5.461l-.0366.1831c-.9524-5.602-2.2006-11.1729-2.7977-16.8128-1.3667-12.9093-2.0556-25.8978-3.6786-38.7709-2.3562-18.6894-5.25-37.3118-7.9981-55.95-1.8521-12.56-3.849-25.0984-5.7812-37.6465-.428-3.2886-.6774-6.613-1.3276-9.857-.8778-4.38.3437-7.6318,4.3427-9.7328q7.698-2.0066,15.4072-4.0194c4.1219,1.1916,8.3863,2.0355,12.3335,3.654,6.3529,2.6048,10.218,7.6571,11.7739,14.3034,4.6094,19.69,9.0937,39.4086,13.6763,59.1046,1.097,4.7145,2.3856,9.3845,3.911,15.3445,5.07-7.0093,9.88-12.8778,13.8132-19.2852,5.533-9.0138,10.2038-18.5549,15.66-27.62a142.3293,142.3293,0,0,1,10.3447-14.1311c5.1008-6.5,11.8514-7.75,19.0918-4.5816a48.4348,48.4348,0,0,1,13.0334,7.9574,235.7585,235.7585,0,0,1,32.3238,36.6914c.8022,1.1035,1.7275,2.1174,3.4075,4.16-.4327-4.1858-.6717-7.2369-1.0742-10.2664-2.0042-15.0819-4.0864-30.1535-6.0629-45.239-.63-4.8072-1.0556-9.6424-1.5048-14.4713-.2874-3.0889,1.311-5.1155,4.0859-6.0827,13.8992-4.8448,26.8684-3.0436,38.8486,5.6017,4.3041,3.1059,5.3217,7.76,5.6475,12.5391,2.0594,30.204,3.9954,60.4164,5.984,90.6252a39.6382,39.6382,0,0,0,.6,6.24c2.5676,11.1911,1.1461,22.1769-1.49,33.1144a20.2722,20.2722,0,0,1-10.6524,14.0556c-6.8932,3.7668-13.5789,6.8722-21.5913,6.6325-11.6845-.35-19.4324-7.1163-23.3014-16.944-8.0311-20.4-20.4071-38.0378-32.6718-55.836-2.4994-3.6272-5.1282-7.1652-8.2986-11.5819-1.7786,6.8281-3.3319,12.7913-4.8843,18.756-1.8676,2.7037-3.91,5.3031-5.5755,8.1255C487.3071,759.9691,478.8716,774.4887,470.4019,788.9882Zm-11.5714-.7453-.0693.09c7.5476-7.1775,13.0511-15.7771,17.4668-25.1332,10.5407-16.7516,20.1919-33.9089,24.4-53.5512.8129-3.1308,1.6876-6.2032,5.8331-6.1909.835,1.0816,1.722,2.1273,2.4967,3.25q8.4742,12.2858,16.91,24.5975L537.33,748.16c6.2857,12.2229,12.363,24.5594,18.9315,36.6283,4.2649,7.8364,10.8082,11.2686,20.1617,9.45,9.2005-1.789,17.5831-8.4512,19.3767-17.3023.82-4.0456.706-8.2806,1.0158-12.43-.555-8.307-1.1784-16.61-1.6436-24.9221-.3738-6.6774-.5558-13.3656-.8229-20.049q-1.6263-21.8248-3.2517-43.6507.0205-6.2631.0408-12.5263a82.1322,82.1322,0,0,1-1.6236-8.9412c-.4026-5.3762-2.5888-9.7507-7.7862-11.2033a138.8516,138.8516,0,0,0-18.682-3.3774c-3.3089-.45-4.898,1.6943-4.6161,4.9012.4969,5.6517,1.1772,11.2874,1.7807,16.93q.8074,6.082,1.615,12.1641,1.9728,16.9265,3.9458,33.853.7138,9.1191,1.4279,18.2384l.2546-.0425-.403,5.8912c-1.8975-.7007-4.3341-.8886-5.5842-2.2048-2.9362-3.0912-5.305-6.7217-7.9036-10.1333l-11.8972-16.0462c-9.3345-10.2534-18.5184-20.65-28.0813-30.6858-3.5564-3.732-8.318-5.473-13.7011-3.9034-1.7861,1.2354-4.1946,2.0827-5.249,3.7746-4.23,6.7871-8.0394,13.836-12.0044,20.7881-.7478.99-1.5686,1.9341-2.2317,2.9783q-8.23,12.9588-16.41,25.9492-2.7379,4.3347-5.47,8.6727l-9.3781,11.8479q-2.8024,1.8759-4.7668-.8642l-3.8592-15.0612q-3.4443-15.4447-6.8892-30.8894l-5.6619-25.8483c-1.1555-4.8582-2.426-9.6924-3.4428-14.5795-2.1819-10.4874-14.7744-14.3149-22.9556-11.717-3.0809.9783-4.3826,2.8153-3.9192,5.8943,1.6534,10.9868,3.3619,21.9655,5.0494,32.9472q1.2129,10.0184,2.4257,20.0369,2.8166,18.4242,5.633,36.8484,1.1228,9.549,2.2457,19.098c.9828,9.2555,1.5425,18.5834,3.1094,27.7389.9184,5.3661,3.3619,10.4877,5.325,15.6408a3.5362,3.5362,0,0,0,2.6106,1.7511,75.3122,75.3122,0,0,0,7.7952-.2342c10.9815-.5187,18.8138-6.8244,26.0556-14.2107Q458.363,788.8011,458.8305,788.2429Z" transform="translate(-120.2371 -296.7993)"/><path class="g" d="M686.04,887.0235c1.23-12.7513,6.03-23.1758,14.7264-31.7524,16.5306-16.3035,42.533-20.6511,61.7105-9.6315,4.6361,2.6639,8.1413,7.3909,11.8922,11.4246.7391.7948.6495,2.9134.2132,4.1677a163.9941,163.9941,0,0,0-8.9121,63.82c.5495,9.5551,2.25,19.0618,3.764,28.5366.9676,6.0537.8371,7.27-4.922,9.0141-13.7205,4.1555-27.5538,7.937-41.3093,11.9795-2.4339.7152-3.5015-.0392-4.3641-2.2754q-15.9606-41.3783-32.0266-82.7157A26.5944,26.5944,0,0,1,686.04,887.0235Z" transform="translate(-120.2371 -296.7993)"/><path class="j" d="M234.7841,737.8027l-7.0934-8.0447c-2.1926,2.8672-4.15,5.4271-6.1069,7.9862-14.4821,19.6132-29.0775,39.1456-43.3765,58.8929-4.0746,5.6273-7.4458,11.37-13.9789,15.0333-6.9463,3.8953-22.3953,2.8628-28.4155-4.9874-2.1669-2.8256-2.6267-8.646-1.3151-12.1419a263.021,263.021,0,0,1,13.9311-30.6506c8.6488-16.32,17.9145-32.3141,26.9864-48.4082,1.9774-3.5081,3.8646-7.1676,6.4239-10.23,12.4975-14.9534,25.21-29.7274,37.8412-44.5688.6307-.741,1.2182-1.5189,1.8261-2.2809,1.2264-1.0987,2.5517-2.1046,3.66-3.31,3.313-3.6057,6.5408-7.29,9.802-10.9431,1.9333-.2744,3.86-.612,5.8011-.811,4.7684-.4888,8.9028,1.1028,10.8057,5.4945,4.3043,9.9338,8.0947,20.09,12.096,30.1556,2.19,5.508,4.3835,11.0144,6.7757,17.0249,14.821-12.8188,29.033-25.1109,43.2438-37.4,7.0293-4.7794,14.1983-9.3722,21.052-14.3955a69.0767,69.0767,0,0,1,23.3336-10.8693,12.3312,12.3312,0,0,1,12.6841,3.3749,22.15,22.15,0,0,1,6.7529,13.6c1.5711,16.0027,2.6836,31.9927-1.8587,47.7951a46.4239,46.4239,0,0,0-1.2508,9.5271q-3.1109,44.2658-6.0978,88.54c-.2121,3.1464.3442,6.3907-.211,9.4525a12.5188,12.5188,0,0,1-3.2165,6.4565c-8.1581,7.8868-17.6564,13.0784-29.3787,13.1212-2.0622-.3376-4.123-.6825-6.1865-1.0113-7.7009-1.2269-11.1008-7.4151-8.69-14.796,1.8028-5.5181,2.8349-11.2882,4.21-16.945a15.1962,15.1962,0,0,0,.6082-2.3893c1.41-15.3973,2.9651-30.7843,4.1148-46.2015.78-10.4581,1.551-20.9835-1.1976-31.87-5.382,4.05-10.4692,7.8778-15.5565,11.7056-11.9926,9.933-24.3561,19.4584-35.8562,29.9326-8.6164,7.8478-21.726,8.2179-29.1788-.5218Q241.2535,745.4794,234.7841,737.8027Zm100.21,41.0187c-1.1747,10.7323-.8459,21.7126-5.81,31.7959-1.132,2.2995-.2909,4.65,2.8353,4.6265,4.5154-.0345,9.3085.4682,13.4728-.86,5.48-1.7477,11.3261-4.4839,12.4458-11.1313,1.335-7.9254,1.8743-15.9849,2.7583-23.9863q1.2738-10.4082,2.5477-20.8165c.3387-5.6591.6459-11.32,1.0221-16.9767q1.5714-23.6252,3.1886-47.2473,1.1592-13.7229,2.3182-27.4457c-.2632-4.857-.2462-9.749-.8471-14.5639-1.3314-10.669-9.1478-14.5172-18.2773-8.6769-10.8866,6.9646-21.408,14.5009-32.0875,21.7895L301.3769,679.15,284.369,693.2028c-2.9017,2.7163-5.7544,5.4876-8.7211,8.1307-2.2213,1.9789-4.5893,3.7928-6.8921,5.68-.97-.9582-2.3529-1.741-2.8462-2.902-4.29-10.0968-8.4432-20.2521-12.5894-30.41-2.4123-5.91-4.2422-12.12-7.2363-17.7122-3.1747-5.9289-4.49-5.769-9.2035-1.0621-1.2822,1.2806-2.5937,2.5335-3.8373,3.8507Q222.5895,669.85,212.1658,680.95L198.121,698.2994c-6.7769,7.5331-12.8433,15.5447-16.8044,24.9743q-8.1957,14.4723-16.3916,28.9445c-.96,1.5278-2.06,2.986-2.8578,4.5943-6.1236,12.3426-12.2507,24.6845-18.2319,37.0965a6.7483,6.7483,0,0,0,2.4494,8.8852c3.1233,2.1649,7.0924,3.79,10.5069.9739,5.9981-4.9468,12.1773-9.8883,17.1922-15.7622,7.13-8.3512,13.2759-17.5433,19.844-26.3778q5.9774-8.5048,11.9548-17.01c5.854-7.7584,11.6552-15.5577,17.6123-23.2361,1.0307-1.3285,2.7212-2.1446,4.107-3.1974q2.8461,1.9275,5.6922,3.8553,4.4546,5.54,8.9108,11.076,3.5037,4.1184,7.0073,8.2368c1.1757,1.5438,2.2563,3.1722,3.5434,4.6166,5.8475,6.5619,10.1061,7.1367,17.4363,2.3865a41.3,41.3,0,0,0,4.002-3.0022c4.5858-3.8353,9.0584-7.81,13.716-11.5547,12.0164-9.6617,24.1087-19.2287,36.1692-28.8346l7.7057-7.107q1.6971-.051,3.396-.1034l1.9933,9.97c.3554,7.2323,1.0906,14.4706.9768,21.6954-.1688,10.7229-.9388,21.4363-1.4538,32.1549Z" transform="translate(-120.2371 -296.7993)"/><path class="i" d="M726.1763,678.48q-9.8343-3.4038-19.6684-6.8077-1.0848-.4767-2.17-.9528l.1482.0056c-8.3144-4.8627-11.7239-12.4627-9.7526-21.7406,1.2418-5.8446,5.4251-9.5476,11.2934-8.8941,22.5716,2.5132,45.0949,1.0262,67.6472-.1565a247.5185,247.5185,0,0,1,25.4882-.1052c7.78.3957,13.7888,4.4456,18.3712,10.8392,6.9423,9.6863-1.365,24.5663-11.6921,27.4926-5.2992,1.5018-10.9264,1.8513-16.41,2.6912-.9473.1451-1.9179.1388-3.059.2144.6381,4.8216,1.252,9.46,1.8657,14.098,1.4569,10.0554,3.3618,20.07,4.2808,30.174,2.1848,24.0215,4.9879,48.0594,1.4706,72.2173-1.0091,6.9314-4.7654,10.2616-12.5764,10.74-14.8363.9084-25.712-9.1795-25.8489-24.1837-.14-15.3523.4324-30.7306-.2717-46.0532-.7866-17.122-2.6577-34.1941-4.0568-51.2878-.3535-.5254-.6092-1.3911-1.0754-1.5254-7.1568-2.063-14.3412-4.0308-21.5191-6.0206l.042.017Zm51.468-30.8-27.1059,1.4857q-23.8392,0-47.6784.0056c-.7088,10.3975.9514,12.8156,10.7105,15.6536,1.3313.3872,2.6374.86,3.9592,1.2809q18.0478,5.7435,36.0975,11.4822c2.5485.68,4.3848,2.0112,4.4946,4.9209q2.61,26.6726,5.22,53.3444l.5476,18.0177c-.0171,10.4424-.2046,20.8884.0133,31.326.1287,6.1614,2.7844,11.5379,8.9764,13.2283,9.4986,2.5932,13.3468.6694,13.5951-7.4779.2105-6.9064.1579-13.8267.0134-20.7365-.1479-7.08-.5493-14.1537-.84-21.23q-.4509-8.4372-.9019-16.8745c-1.1116-5.9628-2.4894-11.8906-3.2754-17.8961-1.343-10.2611-2.3149-20.5708-3.4424-30.86-.2518-2.863-1.714-6.6464-.4276-8.34,1.3874-1.8262,5.3472-1.6963,8.1847-2.42,4.2875-.3282,8.6429-.2914,12.8463-1.0725,5.9324-1.1024,10.72-4.3637,12.6444-10.2936,1.4856-4.5779-1.222-8.2249-4.7075-10.7492a15.0329,15.0329,0,0,0-7.6378-2.8747C791.8514,647.2742,784.7418,647.6083,777.6443,647.68Z" transform="translate(-120.2371 -296.7993)"/><path class="k" d="M678.1436,662.691a114.146,114.146,0,0,1,6.3074,45.99c-1.3961,21.8543-2.0215,43.7491-1.24,65.6639a101.1981,101.1981,0,0,1-.7335,12.9621c-.9687,10.3548-7.2952,16.6342-17.4625,18.8326-5.45,1.1785-10.7353,2.8625-15.6289-.6978a18.4387,18.4387,0,0,1-6.0317-6.9518c-7.9807-18.2369-8.1451-37.63-8.3916-57.1113-.2646-20.9176-1.46-41.8237-2.2732-62.7338-.47-12.0963-2.3-24.2426,1.43-36.171,3.34-6.162,7.6136-7.9122,14.4722-6.3279a35.4116,35.4116,0,0,1,23.2684,16.7806c1.7936,2.9583,3.7647,5.8089,5.6547,8.7088l.6345,1.0356ZM644.0481,763.1927c-1.1775,11.2109,1.6826,21.5077,6.8429,31.3635,1.5529,2.966,3.8531,4.5037,6.9364,4.4022,7.646-.2516,15.0119-3.1769,16.1916-12.5256.9711-7.6955.6226-15.5577.8589-23.3461l-.8913-13.115a49.6249,49.6249,0,0,1-.2972-5.7389c.9088-15.1735,1.8963-30.3422,2.86-45.5184L674.346,682.58c-.259-12.9285-6.5614-23.1686-15.1612-31.9825-2.8239-2.8944-7.2929-4.459-11.2807-5.8586-3.6824-1.2926-6.8681,1.2742-7.373,5.1034a103.7575,103.7575,0,0,0,1.01,31.9758q.84,8.7275,1.6792,17.455.4083,27.2366.8156,54.475Z" transform="translate(-120.2371 -296.7993)"/><path class="l" d="M312.8027,723.7072c5.0873-3.8278,10.1745-7.6558,15.5565-11.7056,2.7486,10.887,1.9775,21.4124,1.1976,31.87-1.15,15.4172-2.7052,30.8042-4.1148,46.2015a15.1962,15.1962,0,0,1-.6082,2.3893A371.03,371.03,0,0,1,312.8027,723.7072Z" transform="translate(-120.2371 -296.7993)"/><path class="m" d="M234.9683,644.1492c-3.2612,3.6534-6.489,7.3374-9.802,10.9431-1.1081,1.2058-2.4334,2.2117-3.66,3.31,1.7188-13.2726,3.3194-26.5637,5.2369-39.8088.5066-3.5,3.2261-5.1223,6.8144-4.6882,3.3308.4031,5.3755,3.1937,4.8624,7.0607C237.3927,628.71,236.1325,636.4234,234.9683,644.1492Z" transform="translate(-120.2371 -296.7993)"/><path class="n" d="M831.65,802.43q-5.2822,8.066-10.5684,16.1292c-.8349,1.27-2.1077,2.3939-2.5128,3.78-1.488,5.09-5.0126,6.0653-9.6133,5.2524A87.0052,87.0052,0,0,1,831.65,802.43Z" transform="translate(-120.2371 -296.7993)"/><path class="n" d="M832.6268,800.92q-.4819.7716-.9644,1.5432Q832.1445,801.6911,832.6268,800.92Z" transform="translate(-120.2371 -296.7993)"/><path class="d" d="M678.15,662.6714l-.6345-1.0356Z" transform="translate(-120.2371 -296.7993)"/><path class="n" d="M833.4576,800.1491q-.3955.36-.7911.72Q833.0625,800.5091,833.4576,800.1491Z" transform="translate(-120.2371 -296.7993)"/><path class="n" d="M834.2659,799.3789q-.3453.3324-.69.665Q833.9222,799.7117,834.2659,799.3789Z" transform="translate(-120.2371 -296.7993)"/><path class="m" d="M435.6121,1166.6013l24.3543,10.9908c2.8632-5.674,5.679-11.2454,8.4854-16.8216.69-1.3715,1.25-2.82,2.0442-4.1263,2.0342-3.3448,5.3773-4.5778,8.5711-3.28,3.1517,1.28,4.82,4.5937,3.917,8.33a32.5057,32.5057,0,0,1-2.0966,5.4582q-11.8341,26.5986-23.7345,53.1677a28.231,28.231,0,0,1-3.08,5.45c-2.6374,3.4979-6.7337,4.4572-9.99,2.5956-3.1219-1.7851-4.512-5.5641-3.0441-9.5141,1.3088-3.5222,3.0914-6.8676,4.6531-10.2963,2.1992-4.8287,4.2923-9.7088,6.6238-14.4725,1.0343-2.1133.7041-3.2579-1.43-4.2512-6.2-2.8856-12.3505-5.8789-18.4974-8.8772-2.3472-1.1449-3.7159-.6275-4.9261,1.8257-3.4566,7.0068-7.17,13.8871-10.7925,20.8119-1.5793,3.0194-3.426,5.569-7.4865,4.1972a7.3292,7.3292,0,0,1-4.9-9.0208,87.07,87.07,0,0,1,5.601-14.8326c6.7761-13.6289,13.9116-27.0788,20.8691-40.6179.9554-1.8593,1.6778-3.8374,2.5492-5.7416,1.8959-4.1428,5.4731-5.9116,9.0964-4.529,3.5029,1.3366,5.3952,5.3245,3.7953,9.4468-2.6246,6.7621-5.6963,13.3511-8.6,20.0041C437.0423,1163.7638,436.3951,1164.9878,435.6121,1166.6013Z" transform="translate(-120.2371 -296.7993)"/><path class="m" d="M573.119,1252.2342c-1.2586.9156-2.5576,1.9455-3.9379,2.8515-11.1127,7.2944-25.5393,2.8408-29.95-9.7031a49.6892,49.6892,0,0,1-2.6473-15.5622c-.1161-8.4885.7251-16.9909,1.1956-25.4855a14.07,14.07,0,0,1,.4991-2.4567c1.203-5.0014,4.0258-7.4345,7.9425-6.8605,3.9208.5747,5.813,3.777,5.6315,8.8789q-.5054,14.2062-.6912,28.4229a18.8139,18.8139,0,0,0,.9372,5.7622c1.719,5.4933,6.221,6.8029,10.15,2.6476a26.4979,26.4979,0,0,0,5.846-9.0337c2.4746-7.0805,4.1966-14.4253,6.1952-21.6706a41.5418,41.5418,0,0,1,1.1742-4.8583,6.96,6.96,0,0,1,6.8062-4.6465c3.4971-.0171,6.0442,1.6887,6.9686,4.9366a22.203,22.203,0,0,1,.5274,7.3988c-.5386,8.2093-1.6487,16.3979-1.8035,24.6082-.0752,3.994,1.2538,8.0846,2.3722,12.01.98,3.4395.7683,6.4088-1.9826,8.772a6.9449,6.9449,0,0,1-9.2558.3758C576.84,1256.9188,575.1535,1254.46,573.119,1252.2342Z" transform="translate(-120.2371 -296.7993)"/><path class="o" d="M668.5213,1239.682c2.3907.9819,4.8293,2.8861,7.1626,2.7646a83.652,83.652,0,0,0,17.58-2.5326c5.4921-1.4979,9.4758-1.2342,11.4314,2.4234,2.1181,3.9616.3265,8.9591-4.695,11.47a42.0872,42.0872,0,0,1-33.7275,2.2208c-9.6759-3.426-14.2724-11.8288-15.9123-21.5333-1.9981-11.8238-1.6833-23.2989,8.819-31.7313,5.04-4.0469,10.71-6.7642,17.3548-5.8836,14.1,1.8691,20.9192,18.98,11.6481,30.2332-3.1944,3.8772-8.353,6.209-12.8016,8.9415-1.8448,1.133-4.1807,1.4656-6.2933,2.1622Q668.8042,1238.949,668.5213,1239.682Zm-3.3492-14.342c4.1056-2.1917,7.79-3.5687,10.6328-5.9517,1.2253-1.0275.7064-4.1372.98-6.301-1.8693-.0176-4.0288-.6528-5.5527.0644C666.8517,1215.213,664.87,1218.9844,665.1721,1225.34Z" transform="translate(-120.2371 -296.7993)"/><path class="h" d="M527.6013,1213.0505c-1.5159,11.1355-4.8571,21.0877-14.3,27.9465-13.368,9.71-30.3476,4.96-36.7361-10.2828-5.5679-13.2849-1.2031-30.7783,9.9754-39.9789,15.5046-12.7614,36.3389-5.2017,40.0724,14.5719C527.1032,1207.9012,527.29,1210.5523,527.6013,1213.0505Zm-15.7568.4863a40.6181,40.6181,0,0,0-.64-5.7712c-2.1163-8.3451-9.3136-10.4988-15.3679-4.4376-5.775,5.7817-7.6722,12.8623-5.1217,20.7271,2.2112,6.8185,8.9336,8.5391,14.2332,3.7229C509.0923,1224.0115,511.8577,1219.45,511.8445,1213.5368Z" transform="translate(-120.2371 -296.7993)"/><path class="m" d="M629.4483,1242.5794c-3.2672-1.6067-6.4614-3.3919-9.8228-4.7683-3.21-1.3144-6.7755-1.8328-9.87-3.3453-10.9627-5.3584-13.2855-17.827-5.2194-26.9481,6.6571-7.5279,15.4932-10.0589,23.6753-6.7511,3.1655,1.28,5.5611,3.3226,5.8461,6.9617.3938,5.0287-4.0594,8.2514-9.4325,6.5265-3.7188-1.1938-6.5128-.48-8.9364,2.4383-1.6842,2.0283-1.327,3.6221,1.0584,4.5654a37.09,37.09,0,0,0,5.2255,1.4563c6.9244,1.6155,13.1848,4.4832,18.3181,9.5382,6.6686,6.5666,6.8166,15.6227.3541,22.3885-9.7034,10.159-28.2619,11.1475-39.1106,2.0831-3.5679-2.9812-4.5427-7.0013-2.5209-10.3967,2.0794-3.492,6.1961-4.3031,10.7339-2.5873,3.7318,1.4109,7.5922,2.88,11.5022,3.28,2.5728.2633,5.3351-1.3252,8.0125-2.0845Q629.3552,1243.7578,629.4483,1242.5794Z" transform="translate(-120.2371 -296.7993)"/><path class="h" d="M164.4292,978.4665c1.57-15.3182,11.5955-27.4751,27.6464-34.9416a41.8705,41.8705,0,0,1,29.78-2.6608c17.7292,5.0311,27.04,21.826,22.0168,39.5785-6.561,23.1862-33.43,38.2364-56.595,31.701C173.2083,1008.1744,163.8845,995.6444,164.4292,978.4665Zm33.2987,19.6571c12.1182.4974,25.3864-7.8148,30.1975-18.918,5.1918-11.9821-1.2829-22.94-14.2725-24.1545-12.0451-1.1265-25.3045,6.0414-31.02,16.7692C175.44,985.32,182.4274,997.4954,197.7279,998.1236Z" transform="translate(-120.2371 -296.7993)"/><path class="h" d="M215.3072,1050.4545c-5.5,4.7633-10.7417,9.3205-16.0059,13.8519a48.0431,48.0431,0,0,1-4.5531,3.6741,7.7388,7.7388,0,0,1-9.9558-.881,7.4939,7.4939,0,0,1,.0252-10.2807c3.0734-3.212,6.57-6.0279,9.9573-8.9284q20.4989-17.5527,41.0371-35.0591c2.7624-2.3655,5.6007-4.4315,9.389-2.49,3.5283,1.8088,4.1108,4.9968,3.3966,8.8243,2.1211.695,4.2207,1.3134,6.2708,2.0663,11.6241,4.27,16.6722,14.9681,12.4856,26.6442-4.2816,11.9411-13.2142,18.8176-25.1138,21.834-9.3787,2.3774-19.0139-3.0832-23.9277-12.8372C217.3142,1054.8919,216.4268,1052.8545,215.3072,1050.4545Zm26.2865-17.2083c-9.3205.7717-16.4412,3.573-10.3942,14.4345.675,1.2126,1.2274,2.4969,1.9487,3.68,1.7966,2.9461,4.63,3.9584,7.5485,2.5089,3.4247-1.7009,7.0864-3.6178,9.5611-6.4047,6.3793-7.1844,4.4291-12.1083-4.9531-13.7914C243.9405,1033.4282,242.546,1033.3525,241.5937,1033.2462Z" transform="translate(-120.2371 -296.7993)"/><path class="h" d="M344.1189,1098.3773c1.3932,0,2.6256,0,3.8581,0,17.8437-.0049,27.4955,11.9617,23.1357,29.2633-3.5124,13.9391-10.7516,26.0027-20.352,36.6192-3.546,3.9213-8.2956,4.352-11.518,1.4729-3.4641-3.095-3.0653-7.3179.1361-11.9973q7.531-11.0082,14.1894-22.6018a27.4484,27.4484,0,0,0,2.7832-9.5746c.7478-5.1334-1.6456-7.7269-6.8317-7.6251a21.7982,21.7982,0,0,0-7.3693,1.3031c-10.082,3.9331-18.7485,9.7972-24.861,19.0147-3.1721,4.7831-7.5681,6.1143-11.32,3.6875-3.8083-2.4628-4.8062-7.7406-1.4756-12.2538,5.7949-7.8524,12.091-15.3347,18.1752-22.9735,3.2993-4.1422,6.4315-8.4333,9.9512-12.3783a6.5876,6.5876,0,0,1,8.4609-1.2967c2.893,1.5588,3.8526,4.26,3.2185,7.5018C344.1961,1097.0663,344.1907,1097.6133,344.1189,1098.3773Z" transform="translate(-120.2371 -296.7993)"/><path class="h" d="M273.3484,1082.9571c-2.805,7.4713-.5343,13.9684,5.978,17.11,3.4883,1.6825,7.3054,2.68,10.9685,4.0029,3.9258,1.4176,6.1576,4.67,5.689,8.2565a7.3975,7.3975,0,0,1-8.0361,6.44c-19.3144-1.8372-35.7859-16.3042-30.4195-37.62a26.01,26.01,0,0,1,6.2984-11.0984c9.2069-9.5975,20.1284-16.1235,34.1123-14.2248a19.3755,19.3755,0,0,1,16.7823,18.5868,16.0032,16.0032,0,0,1-14.9,16.6365,36.7862,36.7862,0,0,1-23.0877-5.9014C275.7046,1084.4961,274.69,1083.8247,273.3484,1082.9571Zm12.3-10.6909-.0544,2.2323a96.82,96.82,0,0,0,9.9726,2.0874c1.2616.1422,2.6783-1.0923,4.0242-1.6991-1.0945-1.2647-2.15-3.56-3.2906-3.6025C292.767,1071.1514,289.2015,1071.875,285.6485,1072.2662Z" transform="translate(-120.2371 -296.7993)"/><path class="p" d="M991.758,556.6987c-1.4132,4.1221-1.9669,8.8751-4.4269,12.2285-4.4557,6.0736-14.2091,4.655-18.7279-2.76a86.3415,86.3415,0,0,1-9.1439-19.2013,303.91,303.91,0,0,0-31.1707-68.4246c-2.3073-3.8093-5.1772-7.2731-7.6092-11.0125-2.5364-3.9-2.2453-6.9048.6324-9.8462,2.8174-2.88,6.125-3.2911,9.9166-1.1655a13.7811,13.7811,0,0,1,2.743,1.9024c12.3926,11.6969,24.5437,23.6442,34.4188,37.62,12.1977,17.2629,20.7811,35.9987,22.2966,57.4454.069.9753.1578,1.9491.2373,2.9236Z" transform="translate(-120.2371 -296.7993)"/><path class="q" d="M389.9905,658.25c1.9322,12.5481,3.9291,25.0866,5.7812,37.6465,2.7484,18.6386,5.6419,37.261,7.9981,55.95,1.623,12.8731,2.3119,25.8616,3.6786,38.7709.5971,5.64,1.8453,11.2108,2.7977,16.8128-.8747-1.1179-2.0951-2.1054-2.5721-3.3728a313.0527,313.0527,0,0,1-15.8067-60.5348,298.6041,298.6041,0,0,1-4.0063-57.0257C388.1548,677.0684,389.2551,667.6648,389.9905,658.25Z" transform="translate(-120.2371 -296.7993)"/><path class="p" d="M904.6319,440.35c-.0188,8.6183-8.39,14.7039-16.2928,10.9772-4.7372-2.2339-8.9366-6.11-12.5913-9.99-3.1795-3.3753-3.2983-7.9754-.7215-12.089,2.7625-4.41,6.8776-7.1627,12.1113-7.0643C895.281,422.3374,904.6494,432.3434,904.6319,440.35Z" transform="translate(-120.2371 -296.7993)"/><path class="r" d="M470.4019,788.9882c8.47-14.5,16.9052-29.0191,25.4381-43.4811,1.6651-2.8224,3.7079-5.4218,5.5755-8.1255,1.8988,5.07,3.9477,10.0919,5.6652,15.2247,3.0457,9.1017,6.2385,18.1768,8.7342,27.4345,3.429,12.72,9.81,24.0157,16.5624,35.0358,7.4853,12.2164,15.8076,23.9283,23.9851,35.7073,3.4721,5.0014,7.9191,9.3509,11.1635,14.4779,3.2559,5.1452,2.1414,11.3208-2.2027,14.6535-4.4249,3.3947-10.0157,4.8243-15.4614.9126-8.141-5.8476-16.4431-11.5222-24.1686-17.8874-21.1453-17.4222-37.5721-38.7586-50.5115-62.8221C473.2769,796.5761,471.98,792.7064,470.4019,788.9882Z" transform="translate(-120.2371 -296.7993)"/><path class="r" d="M594.2272,884.1705c11.0144.8583,26.4831,10.4817,28.5392,24.8455,1.11,7.7566-6.326,18.8235-16.8143,16.22-9.7544-2.4217-17.5164-7.6347-22.7384-16.378-4.0312-6.75-1.8967-18.031,4.5087-22.308C589.5884,885.3036,592.0426,884.939,594.2272,884.1705Z" transform="translate(-120.2371 -296.7993)"/><path class="q" d="M728.6416,679.2247c7.1779,1.99,14.3623,3.9576,21.5191,6.0206.4662.1343.7219,1,1.0754,1.5254Z" transform="translate(-120.2371 -296.7993)"/><path class="q" d="M726.1763,678.48l2.5073.7615Z" transform="translate(-120.2371 -296.7993)"/><path class="a" d="M704.3382,670.72q1.085.4763,2.17.9528Q705.4231,671.1963,704.3382,670.72Z" transform="translate(-120.2371 -296.7993)"/><path class="s" d="M553.5641,719.432c2.5984,3.4123,4.9672,7.0428,7.9034,10.134,1.25,1.3162,3.6867,1.5041,5.5853,2.2073a55.7317,55.7317,0,0,1,3.7728,4.94,59.0135,59.0135,0,0,0,15.1263,17.0223c4.0407,3.03,7.2707,7.1426,10.8639,10.77-.31,4.1491-.1957,8.3841-1.0156,12.43-1.7936,8.8511-10.1762,15.5133-19.3767,17.3023-9.3535,1.8187-15.8968-1.6135-20.1617-9.45-6.5685-12.0689-12.6458-24.4054-18.9292-36.6289,7.1239-7.2138,14.1738-14.4412,14.4776-25.565C551.8394,721.5249,552.9535,720.4853,553.5641,719.432Z" transform="translate(-120.2371 -296.7993)"/><path class="t" d="M444.3755,741.941q1.9622,2.7454,4.7657.8684c2.2849,5.4648,4.836,10.8349,6.7868,16.415,2.4986,7.1469,5.3849,14.3047,3.8042,22.2047-.4552,2.275-.6544,4.601-.9709,6.9037l.0692-.09-.9351,1.1164c-7.2418,7.3862-15.0741,13.6919-26.0556,14.2106a75.3122,75.3122,0,0,1-7.7952.2342,3.5362,3.5362,0,0,1-2.6106-1.7511c-1.9631-5.1531-4.4066-10.2747-5.325-15.6408-1.5669-9.1555-2.1266-18.4834-3.11-27.74C423.3722,752.935,434.9612,749.4791,444.3755,741.941Z" transform="translate(-120.2371 -296.7993)"/><path class="s" d="M500.6265,709.65c-4.2066,19.64-13.8578,36.7976-24.3983,53.55-3.9049-.9134-5.8738-3.45-7.12-7.2437-1.8348-5.5828-4.23-10.9869-6.5111-16.415-1.2256-2.9167-2.71-5.7243-4.0779-8.5811q2.7349-4.3365,5.47-8.6728,8.1983-12.9789,16.41-25.9492c.6631-1.0442,1.4839-1.988,2.2328-2.9767,3.5547,3.2608,7.0954,6.5343,10.6665,9.7741C495.719,705.3318,498.1823,707.4805,500.6265,709.65Z" transform="translate(-120.2371 -296.7993)"/><path class="t" d="M499.8843,668.7972c5.3831-1.5695,10.1447.1715,13.7011,3.9035,9.5629,10.0354,18.7468,20.4324,28.0821,30.6866-2.6677,7.507-5.173,15.0773-8.08,22.49a8.3114,8.3114,0,0,1-7.7193,5.4283q-8.451-12.3015-16.91-24.5975c-.7747-1.1232-1.6617-2.1689-2.4972-3.25-.2147-1.3692-.4356-2.7377-.6422-4.1082C504.2705,689.0818,496.8041,679.9645,499.8843,668.7972Z" transform="translate(-120.2371 -296.7993)"/><path class="t" d="M433.6259,695.993q3.4443,15.4449,6.887,30.89a61.1658,61.1658,0,0,1-7.4567,1.7479c-6.1954.6881-11.7918,2.4053-16.3306,7.0394-1.6255,1.66-3.96,2.6236-5.9717,3.9051q-2.8166-18.4242-5.633-36.8484a34.4228,34.4228,0,0,1,16.1968-10.3025C426.4614,690.8282,430.5265,691.32,433.6259,695.993Z" transform="translate(-120.2371 -296.7993)"/><path class="t" d="M565.7722,707.6837q-1.9729-16.9265-3.946-33.8535c4.7055-.6271,9.4719-2.0327,14.1008-1.6719,5.1222.3993,10.1188,2.4149,15.17,3.7266q1.6263,21.8248,3.253,43.6508c-1.7279-.3522-3.9891-.1287-5.0976-1.1533C582.56,712.1961,573.9719,710.409,565.7722,707.6837Z" transform="translate(-120.2371 -296.7993)"/><path class="u" d="M565.7722,707.6837c8.2,2.7253,16.7878,4.5124,23.48,10.6987,1.1085,1.0246,3.37.8011,5.0976,1.1533.2666,6.6822.4486,13.37.8224,20.0478.4652,8.312,1.0886,16.6151,1.6435,24.9223-3.5933-3.6273-6.8233-7.74-10.864-10.77a59.0135,59.0135,0,0,1-15.1263-17.0223,55.7317,55.7317,0,0,0-3.7728-4.94q.2-2.9493.4019-5.8937l-.2546.0425Q566.4861,716.8028,565.7722,707.6837Z" transform="translate(-120.2371 -296.7993)"/><path class="s" d="M402.6953,682.69c-1.6876-10.9817-3.3961-21.96-5.0495-32.9472-.4634-3.079.8383-4.916,3.9192-5.8943,8.1812-2.5979,20.7737,1.23,22.9556,11.717,1.0168,4.8871,2.2873,9.7213,3.4416,14.5808-2.8264,2.7106-5.2143,6.3994-8.578,7.9027C414.1708,680.379,408.292,681.2185,402.6953,682.69Z" transform="translate(-120.2371 -296.7993)"/><path class="s" d="M560.2114,661.6666c-.6035-5.6424-1.2838-11.2781-1.7807-16.93-.2819-3.2069,1.3072-5.351,4.6161-4.9012a138.8516,138.8516,0,0,1,18.682,3.3774c5.1974,1.4526,7.3836,5.8271,7.7862,11.2033a82.0911,82.0911,0,0,0,1.6238,8.9413c-4.532-.0489-9.0892-.4192-13.59-.0671C571.6306,663.7536,565.7224,665.1705,560.2114,661.6666Z" transform="translate(-120.2371 -296.7993)"/><path class="u" d="M458.5187,730.96c1.3677,2.8569,2.8523,5.6645,4.0779,8.5812,2.2807,5.4281,4.6763,10.8322,6.5111,16.415,1.2467,3.7933,3.2156,6.33,7.12,7.2437-4.4159,9.3556-9.9194,17.9552-17.4669,25.1327.3165-2.3027.5157-4.6287.9709-6.9037,1.5807-7.9-1.3056-15.0578-3.8042-22.2047-1.9508-5.58-4.5019-10.95-6.7869-16.415Q453.8292,736.8835,458.5187,730.96Z" transform="translate(-120.2371 -296.7993)"/><path class="v" d="M410.7539,739.5753c2.0112-1.2815,4.3462-2.2454,5.9717-3.9051,4.5388-4.6341,10.1352-6.3513,16.3306-7.0394a61.1658,61.1658,0,0,0,7.4567-1.7479q1.932,7.53,3.8617,15.06c-9.4134,7.5367-21.0024,10.9926-31.3757,16.73Q411.877,749.1247,410.7539,739.5753Z" transform="translate(-120.2371 -296.7993)"/><path class="u" d="M525.868,731.3055a8.3114,8.3114,0,0,0,7.7193-5.4283c2.9072-7.4126,5.4125-14.9829,8.08-22.49q5.9473,8.0218,11.8965,16.045c-.6105,1.053-1.7246,2.0926-1.7538,3.1619-.3038,11.1238-7.3537,18.3512-14.4776,25.565Q531.598,739.733,525.868,731.3055Z" transform="translate(-120.2371 -296.7993)"/><path class="u" d="M499.8843,668.7972c-3.08,11.1673,4.3862,20.2846,5.9341,30.5524.2066,1.37.4275,2.739.6422,4.1082-4.145-.0126-5.02,3.06-5.8334,6.1916-2.4449-2.1689-4.9082-4.3176-7.3287-6.5137-3.5711-3.24-7.1118-6.5133-10.6665-9.7741,3.9639-6.9537,7.7737-14.0026,12.0033-20.79C495.69,670.88,498.0982,670.0327,499.8843,668.7972Z" transform="translate(-120.2371 -296.7993)"/><path class="w" d="M402.6953,682.69c5.5967-1.4715,11.4755-2.311,16.6889-4.641,3.3637-1.5033,5.7516-5.1921,8.578-7.9027q2.8328,12.9222,5.6634,25.8469c-3.0991-4.6728-7.1642-5.165-12.3079-3.5688a34.4228,34.4228,0,0,0-16.1968,10.3025Q403.908,692.7086,402.6953,682.69Z" transform="translate(-120.2371 -296.7993)"/><path class="w" d="M560.2114,661.6666c5.511,3.5039,11.4192,2.087,17.3375,1.6239,4.5007-.3521,9.0579.0182,13.59.0671q-.0205,6.263-.0414,12.5267c-5.0516-1.3111-10.0482-3.3267-15.17-3.726-4.6289-.3608-9.3953,1.0448-14.1008,1.6719Q561.0191,667.7489,560.2114,661.6666Z" transform="translate(-120.2371 -296.7993)"/><path class="u" d="M457.8954,789.3593q.4676-.5581.935-1.1164Z" transform="translate(-120.2371 -296.7993)"/><path class="s" d="M242.1033,733.12q-4.4545-5.54-8.9084-11.08c2.51-4.7649,5.02-9.5294,7.74-14.6949-11.32-4.0579-18.0675-13.5718-26.2759-21.293-1.29-1.2137-1.6865-3.3787-2.4961-5.1039q10.4373-11.0873,20.88-22.17c1.2436-1.3172,2.5551-2.57,3.8373-3.8507,4.7131-4.7069,6.0288-4.8668,9.2035,1.0621,2.9941,5.5917,4.824,11.8024,7.2363,17.7122,4.1462,10.1574,8.3,20.3127,12.5894,30.41.4933,1.161,1.8759,1.9438,2.8457,2.9023-.29,3.6837-.9012,6.9725-5.7951,7.0236-1.0008.01-2.0752,1.2646-2.9666,2.1038Q251.0146,724.5948,242.1033,733.12Z" transform="translate(-120.2371 -296.7993)"/><path class="t" d="M323.9806,704.9658c-12.062,9.6049-24.1543,19.1719-36.1707,28.8336-4.6576,3.7449-9.13,7.7194-13.716,11.5547a41.3,41.3,0,0,1-4.002,3.0022c-7.33,4.75-11.5888,4.1754-17.4363-2.3865-1.2871-1.4444-2.3677-3.0728-3.5425-4.6169a19.7306,19.7306,0,0,1,1.7042-1.7788c12.834-10.4985,25.7559-20.8913,38.4817-31.5192,3.76-3.14,3.3428-4.57-.1546-8.217-1.8674-1.9473-3.2009-4.4067-4.7754-6.6351q8.5039-7.0265,17.0082-14.0523c2.02,1.6745,4.3545,3.0874,6.0039,5.07C313.0437,691.028,318.4664,698.035,323.9806,704.9658Z" transform="translate(-120.2371 -296.7993)"/><path class="t" d="M318.5608,665.3287c10.68-7.2885,21.201-14.8248,32.0876-21.7894,9.13-5.84,16.9459-1.9921,18.2773,8.6769.6009,4.8149.5839,9.7069.8474,14.5645-8.7849,8.9016-17.4425,17.935-26.4478,26.607-2.1539,2.0743-5.4666,2.9443-8.2463,4.3682q-1.6971.0508-3.3957.1c-1.4079-3.1852-2.8539-6.352-4.2127-9.5557C324.2622,680.7364,324.748,671.7383,318.5608,665.3287Z" transform="translate(-120.2371 -296.7993)"/><path class="s" d="M336.598,761.5735c.5141-10.7174,1.2841-21.4308,1.4529-32.1537.1138-7.2248-.6214-14.4631-.9755-21.6953,3.3516-1.9534,6.5259-4.9506,10.1036-5.5536,3.2883-.5543,5.3844-2.3386,8.0423-3.59,3.8975-1.835,8.1386-2.94,12.2333-4.3552q-1.5974,23.6233-3.1886,47.2473c-.3762,5.6565-.6834,11.3176-1.0221,16.9766-2.9865,1.0279-5.92,2.6954-8.9706,2.947C348.4165,761.88,342.4935,761.56,336.598,761.5735Z" transform="translate(-120.2371 -296.7993)"/><path class="s" d="M193.826,761.63c-6.5663,8.8328-12.7122,18.0249-19.8422,26.3761-5.0149,5.8739-11.1941,10.8154-17.1922,15.7622-3.4145,2.816-7.3836,1.191-10.5069-.9739a6.7483,6.7483,0,0,1-2.4494-8.8852c5.9812-12.412,12.1083-24.7539,18.2319-37.0965.7979-1.6083,1.8978-3.0665,2.858-4.5943,6.467-.01,13.0051.7582,19.0543-2.6254,2.8161-1.5753,4.4272.4763,5.542,2.6762C191.0728,755.33,192.4018,758.5041,193.826,761.63Z" transform="translate(-120.2371 -296.7993)"/><path class="t" d="M181.3166,723.2737c3.9611-9.43,10.0275-17.4412,16.8059-24.9727,2.6156.268,5.2631.3544,7.8372.8352,7.6354,1.4258,12.4188,7.2,17.6043,12.171,1.829,1.7534,2.6543,4.5549,3.9379,6.8779-1.3858,1.0528-3.0763,1.8689-4.107,3.1974-5.9571,7.6784-11.7583,15.4777-17.6125,23.2367-3.9914-1.2356-7.8974-2.3095-9.2195-7.2481-1.5849-5.92-4.4236-10.8825-11.4781-11.7558C183.7526,725.45,182.5689,724.0851,181.3166,723.2737Z" transform="translate(-120.2371 -296.7993)"/><path class="s" d="M360.6962,779.2663c-.884,8.0014-1.4233,16.0609-2.7583,23.9863-1.12,6.6474-6.9659,9.3836-12.4458,11.1313-4.1643,1.3281-8.9574.8254-13.4728.86-3.1262.0238-3.9673-2.327-2.8353-4.6265,4.9643-10.0833,4.6355-21.0636,5.81-31.7966,5.9995-1.7231,12.0324-3.3412,17.9844-5.2159,2.6362-.83,4.2949-.0274,5.6005,2.1561C359.2793,776.9325,359.99,778.098,360.6962,779.2663Z" transform="translate(-120.2371 -296.7993)"/><path class="u" d="M284.369,693.2028c1.5745,2.2284,2.908,4.6878,4.7754,6.6351,3.4974,3.6473,3.9145,5.0769.1546,8.217-12.7258,10.6279-25.6477,21.0207-38.4817,31.5192a19.7306,19.7306,0,0,0-1.7042,1.7788q-3.5051-4.1178-7.009-8.2347c5.9579-5.6628,11.9035-11.3412,17.89-16.9768.8914-.8392,1.9658-2.0933,2.9666-2.1038,4.8939-.0511,5.505-3.34,5.7951-7.0236,2.3033-1.8877,4.6713-3.7016,6.8926-5.6805C278.6146,698.69,281.4673,695.9191,284.369,693.2028Z" transform="translate(-120.2371 -296.7993)"/><path class="v" d="M181.3166,723.2737c1.2523.8114,2.436,2.1767,3.7682,2.3416,7.0545.8733,9.8932,5.8357,11.4781,11.7558,1.3221,4.9386,5.2281,6.0125,9.2195,7.2481q-5.9771,8.5038-11.9555,17.01c-1.4251-3.1248-2.7541-6.2987-4.3054-9.36-1.1148-2.2-2.7259-4.2515-5.542-2.6762-6.0492,3.3836-12.5873,2.6152-19.0543,2.6254Q173.1208,737.7459,181.3166,723.2737Z" transform="translate(-120.2371 -296.7993)"/><path class="u" d="M227.5019,718.1851c-1.2836-2.323-2.1089-5.1245-3.9379-6.8779-5.1855-4.9712-9.9689-10.7452-17.6043-12.171-2.5741-.4808-5.2216-.5672-7.8372-.8352q7.02-8.6771,14.042-17.3519c.8083,1.7243,1.2045,3.8893,2.4948,5.103,8.2084,7.7212,14.9556,17.2351,26.2759,21.293-2.7207,5.1655-5.23,9.93-7.74,14.6949Q230.3476,720.1128,227.5019,718.1851Z" transform="translate(-120.2371 -296.7993)"/><path class="u" d="M318.5608,665.3288c6.1872,6.4095,5.7014,15.4076,8.91,22.9716,1.3588,3.2037,2.8048,6.37,4.2127,9.5557q-3.8506,3.5561-7.7034,7.1092c-5.5135-6.93-10.9362-13.9373-16.5988-20.7446-1.6494-1.9828-3.9834-3.3957-6.0038-5.07Q309.9687,672.2393,318.5608,665.3288Z" transform="translate(-120.2371 -296.7993)"/><path class="w" d="M367.4546,694.2258c-4.0947,1.4157-8.3358,2.52-12.2333,4.3552-2.6579,1.2513-4.754,3.0356-8.0423,3.59-3.5777.603-6.752,3.6-10.1036,5.5536q-.9986-4.9851-1.9955-9.9694c2.7788-1.4231,6.0915-2.2931,8.2454-4.3674,9.0053-8.672,17.6629-17.7054,26.4478-26.607Q368.6136,680.5027,367.4546,694.2258Z" transform="translate(-120.2371 -296.7993)"/><path class="u" d="M360.6962,779.2663c-.7062-1.1683-1.4169-2.3338-2.1175-3.5054-1.3056-2.1835-2.9643-2.9864-5.6005-2.1561-5.952,1.8747-11.9849,3.4928-17.9844,5.2159q.802-8.6223,1.6038-17.2466c5.8959-.0139,11.8189.3058,17.6757-.1774,3.05-.2516,5.9841-1.9191,8.9706-2.947Q361.97,768.8581,360.6962,779.2663Z" transform="translate(-120.2371 -296.7993)"/><path class="s" d="M778.0278,683.35c1.1277,10.2893,2.1,20.599,3.4426,30.86.786,6.0055,2.1638,11.9333,3.2756,17.8964a37.2378,37.2378,0,0,1-18.9635,3.2926,9.0869,9.0869,0,0,0-2.4411.4549q-2.61-26.6724-5.22-53.3455Q768.0742,682.9291,778.0278,683.35Z" transform="translate(-120.2371 -296.7993)"/><path class="s" d="M753.6272,677.5884q-18.0489-5.74-36.0975-11.4822c-1.3218-.4206-2.6279-.8937-3.9592-1.2809-9.7591-2.838-11.4193-5.2561-10.7105-15.6564q23.8392-.0042,47.6788-.0031c4.8112,7.5294,5.2423,16.0163,5.147,24.5522C755.6711,675.0156,754.3461,676.2986,753.6272,677.5884Z" transform="translate(-120.2371 -296.7993)"/><path class="s" d="M785.6478,748.9811c.29,7.0765.6918,14.1507.84,21.23.1445,6.91.1971,13.83-.0134,20.7365-.2483,8.1473-4.0965,10.0711-13.5951,7.4779-6.192-1.69-8.8477-7.0669-8.9764-13.2283-.2179-10.4376-.03-20.8836-.0135-31.3263,4.9572-1.2794,9.8984-2.627,14.8793-3.8067C781.0207,749.531,783.3523,749.3318,785.6478,748.9811Z" transform="translate(-120.2371 -296.7993)"/><path class="v" d="M753.6272,677.5884c.7189-1.29,2.0439-2.5728,2.0586-3.87.0953-8.5359-.3358-17.0228-5.147-24.5522q13.5523-.7423,27.1058-1.4853,4.0707,12.4552,8.1405,24.91c-2.8375.7235-6.7973.5936-8.1847,2.42-1.2864,1.6932.1758,5.4766.4275,8.34q-9.9536-.4207-19.9065-.8414C758.012,679.6,756.1757,678.2685,753.6272,677.5884Z" transform="translate(-120.2371 -296.7993)"/><path class="s" d="M785.7851,672.5907q-4.07-12.4549-8.1405-24.91c7.0972-.0722,14.2068-.4063,21.2859-.08a15.0329,15.0329,0,0,1,7.6378,2.8747c3.4855,2.5243,6.1931,6.1713,4.7075,10.7492-1.9245,5.93-6.712,9.1912-12.6444,10.2936C794.428,672.2993,790.0726,672.2625,785.7851,672.5907Z" transform="translate(-120.2371 -296.7993)"/><path class="v" d="M785.6477,748.9811c-2.2954.3507-4.627.55-6.8793,1.0833-4.9809,1.18-9.9221,2.5273-14.8793,3.8067q-.2734-9.0085-.5476-18.0171a9.0964,9.0964,0,0,1,2.441-.4546,37.2373,37.2373,0,0,0,18.9634-3.2926Q785.1966,740.5437,785.6477,748.9811Z" transform="translate(-120.2371 -296.7993)"/><path class="s" d="M644.0367,753.7458q-.4085-27.2365-.8168-54.4731c1.5517-.5655,3.0718-1.4988,4.6606-1.6359,9.5907-.8277,19.2683-3.2544,28.6685,1.0837-.9633,15.17-1.9508,30.3388-2.86,45.5123a49.6384,49.6384,0,0,0,.2971,5.7386C664.3492,753.9782,654.1371,753.4187,644.0367,753.7458Z" transform="translate(-120.2371 -296.7993)"/><path class="s" d="M641.5409,681.8178a103.7544,103.7544,0,0,1-1.01-31.9758c.5049-3.8292,3.6906-6.396,7.373-5.1034,3.9878,1.4,8.4568,2.9642,11.2807,5.8586,8.6,8.8139,14.9022,19.054,15.1595,31.9827a7.0826,7.0826,0,0,1-1.4236.7773A47.5276,47.5276,0,0,1,641.5409,681.8178Z" transform="translate(-120.2371 -296.7993)"/><path class="s" d="M674.8779,763.0867c-.2363,7.7884.1122,15.6506-.8589,23.3461-1.18,9.3487-8.5456,12.274-16.1916,12.5256-3.0833.1015-5.3835-1.4362-6.9364-4.4022-5.16-9.8558-8.02-20.1526-6.8434-31.3644,1.7359-.3135,3.7014-.2058,5.1711-1.0077C658.0045,757.3906,666.5276,756.9561,674.8779,763.0867Z" transform="translate(-120.2371 -296.7993)"/><path class="w" d="M641.5409,681.8178a47.5276,47.5276,0,0,0,31.38,1.5394,7.086,7.086,0,0,0,1.4237-.7773q1.1042,8.067,2.2049,16.1375c-9.4-4.335-19.0781-1.9083-28.6688-1.0806-1.5888.1371-3.1089,1.07-4.6606,1.6359Q642.3805,690.5454,641.5409,681.8178Z" transform="translate(-120.2371 -296.7993)"/><path class="w" d="M674.8779,763.0867c-8.35-6.1306-16.8734-5.6961-25.6592-.9026-1.47.8019-3.4352.6942-5.1711,1.0077q-.0055-4.7211-.0115-9.445c10.101-.3281,20.3131.2314,29.95-3.7754Q674.4323,756.5294,674.8779,763.0867Z" transform="translate(-120.2371 -296.7993)"/><path class="w" d="M665.1721,1225.34c-.3024-6.3556,1.68-10.127,6.06-12.1883,1.5239-.7172,3.6834-.082,5.5527-.0644-.2734,2.1638.2455,5.2735-.98,6.301C672.9626,1221.7713,669.2777,1223.1483,665.1721,1225.34Z" transform="translate(-120.2371 -296.7993)"/><path class="w" d="M511.8445,1213.5368c.0132,5.9136-2.7522,10.4747-6.8967,14.2412-5.3,4.8162-12.022,3.0956-14.2332-3.7229-2.55-7.8648-.6533-14.9454,5.1217-20.7271,6.0543-6.0612,13.2516-3.9075,15.3679,4.4376A40.6181,40.6181,0,0,1,511.8445,1213.5368Z" transform="translate(-120.2371 -296.7993)"/><path class="b" d="M197.7279,998.1236c-15.3-.6282-22.288-12.8037-15.0953-26.3033,5.7158-10.7278,18.9752-17.8957,31.02-16.7692,12.99,1.2148,19.4643,12.1724,14.2725,24.1545C223.1143,990.3088,209.8461,998.621,197.7279,998.1236Z" transform="translate(-120.2371 -296.7993)"/><path class="w" d="M241.5937,1033.2462c.9523.1063,2.3468.182,3.711.4269,9.3822,1.6831,11.3324,6.607,4.9531,13.7914-2.4747,2.7869-6.1364,4.7038-9.5611,6.4047-2.9184,1.4495-5.7519.4372-7.5485-2.5089-.7213-1.1827-1.2737-2.467-1.9487-3.68C225.1525,1036.8192,232.2732,1034.0179,241.5937,1033.2462Z" transform="translate(-120.2371 -296.7993)"/><path class="w" d="M285.6485,1072.2662c3.553-.3912,7.1185-1.1148,10.6518-.9819,1.14.0428,2.1961,2.3378,3.2906,3.6025-1.3459.6068-2.7626,1.8413-4.0242,1.6991a96.82,96.82,0,0,1-9.9726-2.0874Z" transform="translate(-120.2371 -296.7993)"/></svg>