<svg xmlns="http://www.w3.org/2000/svg" viewBox="0 0 922.5603 966.8501"><defs><style>.a{fill:#fdfdfc;}.b{fill:#f9fafc;}.c{fill:#e3b127;}.d{fill:#b5c5e8;}.e{fill:#fee077;}.f{fill:#f1c63c;}.g{fill:#94a6cb;}.h{fill:#244799;}.i{fill:#1b1c1e;}.j{fill:#1c1c1d;}.k{fill:#1b1b1d;}.l{fill:#e0af29;}.m{fill:#254899;}.n{fill:#b0b4c0;}.o{fill:#224598;}.p{fill:#fefdfa;}.q{fill:#f9f8f4;}.r{fill:#fdfdfd;}.s{fill:#204396;}.t{fill:#204496;}.u{fill:#f9fafb;}.v{fill:#fafbfb;}.w{fill:#f8f8fa;}</style></defs><path class="a" d="M215.08,799.3967c-8.7027,10.1264-17.141,20.1675-25.8337,29.9832-5.9409,6.7085-12.3675,12.9215-21.071,16.0933a32.8185,32.8185,0,0,1-26.4185-1.7875c-7.1136-3.589-11.9892-10.41-11.4338-19.26a84.6421,84.6421,0,0,1,9.1587-34.3276c8.0115-15.3368,15.4065-31.0315,24.1333-45.9482,8.13-13.8972,17.4474-27.1231,26.6444-40.365,6.1329-8.83,13.4278-16.8749,19.2623-25.88,2.2387-3.4554,1.9006-8.5966,2.6763-12.98,1.7388-9.8257,2.226-19.9269,8.3779-28.5628,4.9928-7.0088,11.7142-10.4409,19.841-9.0134,9.2585,1.6263,14.5167,6.6334,16.5557,16.1884,1.2261,5.7458.569,11.8863.8607,17.8443.0661,1.348.097,3.1988.9266,3.9292,6.7114,5.9085,9.5887,13.9393,12.7182,21.8924,1.6273,4.1356,3.6075,8.1324,5.6318,12.6453,4.2895-3.5422,8.4331-6.5568,12.0148-10.1341,1.3234-1.3217,1.5911-3.9307,1.8816-6.0165,1.1685-8.39,1.9149-16.8453,3.28-25.2008,1.4143-8.6586,3.2751-17.2485,5.0969-25.8354a294.6824,294.6824,0,0,1,18.73-57.6489c7.6-17.2465,16.4849-33.983,25.7069-50.438,6.07-10.8306,13.3709-21.0392,20.8035-31.0177,6.6105-8.8749,13.9741-17.2167,21.3526-25.4836,6.4382-7.2135,13.09-14.2823,20.13-20.903A380.312,380.312,0,0,1,502.05,381.2821c18.8814-8.9273,38.3577-16.4535,58.6887-21.441,13.9349-3.4184,27.927-6.6826,42.02-9.3487,8.0745-1.5274,16.3868-1.9627,24.6179-2.4584,12.3444-.7434,24.7361-1.8478,37.0625-1.4387,14.158.47,28.2886,2.2253,42.3922,3.7758,24.3732,2.6795,47.9059,9.0151,70.8921,17.3548,19.1863,6.9611,38.0008,14.876,55.3091,25.8247q22.0554,13.9515,43.548,28.784c5.8131,4.0081,11.0459,8.9154,16.2611,13.7192,7.308,6.7316,14.5025,13.6014,21.4787,20.6752a338.1111,338.1111,0,0,1,36.8753,45.0489,367.1878,367.1878,0,0,1,27.7707,47.2049,348.783,348.783,0,0,1,27.2433,76.3145c3.0688,13.4107,5.1612,27.0707,7.1185,40.7007,1.3383,9.319,1.9021,18.7691,2.4084,28.1823.5332,9.91,1.21,19.8784.6959,29.7626-.6882,13.2428-2.0636,26.484-3.8761,39.625-1.8813,13.64-5.07,27.1079-6.7161,40.768-.4338,3.5989,2.1324,8.0163,4.3508,11.3784,4.0074,6.0739,9.2186,11.361,13.146,17.4782,5.4041,8.4174,10.7448,16.9988,14.8806,26.0715a145.3128,145.3128,0,0,1,9.2235,27.2189c2.3386,10.06,3.2658,20.46,4.5792,30.7411a82.504,82.504,0,0,1,.7766,13.5989A176.3661,176.3661,0,0,1,1040.789,989a159.2449,159.2449,0,0,1-24.7637,42.65c-12.8034,15.6795-27.7766,29.11-45.4526,39.3607a169.0261,169.0261,0,0,1-49.0926,18.7985c-7.1227,1.5557-14.5313,1.8222-21.8175,2.6028-3.3429.358-6.7419.9933-10.0507.72-9.7456-.8057-19.4546-2.0448-29.1877-3.0151a36.69,36.69,0,0,0-6.6952.0009c-1.7938.1517-3.2717,1.0032-2.74,3.2394,1.58,6.6452,2.8007,13.41,4.8853,19.8952,8.5889,26.7225,17.5406,53.3283,26.1638,80.04,4.3513,13.4787,8.4138,27.0547,12.3734,40.6547,4.1755,14.342,2.2342,28.5024-2.8654,42.13a57.532,57.532,0,0,1-28.8342,32.0437,49.7265,49.7265,0,0,1-20.9624,5.1938c-24.8929.8306-43.7723-10.3026-57.1313-30.2257-6.0951-9.09-9.4353-20.1062-13.5182-30.4489-6.8168-17.2685-13.237-34.694-19.8051-52.0606q-9.7855-25.8735-19.5451-51.7572c-1.9011-5.0136-7.7693-7.6976-13.4357-6.71-8.4405,1.4713-16.9378,2.6157-25.4031,3.9476-23.5431,3.7041-47.2816,3.6642-70.9739,2.9829-13.8934-.3995-27.74-2.4428-41.6063-3.762-18.9707-1.8048-37.5066-5.99-55.76-11.1833-14.9374-4.25-29.7922-9.0192-44.2447-14.6791-14.3813-5.6319-28.4532-12.1923-42.2332-19.1877a350.3462,350.3462,0,0,1-57.6089-36.3626c-10.6306-8.3235-21.1646-16.8136-31.2346-25.7976-9.6625-8.62-19.069-17.6041-27.8785-27.0874a396.1462,396.1462,0,0,1-43.5948-56.1075c-13.8186-21.5987-26.4439-43.8586-35.7047-67.8623-4.5462-11.7837-9.586-23.4336-13.2124-35.5016-4.8444-16.1211-8.5279-32.5908-12.7264-48.9065C215.8532,801.519,215.4356,800.4694,215.08,799.3967Zm586.366,20.2123-.1128.0989-.7436.6769-.038.0475q-.4538.7257-.9076,1.4512l-.0114-.031a81.8417,81.8417,0,0,0-21.3534,23.6617,25.5607,25.5607,0,0,0-1.7349,2.0975c-20.176,30.2563-27.8992,63.5484-24.0538,99.5858.5915,5.543,1.88,11.0119,2.9818,17.2861,46.8305-22.6524,83.1806-55.7614,110.9341-98.4852a274.1325,274.1325,0,0,0,35.6842-80.9557c-38.3879-1.4026-71.5195,9.4016-99.997,33.9408ZM655.2093,690.4217l-.597-.9739c-1.7782-2.7271-3.6328-5.4078-5.32-8.19a33.3163,33.3163,0,0,0-21.8923-15.78c-6.4531-1.49-10.474.1558-13.6164,5.9509-15.0893-7.8743-30.3549-15.4316-45.2261-23.6981-21.52-11.9625-42.5338-24.9165-66.087-32.7088-14.896-4.928-29.7695-10.025-44.9159-14.0594-10.0367-2.6734-20.55-3.5328-30.8256-5.3472-3.2561-.575-4.4332,1.2354-5.394,3.7408-3.5131,9.1616-7.6352,18.1369-10.4559,27.5051-3.6852,12.24-6.3514,24.7861-9.456,37.2005L386.8706,667.89a11.24,11.24,0,0,1-.0757-2.3329,303.5337,303.5337,0,0,1,62.3668-137.2954c33.4822-41.1206,74.8619-71.1771,125.0667-88.5862,36.3672-12.6109,73.7563-17.2373,112.15-12.9326,25.4723,2.8559,50.1253,8.7536,73.6018,19.182,60.8926,27.0486,105.75,70.8565,135.461,130.2682A289.4966,289.4966,0,0,1,923.7236,671.26a304.2156,304.2156,0,0,1-.9509,81.69c-.9689,6.575-2.1907,13.1126-3.3537,20.0076a158.2118,158.2118,0,0,1,64.122,28.2152c.4194-1.304.6941-2.0066.872-2.7329,8.4-34.2746,12.1985-68.9811,10.288-104.2964a353.2079,353.2079,0,0,0-15.62-87.364,341.775,341.775,0,0,0-71.8184-126.54,332.3581,332.3581,0,0,0-99.4085-76.33,337.7581,337.7581,0,0,0-111.4466-33.5034A336.4894,336.4894,0,0,0,497.04,407.7219q-78.6628,41.8994-127.8016,116.2659a341.7316,341.7316,0,0,0-50.8465,122.1836c-2.6943,13.3487-4.1063,26.956-6.1034,40.44L271.6139,721.78c-2.2529-5.66-4.3172-10.839-6.3762-16.02-3.7127-9.3431-7.26-18.7567-11.2026-28.0018-1.9254-4.5149-5.947-6.0394-10.7359-5.4845-1.6937.1963-3.3768.4844-5.0647.7305,1.0953-7.2654,2.281-14.5189,3.2477-21.8014.4828-3.6368-1.4408-6.2611-4.5745-6.64-3.3762-.4084-5.9348,1.1175-6.4115,4.4087-1.8041,12.4559-3.31,24.9551-4.9274,37.4381-.5716.7153-1.1243,1.4468-1.7177,2.1436-11.8846,13.957-23.8449,27.8506-35.6034,41.9131a62.7843,62.7843,0,0,0-6.0441,9.62c-8.5354,15.1351-17.2532,30.1759-25.3906,45.5237a247.2978,247.2978,0,0,0-13.1073,28.8241c-1.234,3.2877-.8017,8.7612,1.2371,11.4185,5.6645,7.3832,20.2023,8.3527,26.7348,4.69,6.1458-3.4463,9.3188-8.8452,13.1525-14.1372,13.4532-18.5708,27.1857-36.9392,40.8121-55.3844a19.4037,19.4037,0,0,1,.6936,2.5917c14.93,116.7179,69.64,211.1381,162.4466,282.4859,84.75,65.1539,181.5551,94.3642,288.5942,87.937,13.9976-.84,27.89-3.364,41.8506-4.9358,3.895-.4386,4.67-2.1681,3.2717-5.4947-.2531-.6023-.3924-1.2519-.5922-1.8772-1.7376-5.4405-2.0151-5.342-7.4825-4.4981-13.4715,2.0789-26.9324,4.6325-40.4978,5.6226-37.3117,2.7231-74.2831-.4046-110.8453-8.3169-165.6423-35.8459-295.2974-168.1756-322.8076-333.3-1.1092-6.6577-1.4912-13.4364-2.2121-20.1588q6.1061,7.2016,12.2147,14.4011c7.0126,8.2191,19.3432,7.8748,27.4505.4957,10.82-9.8487,22.4512-18.8072,33.734-28.148A349.92,349.92,0,0,0,322.79,812.4723c-1.2765,5.2727-2.2165,10.6565-3.9111,15.7912-2.3453,7.1068.8135,12.9255,8.1741,14.0725,1.9242.3,3.844.6286,5.7657.9441a339.7354,339.7354,0,0,0,69.6678,113.007,336.1832,336.1832,0,0,0,234.441,107.5687,312.2035,312.2035,0,0,0,55.0134-2.8072c29.1464-3.9963,57.4734-10.8363,84.7217-21.987a25.9423,25.9423,0,0,0,2.7138-1.5723,159.6391,159.6391,0,0,1-32.7512-53.8141,6.4206,6.4206,0,0,0-1.2531.012c-.501.1464-.9844.355-1.4722.5458a258.0063,258.0063,0,0,1-119.382,16.7823A251.0031,251.0031,0,0,1,537.08,976.3269c-39.2431-19.1155-71.6445-46.5282-97.7089-81.4618a275.5416,275.5416,0,0,1-35.0137-62.3761c-.7589-1.8908-.8193-4.062-1.2022-6.1032l15.6385,5.1328c1.8055,4.0635,3.4682,8.1977,5.4409,12.1783a273.0635,273.0635,0,0,0,34.13,53.1619,258.5451,258.5451,0,0,0,40.3579,39.5043,241.5335,241.5335,0,0,0,57.88,33.7363A237.437,237.437,0,0,0,610.1441,985.15c8.3891,1.2727,16.8651,2.2083,25.3353,2.6466,9.1512.4736,18.3455.3662,27.5135.1678,5.557-.12,11.1-.8937,16.9558-1.4a21.39,21.39,0,0,0-.6331-3.1227c-9.3518-24.0686-18.83-48.0889-28.01-72.223-1.5915-4.1844-3.2876-9.0571-2.6252-13.2466,3.1762-20.09,13.1858-36.0591,31.15-46.2711,22.2942-12.6739,47.1455-12.7043,68.41,2.9535,1.616,1.19,3.1258,2.5242,4.8424,3.9194.75-1.1516,1.2219-1.7726,1.5861-2.4516,9.8849-18.4288,22.2885-34.8385,38.3313-48.4141a156.0118,156.0118,0,0,1,49.4631-28.5047,152.9333,152.9333,0,0,1,58.3485-8.4289c3.6124.1692,5.2071-.9262,5.6968-4.5377,1.334-9.8376,3.0862-19.62,4.3429-29.4661.6856-5.3713.7015-10.828,1.07-17.1085-6.9263,1.1846-12.9219,2.211-18.9178,3.2356-14.2556,2.4359-28.32,5.2689-43.0737,4.6664-21.0712-.86-42.216-.05-63.2176-2.65-9.3275-1.1548-18.6173-2.6142-27.9242-3.9354-.5775-4.3619-1.1549-8.7237-1.7551-13.2578,1.07-.0711,1.9845-.0653,2.8774-.202,5.1592-.79,10.4535-1.1186,15.44-2.5305,9.7161-2.7515,17.5328-16.7452,11.0012-25.8545-4.3114-6.0127-9.9652-9.8213-17.2848-10.1934a232.9447,232.9447,0,0,0-23.9809.0988c-21.2185,1.1121-42.41,2.511-63.6467.1472-5.5214-.6145-9.4572,2.8672-10.6258,8.3637-1.855,8.7259,1.3536,15.8747,9.1764,20.4449-3.4609-1.0166-6.9312-2.0021-10.38-3.0574-4.81-1.4718-9.6045-2.9958-14.4057-4.4975Zm3.9037-19.1678c6.3563-8.9327,10.8864-12.5825,21.4789-13.6418,14.72-1.4721,29.5544-1.836,44.3466-2.53a141.19,141.19,0,0,1,14.1691.0829c12.9534.6963,25.9284,1.2376,38.837,2.4543,14.3726,1.3548,25.4552,15.8918,25.5,29.6193a38.52,38.52,0,0,1-5.67,20.058,10.9261,10.9261,0,0,0,2.737,1.0346c4.2659.351,8.5452.822,12.8156.7844,17.6782-.1561,35.381.0093,53.0222-.9307,10.2823-.548,20.4954-2.7931,30.6814-4.6023,6.6423-1.18,10.3107-5.5282,9.8381-12.0861A249.9274,249.9274,0,0,0,903.698,663.92c-2.3574-12.7182-5.0909-25.41-8.5223-37.8761-5.67-20.5992-14.5728-39.8849-25.2706-58.3772a231.51,231.51,0,0,0-31.6214-43.2208,281.191,281.191,0,0,0-31.2512-28.8177A304.5788,304.5788,0,0,0,771.12,471.9251c-18.3191-10.5148-38.2093-17.5025-58.7975-22.04-11.9668-2.6377-24.2025-4.9344-36.4-5.4576-23.0414-.9882-46.0233-.3377-68.7783,5.0907a267.6991,267.6991,0,0,0-63.8061,23.8035,247.4,247.4,0,0,0-50.8914,35.8355C478.245,522.1,465.05,536.1148,454.1552,552.063a162.138,162.138,0,0,0-11.522,18.7661c-2.5295,5.0684-1.0231,7.4593,4.6207,8.9672,9.5418,2.5493,19.2787,4.4075,28.7416,7.2054,20.7441,6.1333,41.309,12.9527,60.63,22.7733,16.491,8.3821,32.5154,17.6815,48.7556,26.5579,6.4552,3.5282,12.815,7.2617,19.4389,10.4421,6.6075,3.1725,12.7124,7.6474,20.5954,7.7582,8.3317.1171,15.2316,4.0871,20.862,9.8479C649.9736,668.1629,654.3179,669.9688,659.113,671.2539ZM991.5163,826.3815c-33.9331,97.207-95.2753,168.906-186.1107,215.56a43.1588,43.1588,0,0,0,3.8512,3.1943c5.6459,3.5785,11.1586,7.4241,17.0526,10.5441,28.3831,15.0244,58.5277,19.2924,89.9757,13.42a132.9118,132.9118,0,0,0,54.1572-23.3637c27.4185-19.8908,45.9738-46.0239,55.209-78.66,5.1934-18.3527,7.1644-37.0636,4.9549-56.04-2.7451-23.5788-10.44-45.474-23.8951-65.1223C1002.2377,839.3813,996.9943,833.3764,991.5163,826.3815ZM724.6353,1070.19c.5791,1.7133.92,2.8348,1.3333,3.9287q31.0507,82.185,62.0889,164.3745c3.417,9.0658,5.6659,18.676,9.9657,27.2794,5.8334,11.6719,14.95,20.684,27.7305,24.9252,12.6573,4.2,24.7871,3.1455,35.1433-5.9428,15.1392-13.2857,16.8977-30.56,12.6308-48.7362-2.6285-11.1966-7.0232-21.9766-10.5878-32.9558q-21.4682-66.1253-43.0078-132.2271c-.57-1.7423-2.3078-3.3486-3.8895-4.4717-7.3758-5.2377-15.0128-10.1148-22.28-15.4943a6.1265,6.1265,0,0,0-6.7077-.96c-13.6772,5.0059-27.3795,9.9588-41.1937,14.5688C739.0614,1066.7484,732.0009,1068.2363,724.6353,1070.19Zm35.0458-92.433c.25.883.41,1.65.6819,2.374a144.2113,144.2113,0,0,0,30.1163,48.5573c2.35,2.5026,4.1523,2.5743,7.0858,1.14A351.8151,351.8151,0,0,0,978.2535,820.28c1.0719-3.38.43-5.5333-2.4614-7.2181-10.0677-5.8664-19.7815-12.5115-30.3282-17.3332-9.172-4.1931-19.2893-6.3186-29.1266-9.401C891.0953,872.9987,840.5427,937.555,759.6811,977.7571ZM261.4154,803.2633c2.47,8.8851,5.039,19.0688,8.1369,29.0889a381.2782,381.2782,0,0,0,34.142,77.3A387.9853,387.9853,0,0,0,346.69,970.0472a363.3536,363.3536,0,0,0,26.0249,26.8221c9.5881,9.0292,19.7116,17.5049,29.8093,25.9744,17.6253,14.7836,37.1551,26.7687,57.36,37.5867,21.4538,11.4863,43.6909,21.3572,67.1724,27.9381,15.9867,4.48,32.1274,8.6,48.4185,11.7452a321.3847,321.3847,0,0,0,39.7837,4.7644c11.78.7743,23.6619.4717,35.48.076,11.2539-.3771,22.5137-1.2,33.7118-2.3848,6.9289-.7334,13.7629-2.4341,20.6087-3.85,3.2043-.6624,5.147-3.13,4.629-6.1468-1.4033-8.1711-6.0032-10.9955-13.8674-10.3544-11.576.9438-23.12,2.5629-34.71,2.9694-11.2146.3933-22.481-.1635-33.7046-.7136a276.2432,276.2432,0,0,1-28.5673-2.448c-11.6794-1.8016-23.2658-4.3332-34.7878-7.0007a331.4171,331.4171,0,0,1-66.7824-23.5453c-19.689-9.2947-38.6625-19.8745-55.94-33.1647-12.9276-9.9443-25.7746-20.0771-37.8682-31-13.494-12.1876-25.4909-25.8781-36.7-40.2712a376.51,376.51,0,0,1-34.5329-53.0135,316.9042,316.9042,0,0,1-22.6334-52.5871c-4.3586-13.4734-7.7879-27.2541-11.411-40.956-1.6692-6.3123-2.8113-12.7639-4.1765-19.0791Zm449.9857,53.4328c-1.7281.1868-4.2174.3549-6.6733.7373-20.2756,3.1567-38.7669,18.8344-41.4748,40.0951-.24,1.8848-.6241,4.04.0123,5.7048,10.02,26.2181,20.2062,52.3727,30.3188,78.5556.7357,1.9048,1.6566,2.6259,3.8257,1.9893,12.9422-3.7982,25.9628-7.3334,38.87-11.244,5.73-1.7361,5.7228-2.6959,4.7625-8.7237-1.44-9.0392-2.98-18.1194-3.4958-27.2376a152.71,152.71,0,0,1,8.3461-59.233c.4186-1.2042.5919-3.0788-.0525-3.96a44.3868,44.3868,0,0,0-7.1848-8.2345C731.0175,858.8428,721.7822,857.0638,711.4011,856.6961Z" transform="translate(-130.2801 -346.507)"/><path class="b" d="M479.0973,1172.4555c4.6042-.45,8.3454-1.3023,12.0188-1.0721,7.6113.477,14.7352,2.6907,20.5549,7.9864,1.1644,1.0594,2.2742,2.187,3.335,3.3507,2.4373,2.6738,4.9412,3.2881,8.5577,1.79,10.4806-4.3426,18.5689-.7589,23,11.3258,1.4468,3.9454,1.2652,3.794,4.1684.9444,2.9563-2.9017,5.8839-6.2647,9.51-7.95a14.452,14.452,0,0,1,15.8449,2.3765c3.431,2.9225,5.9779,1.6857,9.3145.1457,5-2.3077,10.218-5.2012,15.505-5.5781a21.95,21.95,0,0,1,19.782,8.9815c.4541.6092.8253,1.2861,1.3212,1.8566.5019.5773,1.1109,1.0614,2.0945,1.98,2.0625-1.9129,4.1657-3.6053,5.9619-5.5773a30.3543,30.3543,0,0,1,20.6142-9.737c10.7769-.8456,23.7091,6.0107,26.6287,19.1518,1.0817,4.8687.4329,10.1884.1278,15.2756-.2031,3.3885.8808,5.6867,3.7983,7.1728,5.4554,2.7787,8.33,7.1227,8.9248,13.284.7982,8.27-6.4086,16.3-14.25,19.0026-13.3,4.5843-26.613,5.0516-39.1768-2.3434-4.5506-2.6783-8.1033-2.3409-11.9109,1.0693-11.1448,9.9824-24.0783,11.0292-37.153,5.4517-6.7463-2.8778-12.6744-2.6584-19.27-.9979a12.2736,12.2736,0,0,1-7.3226-.3124c-4.768-2.0394-9.4186-1.1715-14.0151-.2477a24.4871,24.4871,0,0,1-20.4113-5.095c-4.354-3.4054-7.5687-8.4486-10.73-13.1408-2.48-3.682-3.5723-4.3094-6.9766-1.4516-6.4826,5.4419-13.9438,8.6171-22.3743,8.3907-12.2256-.3282-21.2309-6.4438-27.41-16.864-.4476-.7549-.6267-1.67-1.0779-2.4218-2.6812-4.4693-3.6076-4.41-8.0431-1.2921-6.3593,4.47-12.376,5.6824-18.7613,1.59-5.5031-3.5268-9.5864-9.8855-7.031-18.3847,1.5594-5.1868,3.2891-10.3231,4.7954-15.5245.2469-.853-.2669-1.9265-.4292-2.8981-1.0657.2648-2.4975.1886-3.125.8619-1.5509,1.6644-2.59,3.7977-4.0939,5.5153-3.1,3.54-5.8722,7.6631-9.667,10.238-9.0116,6.1151-19.8457-.8258-22.0739-9.8563-1.9681-7.9764,1.1127-15.08,4.4433-21.8755,5.7472-11.7257,11.9213-23.2478,18.1339-34.7377a90.9794,90.9794,0,0,1,9.0549-14.4176c3.4556-4.2344,8.7179-5.3576,14.0356-4.0673,5.9245,1.4374,9.3223,5.6208,11.1392,11.3507,1.8838,5.9407-.3759,11.2561-1.9949,16.7367a40.1641,40.1641,0,0,0-.8583,6.0385l1.8334.8121c1.3806-1.5686,2.874-3.053,4.12-4.7219,3.4723-4.65,6.9086-9.0549,12.9061-10.9942,6.1707-1.9952,13.9348,2.2973,16.4475,6.7316,2.925,5.1621,2.6521,10.2682,1.4447,15.6395C479.941,1167.8064,479.6294,1169.6893,479.0973,1172.4555ZM444.06,1187.3124c-3.4966,7.527-6.71,14.4-9.8789,21.2947a33.6365,33.6365,0,0,0-2.3622,5.8228c-.8388,3.402.2112,6.3662,3.3892,8.0512a6.4367,6.4367,0,0,0,8.2527-1.5407,21.7191,21.7191,0,0,0,3.5822-5.5948q11.7321-26.0412,23.289-52.1615a17.9638,17.9638,0,0,0,1.3049-3.6983c.7043-3.5184-.9189-6.7352-3.9568-7.6791a6.2178,6.2178,0,0,0-7.7587,3.0169c-.8782,1.4564-1.5152,3.057-2.2859,4.58q-3.87,7.6475-7.7393,15.2478l-22.8554-10.3246c.657-1.3794,1.248-2.5317,1.7633-3.7168,2.7743-6.38,5.7241-12.6939,8.218-19.1826a6.5348,6.5348,0,0,0-3.8426-8.73c-3.3462-1.1228-6.5432.4767-8.2718,4.1842-.8877,1.9039-1.6148,3.887-2.5738,5.7525-6.6656,12.9663-13.5,25.8481-19.9939,38.8994a71.7524,71.7524,0,0,0-4.8363,13.27,6.8289,6.8289,0,0,0,4.4919,8.2c3.7525,1.36,5.601-.8393,7.1148-3.7514,3.4508-6.6379,6.8438-13.309,10.4835-19.8422.5447-.9777,2.649-2.1075,3.433-1.771C429.9815,1180.622,436.8015,1183.92,444.06,1187.3124Zm112.5542,57.7839c1.8224,1.9991,3.3313,4.2168,5.36,5.7437a6.56,6.56,0,0,0,8.7134-.3032c2.599-2.2051,2.8152-4.992,1.9166-8.2362-1.0589-3.823-2.3125-7.799-2.2389-11.6853.1461-7.72,1.2353-15.418,1.7337-23.138a19.5407,19.5407,0,0,0-.6795-6.9316c-.8976-2.882-3.3822-4.8233-6.34-4.1627a13.6,13.6,0,0,0-6.2215,3.9085c-1.0245,1.05-1.0553,3.163-1.3343,4.8315-1.48,8.8554-3.64,17.508-8.3389,25.2613-1.887,3.1134-4.1452,6.6725-8.5629,5.5807-4.2383-1.0478-4.6832-5.1582-4.7464-8.6182-.1579-8.6447-.0838-17.3092.3421-25.9438.32-6.49-.94-9.7074-5.092-10.3476-4.3145-.6652-7.3372,2.2863-7.9236,8.7164a230.8748,230.8748,0,0,0-1.19,23.9609,48.2661,48.2661,0,0,0,2.4776,14.6394,18.284,18.284,0,0,0,23.5755,11.417C551.0842,1248.701,553.7706,1246.6883,556.6139,1245.0963Zm89.54-11.9992.4893-1.4c1.9785-.656,4.1626-.9757,5.8947-2.0347,4.19-2.5624,9.0507-4.7391,12.0683-8.376,8.7624-10.5609,2.4176-26.66-10.8465-28.4787-6.2523-.8575-11.5916,1.6883-16.3447,5.4788-9.909,7.902-10.2286,18.6961-8.3685,29.8178,1.5259,9.1239,5.833,17.0416,14.9226,20.2944a39.5993,39.5993,0,0,0,31.7355-2.0334c4.7478-2.3536,6.4641-7.0108,4.5157-10.7555-1.8046-3.4684-5.5954-3.7636-10.7244-2.3651a79.44,79.44,0,0,1-16.5361,2.4137C650.7433,1235.7779,648.4251,1234.0072,646.1534,1233.0971Zm-182.9461-19.8822c.2127,2.0013.2837,3.45.5308,4.8682,1.5406,8.84,5.8974,15.7355,14.33,19.3566,8.325,3.5752,15.9331,1.3739,22.9016-3.7923,9.4507-7.0064,14.6239-22.8364,11.38-34.3581-3.66-12.9974-14.4162-20.2643-26.5388-17.76C472.842,1184.2092,462.1175,1199.5434,463.2073,1213.2149Zm146.1493,22.3892-.1168,1.9729c-1.9488.8421-3.9583,2.4964-5.8338,2.3564a38.9722,38.9722,0,0,1-11.339-2.4971c-5.3613-2.1265-9.3392-1.7228-11.4213,2.0678-2.1551,3.9234-.6319,8.7119,4.7125,10.8212a62.4735,62.4735,0,0,0,17.717,4.3753c7.3552.5794,13.4148-3.3241,18.0035-8.9631,5.0153-6.1632,4.2982-13.8911-1.3668-19.5635-5.5174-5.5247-12.46-8.0194-19.8593-9.7489-1.5891-.3715-2.9321-1.7963-4.3885-2.7359a34.257,34.257,0,0,1,3.9487-4.5493c.7516-.626,2.2216-.4778,3.3705-.504a7.333,7.333,0,0,1,1.8866.5252c4.2809,1.1469,7.5693-.2345,8.755-3.67,1.1477-3.3253-.5992-6.83-4.3226-8.6727-8.3227-4.1185-19.4663-.3957-24.9709,8.3426-4.8581,7.7119-3.1381,16.8192,4.5879,21.664,3.1459,1.9725,7.0265,2.748,10.5138,4.209C602.6467,1232.4641,605.9852,1234.0735,609.3566,1235.6041Z" transform="translate(-130.2801 -346.507)"/><path class="b" d="M208.0161,1031.0278c-8.556-1.17-17.2176-1.8255-24.921-6.3885-12.2329-7.2459-19.4168-17.597-19.7593-32.0578-.5075-21.4261,10.7763-35.4388,28.6611-45.3808a49.2538,49.2538,0,0,1,27.686-6.1352c16.99,1.1036,33.4229,12.1208,37.5744,31.0053,2.0682,9.4081.5556,18.0627-3.2547,26.5926-.9284,2.0782-2.5917,4.175-2.5554,6.2393a9.2105,9.2105,0,0,0,2.8795,5.9877c5.6376,5.062,11.8782,9.4639,17.405,14.6346a25.681,25.681,0,0,1,8.3348,18.7162,14.8878,14.8878,0,0,0,.88,5.2584,3.7792,3.7792,0,0,0,2.8622,1.8,45.8007,45.8007,0,0,0,6.8523-.6877c18.3859-2.3478,33.1691,11.77,32.78,28.2487a48.1965,48.1965,0,0,0,.66,6.0811c9.3545-4.1005,17.3365-3.5352,24.9548,3.1814,3.2564,2.871,8.1889,3.7607,12.1623,5.915,9.0727,4.9192,14.664,12.1257,15.9324,22.8348,1.4661,12.3778-3.05,23.0282-8.7375,33.2271a82.0317,82.0317,0,0,1-13.1481,17.8291c-9.5252,9.5739-22.3873,7.1854-27.8663-3.7366-2.779-5.5394-1.34-11.0727,1.6051-16.2287,2.8287-4.9517,5.7593-9.8451,8.6087-14.7851a21.1884,21.1884,0,0,0,1.0556-2.6071c-4.69-1.14-7.1479,2.1976-9.9037,4.3476-2.7988,2.1836-5.0281,5.08-7.6607,7.4971-9.17,8.4183-23.8827,4.39-26.22-6.6085-1.6975-7.9863-7.377-6.92-12.52-7.8731-16.568-3.0707-31.13-15.7963-32.3323-33.8052-.084-1.2589-.6519-2.4849-.739-3.744-.5125-7.4129-.4876-7.3558-7.6662-7.4346-7.1471-.0782-13.3373-2.8285-18.8625-7.19-4.7954-3.7858-5.1971-3.734-10.6136-.2887-4.3546,2.77-8.5077,5.91-14.1512,5.99-6.405.0916-11.2037-2.3246-14.409-7.8006-3.5354-6.04-3.2854-12.3778.9561-17.5837,4.4483-5.4594,10.0325-9.9945,15.13-14.9231q4.64-4.4858,9.3092-8.941Zm39.85-50.06c.3565-13.3559-8.0942-24.7506-21.3413-28.776-22.1642-6.7351-48.5762,8.6663-53.872,31.414-3.7776,16.2259,5.1957,31.22,21.2278,35.6044,7.9931,2.1859,15.8094,1.5178,23.6441-.8571C234.237,1013.2874,247.4358,997.1033,247.8665,980.9679Zm-28.1153,74.1071c1.0771,2.3211,1.8647,4.1182,2.7341,5.8747,4.4485,8.9869,12.6677,13.72,21.6332,12.4853,11.7419-1.6171,23.4775-12.7627,25.6287-24.34a18.0851,18.0851,0,0,0-9.404-19.8984c-2.8532-1.5265-6.0432-2.4237-9.1874-3.65.5085-3.3771.1-6.57-3.464-8.26-3.6046-1.71-6.2257.3485-8.807,2.56q-18.9809,16.2587-38.0068,32.4642c-3.2882,2.8131-6.6843,5.5331-9.7073,8.6135a7.102,7.102,0,0,0-.2832,9.682,7.3089,7.3089,0,0,0,9.6651.8674,49.25,49.25,0,0,0,4.2663-3.4778C209.6769,1063.8115,214.5171,1059.607,219.7512,1055.075Zm121.1968,45.091a17.0045,17.0045,0,0,1,.1444-1.6958c.6218-3.2236-.3737-5.8454-3.3377-7.25a6.38,6.38,0,0,0-7.9271,1.6039c-3.18,3.6575-6.0387,7.5926-9.0585,11.39-5.717,7.19-11.647,14.2209-17.1033,21.6027-3.1418,4.2506-2.227,9.2006,1.3427,11.5338,3.5223,2.3025,7.6855,1.0665,10.6591-3.4205,5.7471-8.6717,13.8861-14.2187,23.3839-17.8837a20.4283,20.4283,0,0,1,7.71-1.1967c4.3111.1114,6.2843,2.3928,5.7,6.6885-.4368,3.2084-1.0644,6.6469-2.635,9.3955-4.2121,7.3721-8.824,14.5318-13.5789,21.5719-2.83,4.19-3.0816,8.1358.0707,10.9782,3.02,2.7235,7.51,2.3373,10.8377-1.3368,9.04-9.9783,15.8488-21.3231,19.1645-34.4286,4.1174-16.2739-4.9525-27.5519-21.7252-27.5528Zm-66.48-14.4789c1.2381.8237,2.189,1.4917,3.1735,2.1058a34.5716,34.5716,0,0,0,21.7426,5.4669,15.0465,15.0465,0,0,0,13.8807-15.7653c-.2488-8.5812-6.8816-15.855-15.9039-17.4409-13.5539-2.3826-33.3764,9.3614-37.5845,22.5053a26.474,26.474,0,0,0-1.2795,9.272c.8775,16.4,12.957,24.8284,28.1476,27.4464,4.6373.7992,8.2954-1.8847,8.9617-5.7346.6654-3.8441-1.8856-6.9627-6.5648-8.4273a60.2632,60.2632,0,0,1-9.5382-3.6C273.6946,1098.5368,271.6849,1092.2029,274.4682,1085.6871Z" transform="translate(-130.2801 -346.507)"/><path class="c" d="M312.2866,686.6163c1.9993-13.4889,3.4113-27.0962,6.1056-40.4449a341.7316,341.7316,0,0,1,50.8465-122.1836Q418.4452,449.7965,497.04,407.7219A338.48,338.48,0,0,1,807.8544,403.91a332.3581,332.3581,0,0,1,99.4085,76.33,341.775,341.775,0,0,1,71.8184,126.54,353.2079,353.2079,0,0,1,15.62,87.364c1.91,35.3153-1.8884,70.0218-10.288,104.2964-.1779.7263-.4526,1.4289-.872,2.7329a158.2118,158.2118,0,0,0-64.122-28.2152c1.163-6.895,2.3848-13.4326,3.3537-20.0076a304.2156,304.2156,0,0,0,.9509-81.69,289.4966,289.4966,0,0,0-28.2823-95.0671c-29.711-59.4117-74.5684-103.22-135.461-130.2682-23.4765-10.4284-48.13-16.3261-73.6018-19.182-38.3938-4.3047-75.7829.3217-112.15,12.9326-50.2048,17.4091-91.5845,47.4656-125.0667,88.5862a303.5337,303.5337,0,0,0-62.3668,137.2954,10.8575,10.8575,0,0,0,.0811,2.33c-3.7781,1.9691-4.8274,5.0682-4.0353,9.14.5917,3.0416.8468,6.1486,1.2517,9.2265a10.8778,10.8778,0,0,0-.5277,1.87,292.1027,292.1027,0,0,0,2.26,78.7919,306.1924,306.1924,0,0,0,15.0779,56.9363c.3912,1.0346,1.4719,1.8085,2.2317,2.7037l.0185-.1688c.3849,2.041.4453,4.2122,1.2042,6.103a275.5416,275.5416,0,0,0,35.0137,62.3761c26.0644,34.9336,58.4658,62.3463,97.7089,81.4618a251.0031,251.0031,0,0,0,87.4382,24.6884A258.0063,258.0063,0,0,0,743.9,984.233c.4878-.1908.9712-.3994,1.4722-.5458a6.4206,6.4206,0,0,1,1.2531-.012,159.6391,159.6391,0,0,0,32.7512,53.8141,25.9423,25.9423,0,0,1-2.7138,1.5723c-27.2483,11.1507-55.5753,17.9907-84.7217,21.987a312.2035,312.2035,0,0,1-55.0134,2.8072,336.1832,336.1832,0,0,1-234.441-107.5687A339.7336,339.7336,0,0,1,332.8186,843.28c11.0346-.03,19.9691-4.9186,27.6434-12.34a11.65,11.65,0,0,0,3.0234-6.0708c.5239-3.0164.0124-6.1956.2208-9.2865q2.7943-41.4382,5.7154-82.8679a43.9136,43.9136,0,0,1,1.1844-8.9586c4.2536-14.861,3.2421-29.8964,1.7446-44.9458a20.9405,20.9405,0,0,0-6.3561-12.7914,11.5717,11.5717,0,0,0-11.9344-3.167,64.6439,64.6439,0,0,0-21.644,9.9867C325.8444,677.621,319.0073,682.0387,312.2866,686.6163ZM949.6631,592.47c-1.2277-13.887-3.42-25.4084-8.4154-36.33-7.5275-16.458-18.2745-30.6229-30.7257-43.5474A209.7143,209.7143,0,0,0,893.5339,496.81c-3.2752-2.7209-6.8484-1.949-9.5739.88-2.6766,2.7784-2.9238,5.5591-.5227,9.2724,2.2785,3.5235,4.9477,6.8012,7.1285,10.38a282.3429,282.3429,0,0,1,28.9819,63.1948,90.6219,90.6219,0,0,0,8.77,18.8405c4.3024,7.2853,13.5171,8.7276,17.8359,2.839C948.4653,599.0638,948.9534,594.5737,949.6631,592.47ZM868.297,481.3929c.0368-7.5191-8.752-16.9444-16.4109-17.111-5.1-.1109-9.0359,2.61-11.6185,6.9322-2.3464,3.9267-1.9771,8.2172,1.0419,11.349,3.3928,3.52,7.26,7.0213,11.6072,9.0836C860.3194,495.1584,868.2574,489.48,868.297,481.3929Z" transform="translate(-130.2801 -346.507)"/><path class="d" d="M401.4227,664.0612c3.1046-12.4144,5.7708-24.9609,9.456-37.2005,2.8207-9.3682,6.9428-18.3435,10.4559-27.5051.9608-2.5054,2.1379-4.3158,5.394-3.7408,10.2751,1.8144,20.7889,2.6738,30.8256,5.3472,15.1464,4.0344,30.02,9.1314,44.9159,14.0594,23.5532,7.7923,44.5667,20.7463,66.087,32.7088,14.8712,8.2665,30.1368,15.8238,45.2262,23.6979-3.51,11.2177-1.7882,22.64-1.3458,34.0157.7648,19.6641,1.89,39.3245,2.1388,58.9956.232,18.32.3865,36.5581,7.8954,53.7083a17.3447,17.3447,0,0,0,5.6749,6.5377c4.6042,3.348,9.5766,1.7648,14.7047.6564,9.5663-2.0676,15.5186-7.9726,16.43-17.71a95.1383,95.1383,0,0,0,.69-12.19c-.7353-20.609-.144-41.1988,1.1653-61.7513a107.2583,107.2583,0,0,0-5.9334-43.25c4.8012,1.5017,9.5955,3.0257,14.4057,4.4975,3.4491,1.0553,6.9194,2.0408,10.38,3.0574l-.14-.0052,2.0412.8967,18.5052,6.401,2.3606.7166-.0406-.0165,21.2592,7.0968c1.316,16.0754,3.0758,32.13,3.8158,48.2323.6622,14.41.124,28.8715.2558,43.3092.1288,14.1093,10.3621,23.5968,24.32,22.7427,7.349-.45,10.8834-3.5817,11.8328-10.1,3.3094-22.7185.6718-45.3241-1.3837-67.9142-.8646-9.5021-2.657-18.92-4.0276-28.376,9.3069,1.3212,18.5967,2.7806,27.9242,3.9354,21.0016,2.6,42.1464,1.79,63.2176,2.65,14.7539.6025,28.8181-2.2305,43.0737-4.6664,5.9959-1.0246,11.9915-2.051,18.9178-3.2356-.3685,6.28-.3844,11.7372-1.07,17.1085-1.2567,9.8462-3.0089,19.6285-4.3429,29.4661-.49,3.6115-2.0844,4.7069-5.6968,4.5377a152.9333,152.9333,0,0,0-58.3485,8.4289A156.0118,156.0118,0,0,0,793,807.708c-16.0428,13.5756-28.4464,29.9853-38.3313,48.4141-.3642.679-.8364,1.3-1.5861,2.4516-1.7166-1.3952-3.2264-2.73-4.8424-3.9194-21.2642-15.6578-46.1155-15.6274-68.41-2.9535-17.9639,10.212-27.9735,26.1815-31.15,46.2711-.6624,4.1895,1.0337,9.0622,2.6252,13.2466,9.1793,24.1341,18.6577,48.1544,28.01,72.223a21.39,21.39,0,0,1,.6331,3.1227c-5.8561.5066-11.3988,1.28-16.9558,1.4-9.168.1984-18.3623.3058-27.5135-.1678-8.47-.4383-16.9462-1.3739-25.3353-2.6466a237.437,237.437,0,0,1-53.5417-15.0507,241.5335,241.5335,0,0,1-57.88-33.7363,258.5451,258.5451,0,0,1-40.3579-39.5043,273.0635,273.0635,0,0,1-34.13-53.1619c-1.9727-3.9806-3.6354-8.1148-5.4409-12.1783,9.0655-.5074,18.0466-1.6492,25.3038-7.6966,5.4736-4.5613,10.451-9.7183,15.6493-14.61,1.4847,3.4966,2.7049,7.1356,4.497,10.467,12.1743,22.63,27.63,42.6946,47.5246,59.0787,7.2687,5.986,15.08,11.3224,22.7395,16.8216,5.1236,3.6787,10.3839,2.3343,14.5471-.8581,4.0873-3.1342,5.1358-8.9418,2.0725-13.78-3.0526-4.8216-7.2366-8.9119-10.5034-13.6153-7.6939-11.0771-15.5241-22.0912-22.5668-33.58-6.353-10.3634-12.3568-20.986-15.5831-32.9482-2.348-8.7061-5.3522-17.24-8.2177-25.8-1.616-4.8269-3.5437-9.5494-5.331-14.319,1.4615-5.6079,2.923-11.2158,4.5965-17.6368,2.9815,4.1517,5.4556,7.48,7.8078,10.8918,11.5393,16.7376,23.1835,33.3244,30.74,52.5087,3.64,9.2419,10.9295,15.6039,21.9233,15.9352,7.5405.2272,13.8291-2.6965,20.3149-6.2382A19.0643,19.0643,0,0,0,584.33,802.9212c2.48-10.2858,3.8174-20.6169,1.4016-31.1411a37.2721,37.2721,0,0,1-.5639-5.868c-1.8711-28.4091-3.6926-56.8215-5.63-85.226-.3066-4.494-1.2644-8.8707-5.3141-11.7915-11.272-8.13-23.4743-9.8236-36.5515-5.2671-2.6109.91-4.1141,2.8161-3.8437,5.7207.4228,4.5411.8235,9.0882,1.4161,13.609,1.86,14.1865,3.8188,28.36,5.7044,42.5433.3787,2.8487.6034,5.7179,1.01,9.6541-1.5809-1.9215-2.4514-2.8751-3.2062-3.9129A221.7417,221.7417,0,0,0,508.34,696.7366a45.5726,45.5726,0,0,0-12.2628-7.4831c-6.8123-2.9792-13.1636-1.8033-17.9626,4.3091a133.87,133.87,0,0,0-9.7329,13.2892c-5.1332,8.5247-9.5277,17.4972-14.7336,25.9739-3.7,6.0256-8.2262,11.5443-12.9963,18.1358-1.4352-5.6049-2.6477-9.9966-3.68-14.43-4.3115-18.5224-8.5307-37.0663-12.8675-55.5827-1.4638-6.25-5.1-11.0015-11.0776-13.4511C409.3132,665.9755,405.301,665.1818,401.4227,664.0612ZM563.76,915.152c.4491,1.4184.8785,4.3663,2.2412,6.7894,4.7758,8.4927,12.3871,13.3926,21.7172,15.5048,10.1072,2.2883,16.8292-9.4684,15.2044-16.1723-2.7845-11.4888-10.7955-17.6836-21.5166-21.3063C569.9916,896.1106,564.5613,905.7928,563.76,915.152Z" transform="translate(-130.2801 -346.507)"/><path class="e" d="M991.5163,826.3815c5.478,6.9949,10.7214,13,15.1948,19.5321,13.4552,19.6483,21.15,41.5435,23.8951,65.1223,2.21,18.9767.2385,37.6876-4.9549,56.04-9.2352,32.6361-27.79,58.7692-55.209,78.66A132.9118,132.9118,0,0,1,916.2851,1069.1c-31.448,5.8721-61.5926,1.6041-89.9757-13.42-5.894-3.12-11.4067-6.9656-17.0526-10.5441a43.1588,43.1588,0,0,1-3.8512-3.1943C896.241,995.2875,957.5832,923.5885,991.5163,826.3815Z" transform="translate(-130.2801 -346.507)"/><path class="c" d="M724.6353,1070.19c7.3656-1.9538,14.4261-3.4417,21.226-5.7109,13.8142-4.61,27.5165-9.5629,41.1937-14.5688a6.1265,6.1265,0,0,1,6.7077.96c7.2672,5.38,14.9042,10.2566,22.28,15.4943,1.5817,1.1231,3.3191,2.7294,3.8895,4.4717q21.6357,66.07,43.0078,132.2271c3.5646,10.9792,7.9593,21.7592,10.5878,32.9558,4.2669,18.1759,2.5084,35.45-12.6308,48.7362-10.3562,9.0883-22.486,10.1428-35.1433,5.9428-12.7807-4.2412-21.8971-13.2533-27.7305-24.9252-4.3-8.6034-6.5487-18.2136-9.9657-27.2794q-30.9859-82.2093-62.0889-164.3745C725.5552,1073.0249,725.2144,1071.9034,724.6353,1070.19Z" transform="translate(-130.2801 -346.507)"/><path class="f" d="M759.6811,977.7571c80.8616-40.2021,131.4142-104.7584,156.6562-191.43,9.8373,3.0824,19.9546,5.2079,29.1266,9.401,10.5467,4.8217,20.26,11.4668,30.3282,17.3332,2.8914,1.6848,3.5333,3.8382,2.4614,7.2181a351.8151,351.8151,0,0,1-180.6884,209.5489c-2.9335,1.4339-4.7355,1.3622-7.0858-1.14a144.2113,144.2113,0,0,1-30.1163-48.5573C760.0909,979.4067,759.9315,978.64,759.6811,977.7571Z" transform="translate(-130.2801 -346.507)"/><path class="g" d="M802.0937,818.9835c28.4775-24.5392,61.6091-35.3434,99.997-33.9408a274.1325,274.1325,0,0,1-35.6842,80.9557c-27.7535,42.7238-64.1036,75.8328-110.9341,98.4852-1.1016-6.2742-2.39-11.7431-2.9818-17.2861-3.8454-36.0374,3.8778-69.3295,24.0538-99.5858a25.3194,25.3194,0,0,1,1.7357-2.097c4.3287.7644,7.6448-.1527,9.0446-4.94.3811-1.3034,1.5788-2.36,2.3643-3.5545q4.9835-7.5765,9.9437-15.168l.0117.031q.4538-.7255.9073-1.4512l.0374-.0476q.3715-.3385.7442-.6769l.1118-.0989Q801.7684,819.2962,802.0937,818.9835Z" transform="translate(-130.2801 -346.507)"/><path class="h" d="M238.0614,761.0759c.7209,6.7224,1.1029,13.5011,2.2121,20.1588,27.51,165.1243,157.1653,297.454,322.8076,333.3,36.5622,7.9123,73.5336,11.04,110.8453,8.3169,13.5654-.99,27.0263-3.5437,40.4978-5.6226,5.4674-.8439,5.7449-.9424,7.4825,4.4981.2.6253.3391,1.2749.5922,1.8772,1.3986,3.3266.6233,5.0561-3.2717,5.4947-13.9606,1.5718-27.853,4.0954-41.8506,4.9358-107.0391,6.4272-203.8442-22.7831-288.5942-87.937C295.9754,974.75,241.2661,880.33,226.3358,763.6118a19.2643,19.2643,0,0,0-.6943-2.591c1.8411-2.4066,3.683-4.8139,5.7459-7.51Z" transform="translate(-130.2801 -346.507)"/><path class="i" d="M401.4227,664.0612c3.8783,1.1206,7.89,1.9143,11.6043,3.4363,5.9772,2.45,9.6138,7.201,11.0776,13.4511,4.3368,18.5164,8.556,37.06,12.8675,55.5827,1.0321,4.4336,2.2446,8.8253,3.68,14.43,4.77-6.5915,9.2959-12.11,12.9963-18.1358,5.2059-8.4767,9.6-17.4492,14.7336-25.9739a133.87,133.87,0,0,1,9.7329-13.2892c4.799-6.1124,11.15-7.2883,17.9626-4.3091a45.5726,45.5726,0,0,1,12.2628,7.4831,221.7417,221.7417,0,0,1,30.4123,34.5051c.7548,1.0378,1.6253,1.9914,3.2062,3.9129-.407-3.9362-.6317-6.8054-1.01-9.6541-1.8856-14.1832-3.8448-28.3568-5.7044-42.5433-.5926-4.5208-.9933-9.0679-1.4161-13.609-.27-2.9046,1.2328-4.8111,3.8437-5.7207,13.0772-4.5565,25.28-2.8629,36.5515,5.2671,4.05,2.9208,5.0075,7.2975,5.3141,11.7915,1.9376,28.4045,3.7591,56.8169,5.63,85.226a37.2721,37.2721,0,0,0,.5639,5.868c2.4158,10.5242,1.0787,20.8553-1.4016,31.1411a19.0643,19.0643,0,0,1-10.0222,13.2182c-6.4858,3.5417-12.7744,6.4654-20.3149,6.2382-10.9938-.3313-18.2832-6.6933-21.9233-15.9352-7.5563-19.1843-19.2005-35.7711-30.74-52.5087-2.3522-3.412-4.8263-6.74-7.8078-10.8918-1.6735,6.421-3.135,12.0289-4.5955,17.6383-1.7572,2.5426-3.6793,4.9871-5.246,7.6413-8.0282,13.6-15.965,27.2548-23.9337,40.89-5.1983,4.8918-10.1757,10.0488-15.6493,14.61-7.2572,6.0474-16.2383,7.1892-25.3038,7.6966q-7.8192-2.5664-15.6395-5.1327l-.0193.1691c-.8894-5.2524-2.0552-10.4759-2.6129-15.7636-1.2769-12.1086-1.9155-24.2915-3.4383-36.3655-2.2108-17.5287-4.933-34.9938-7.5136-52.4748-1.758-11.9093-3.6468-23.7994-5.4772-35.6981-.4049-3.0779-.66-6.1849-1.2517-9.2265-.7921-4.0713.2572-7.17,4.0353-9.14Q394.144,665.9766,401.4227,664.0612Zm47.4364,144.45-.0652.0846c7.1013-6.75,12.2793-14.8371,16.434-23.6357,9.9173-15.7534,18.9978-31.8883,22.957-50.36.7648-2.9442,1.5878-5.8337,5.4882-5.8221.7856,1.0172,1.62,2.0006,2.3491,3.0568q7.9731,11.5536,15.91,23.1319l10.7845,15.85c5.914,11.4947,11.6319,23.0961,17.8119,34.4458,4.0128,7.37,10.1693,10.5973,18.97,8.8869,8.656-1.6823,16.5435-7.9482,18.2309-16.2714.7713-3.8046.6642-7.7872.9557-11.69-.5223-7.812-1.1088-15.62-1.5465-23.4371-.3516-6.28-.5229-12.5692-.7742-18.8544q-1.53-20.5243-3.0594-41.05l.0384-11.78a77.1832,77.1832,0,0,1-1.5276-8.4084c-.3787-5.0559-2.4357-9.17-7.3259-10.5358a130.6956,130.6956,0,0,0-17.5772-3.176c-3.1133-.4231-4.6084,1.5932-4.3432,4.609.4675,5.3151,1.1076,10.6149,1.6755,15.9211q.76,5.72,1.5194,11.4393l3.7125,31.8359,1.3437,17.1516.2433-.0976q-.1916,2.7989-.3832,5.5978c-1.7852-.659-4.0778-.8358-5.254-2.0734a111.8644,111.8644,0,0,1-7.4361-9.5295l-11.1937-15.09c-8.7824-9.6425-17.4233-19.42-26.4208-28.8575a12.3571,12.3571,0,0,0-12.8909-3.6709c-1.68,1.1619-3.9465,1.9587-4.9385,3.55-3.9795,6.3827-7.5641,13.0115-11.2946,19.5493-.7036.9313-1.476,1.8188-2.1,2.8008q-7.7434,12.1866-15.44,24.4031-2.5761,4.0764-5.1467,8.156l-8.8237,11.1419a2.9056,2.9056,0,0,1-4.4849-.8127q-1.8156-7.0819-3.6311-14.1638-3.2406-14.5245-6.4816-29.0488-2.6637-12.1541-5.3272-24.3081c-1.0872-4.5688-2.2824-9.1149-3.2392-13.7108-2.0534-9.8632-13.9015-13.4618-21.5982-11.0189-2.8988.92-4.1233,2.6475-3.6874,5.543,1.5556,10.3322,3.163,20.6567,4.7508,30.9841q1.1411,9.4215,2.2822,18.8431l5.3,34.6527,2.1129,17.96c.9247,8.704,1.4512,17.4762,2.9255,26.086.8642,5.0463,3.1632,9.8628,5.01,14.7089a3.3268,3.3268,0,0,0,2.4563,1.6467,70.8957,70.8957,0,0,0,7.3341-.22c10.3321-.4879,17.7013-6.4178,24.5149-13.3639Q448.4193,809.036,448.8591,808.5109Z" transform="translate(-130.2801 -346.507)"/><path class="g" d="M711.4011,856.6961c10.3811.3677,19.6164,2.1467,27.2543,8.4488a44.3868,44.3868,0,0,1,7.1848,8.2345c.6444.8817.4711,2.7563.0525,3.96a152.71,152.71,0,0,0-8.3461,59.233c.5158,9.1182,2.0558,18.1984,3.4958,27.2376.96,6.0278.9674,6.9876-4.7625,8.7237-12.9073,3.9106-25.9279,7.4458-38.87,11.244-2.1691.6366-3.09-.0845-3.8257-1.9893-10.1126-26.1829-20.2986-52.3375-30.3188-78.5556-.6364-1.6651-.2523-3.82-.0123-5.7048,2.7079-21.2607,21.1992-36.9384,41.4748-40.0951C707.1837,857.051,709.673,856.8829,711.4011,856.6961Z" transform="translate(-130.2801 -346.507)"/><path class="j" d="M238.0614,761.0759l-6.674-7.5653c-2.0629,2.6963-3.9048,5.1036-5.7459,7.51-13.6257,18.4445-27.3582,36.8129-40.8114,55.3837-3.8337,5.292-7.0067,10.6909-13.1525,14.1372-6.5325,3.663-21.07,2.6935-26.7348-4.69-2.0388-2.6573-2.4711-8.1308-1.2371-11.4185a247.2978,247.2978,0,0,1,13.1073-28.8241c8.1374-15.3478,16.8552-30.3886,25.3906-45.5237a62.7843,62.7843,0,0,1,6.0441-9.62c11.7585-14.0625,23.7188-27.9561,35.6034-41.9131.5934-.6968,1.1461-1.4283,1.7181-2.1449,1.1538-1.0332,2.4007-1.9792,3.4431-3.1132,3.1171-3.3907,6.154-6.855,9.2222-10.2906,1.6879-.2461,3.371-.5342,5.0647-.7305,4.7889-.5549,8.81.97,10.7359,5.4845,3.9425,9.2451,7.49,18.6587,11.2026,28.0018,2.059,5.1813,4.1233,10.3605,6.3762,16.02,13.9377-12.0509,27.3063-23.61,40.6738-35.166,6.72-4.575,13.5567-8.9927,20.1284-13.7752a64.6439,64.6439,0,0,1,21.644-9.9867,11.5717,11.5717,0,0,1,11.9344,3.167,20.9405,20.9405,0,0,1,6.3561,12.7914c1.4975,15.0494,2.509,30.0848-1.7446,44.9458a43.9136,43.9136,0,0,0-1.1844,8.9586q-2.9172,41.43-5.7154,82.8679c-.2084,3.0909.3031,6.27-.2208,9.2865a11.65,11.65,0,0,1-3.0234,6.0708c-7.6743,7.4217-16.6088,12.3105-27.6434,12.34-1.9218-.3155-3.8416-.6442-5.7658-.9441-7.3606-1.147-10.5194-6.9657-8.1741-14.0725,1.6946-5.1347,2.6346-10.5185,3.9111-15.79a19.7357,19.7357,0,0,0,.602-2.638c1.3064-14.2139,2.7509-28.4181,3.8092-42.6508.7409-9.9631,1.5274-19.99-1.1058-30.3658l-14.6346,11.0062c-11.2828,9.3408-22.9135,18.2993-33.734,28.148-8.1073,7.3791-20.4379,7.7234-27.4505-.4957Q244.1479,768.2942,238.0614,761.0759Zm94.2841,38.5751c-1.1061,10.0926-.7957,20.419-5.4668,29.9014-1.0651,2.1622-.2739,4.3735,2.6677,4.3511,4.2484-.0325,8.758.44,12.6761-.8087,5.1562-1.6434,10.6564-4.2173,11.71-10.4681,1.2564-7.4531,1.7635-15.0325,2.5953-22.5572q1.1984-9.7882,2.3969-19.5765c.3188-5.3218.6081-10.6455.9621-15.9649q1.4784-22.2175,3-44.4321,1.09-12.9053,2.1812-25.81c-.2477-4.5677-.2316-9.1683-.7969-13.6963-1.2531-10.0338-8.6067-13.6526-17.1965-8.16-10.243,6.5495-20.1422,13.6368-30.19,20.4912L300.716,705.9184l-16.002,13.215c-2.73,2.5545-5.4141,5.1607-8.2054,7.6464-2.09,1.861-4.318,3.5669-6.4846,5.3418-.9128-.9012-2.2135-1.6374-2.6777-2.7293-4.0362-9.4952-7.9439-19.0454-11.8449-28.5976-2.27-5.5576-3.9914-11.3982-6.8085-16.6567-2.987-5.5757-4.2251-5.4254-8.6593-.9988-1.2064,1.2043-2.4405,2.3825-3.6105,3.6212q-9.8356,10.4119-19.6427,20.85l-13.2146,16.3161c-6.3124,7.127-12.119,14.5945-15.81,23.486l-15.4223,27.22c-.9033,1.4366-1.9382,2.808-2.6889,4.32-5.7616,11.6073-11.5263,23.2139-17.1538,34.8865a6.3443,6.3443,0,0,0,2.3046,8.3557c2.9386,2.0359,6.6731,3.5642,9.8857.916,5.6435-4.652,11.4573-9.2992,16.1757-14.8231,6.7085-7.8535,12.4909-16.4981,18.6706-24.8062l11.2479-15.996c5.5078-7.296,10.9659-14.63,16.5706-21.8513.97-1.2493,2.56-2.0169,3.8639-3.007l5.3558,3.6256q4.1911,5.21,8.3838,10.4158,3.2964,3.8731,6.593,7.7462c1.1061,1.4518,2.1229,2.9832,3.3338,4.3416,5.4993,6.1684,9.5116,6.71,16.4053,2.2444a38.8612,38.8612,0,0,0,3.7654-2.8233c4.3146-3.6068,8.5228-7.3445,12.905-10.8662,11.3058-9.086,22.683-18.0832,34.03-27.1167l7.25-6.6836q1.5965-.048,3.1945-.0974.9376,4.6881,1.8754,9.3762c.3344,6.8013,1.0262,13.6082.9192,20.4025-.1588,10.0839-.8833,20.1589-1.3678,30.2389Z" transform="translate(-130.2801 -346.507)"/><path class="i" d="M758.7881,720.9786c1.3706,9.4561,3.163,18.8739,4.0276,28.376,2.0555,22.59,4.6931,45.1957,1.3837,67.9142-.9494,6.5181-4.4838,9.65-11.8328,10.1-13.9581.8541-24.1914-8.6334-24.32-22.7427-.1318-14.4377.4064-28.9-.2558-43.3092-.74-16.1019-2.5-32.1569-3.8158-48.2322-.3327-.4942-.5731-1.3084-1.0117-1.4347-6.734-1.94-13.4938-3.7908-20.2475-5.6622l.04.0164-2.36-.7165q-9.2526-3.2005-18.5052-6.4012l-2.0412-.8965.14.0052c-7.8223-4.57-11.0309-11.719-9.1759-20.4449,1.1686-5.4965,5.1044-8.9782,10.6258-8.3637,21.2367,2.3638,42.4282.9649,63.6467-.1472a232.9447,232.9447,0,0,1,23.9809-.0988c7.32.3721,12.9734,4.1807,17.2848,10.1934,6.5316,9.1093-1.2851,23.103-11.0012,25.8545-4.986,1.4119-10.28,1.7407-15.44,2.5305-.8929.1367-1.8076.1309-2.8774.202C757.6332,712.2549,758.2106,716.6167,758.7881,720.9786ZM748.82,676.3238l-25.503,1.3972q-22.43,0-44.859.0052c-.6668,9.778.8954,12.0523,10.0771,14.721,1.2525.364,2.4815.809,3.7251,1.2046q16.9806,5.4012,33.9629,10.798c2.3978.64,4.1256,1.8914,4.2289,4.6277q2.4553,25.0832,4.9112,50.1658l.5152,16.9441c-.0161,9.82-.1926,19.6438.0124,29.4595.121,5.7943,2.62,10.85,8.4456,12.44,8.9338,2.4383,12.5581.6309,12.7913-7.0322.1976-6.495.1485-13.0029.0126-19.501-.1392-6.6577-.5168-13.31-.79-19.9652q-.4245-7.9345-.8487-15.869c-1.0459-5.6075-2.3423-11.1821-3.0818-16.83-1.2634-9.65-2.1778-19.3451-3.2388-29.0215-.2369-2.6924-1.6126-6.25-.4024-7.8425,1.3057-1.7175,5.031-1.5954,7.7009-2.2757,4.0339-.3087,8.1318-.274,12.0866-1.0087,5.5815-1.0367,10.086-4.1036,11.8968-9.68,1.3977-4.3051-1.15-7.7348-4.4292-10.1086a14.1481,14.1481,0,0,0-7.1861-2.7035C762.1874,675.9419,755.4981,676.256,748.82,676.3238Z" transform="translate(-130.2801 -346.507)"/><path class="k" d="M655.2033,690.44a107.2583,107.2583,0,0,1,5.9334,43.25c-1.3093,20.5525-1.9006,41.1423-1.1653,61.7513a95.1383,95.1383,0,0,1-.69,12.19c-.9114,9.7378-6.8637,15.6428-16.43,17.71-5.1281,1.1084-10.1005,2.6916-14.7047-.6564a17.3447,17.3447,0,0,1-5.6749-6.5377c-7.5089-17.15-7.6634-35.3883-7.8954-53.7083-.249-19.6711-1.374-39.3315-2.1388-58.9956-.4424-11.3756-2.1642-22.798,1.3458-34.0157,3.1423-5.7949,7.1632-7.44,13.6163-5.9507a33.3163,33.3163,0,0,1,21.8923,15.78c1.6876,2.7821,3.5422,5.4628,5.32,8.19l.597.9739Zm-3.0725,94.4136-.8385-12.3336a46.6487,46.6487,0,0,1-.28-5.397c.8551-14.2693,1.7842-28.5341,2.6912-42.8061L651.63,709.1437c-.2436-12.1582-6.1734-21.7881-14.2647-30.0769-2.6569-2.7219-6.8616-4.1932-10.6136-5.5095-3.4647-1.2155-6.462,1.1984-6.937,4.7993a97.5292,97.5292,0,0,0,.95,30.0706q.79,8.2074,1.58,16.4149.3841,25.6137.7674,51.2292l.0117,8.882c-1.1078,10.5429,1.5832,20.2262,6.4383,29.4948,1.4611,2.7892,3.6252,4.2353,6.5262,4.14,7.1938-.2366,14.1242-2.9875,15.2341-11.7792C652.2364,799.5717,651.9085,792.178,652.1308,784.8537Z" transform="translate(-130.2801 -346.507)"/><path class="l" d="M311.4606,747.8247l14.6346-11.0062c2.6332,10.3761,1.8467,20.4027,1.1058,30.3658-1.0583,14.2327-2.5028,28.4369-3.8092,42.6508a19.7357,19.7357,0,0,1-.602,2.638A349.94,349.94,0,0,1,311.4606,747.8247Z" transform="translate(-130.2801 -346.507)"/><path class="m" d="M238.2345,673.0036c-3.0682,3.4356-6.1051,6.9-9.2222,10.2906-1.0424,1.134-2.2893,2.08-3.4431,3.1132,1.6171-12.4817,3.1229-24.9809,4.927-37.4368.4767-3.2912,3.0353-4.8171,6.4115-4.4087,3.1337.3792,5.0573,3.0035,4.5745,6.64C240.5155,658.4847,239.33,665.7382,238.2345,673.0036Z" transform="translate(-130.2801 -346.507)"/><path class="n" d="M799.6327,821.8525q-4.97,7.5854-9.9437,15.168c-.7855,1.1944-1.9832,2.2511-2.3643,3.5545-1.4,4.787-4.7159,5.7041-9.0446,4.94A81.823,81.823,0,0,1,799.6327,821.8525Z" transform="translate(-130.2801 -346.507)"/><path class="n" d="M800.5517,820.4323q-.4536.7257-.9073,1.4512Q800.0977,821.158,800.5517,820.4323Z" transform="translate(-130.2801 -346.507)"/><path class="d" d="M655.2093,690.4217l-.597-.9739Z" transform="translate(-130.2801 -346.507)"/><path class="n" d="M801.3333,819.7078q-.3723.3384-.7442.6769Q800.9618,820.0463,801.3333,819.7078Z" transform="translate(-130.2801 -346.507)"/><path class="n" d="M802.0937,818.9835q-.3247.3127-.6486.6254Q801.77,819.2963,802.0937,818.9835Z" transform="translate(-130.2801 -346.507)"/><path class="m" d="M444.06,1187.3124c-7.2582-3.392-14.0782-6.69-21.0331-9.6743-.784-.3365-2.8883.7933-3.433,1.771-3.64,6.5332-7.0327,13.2043-10.4835,19.8422-1.5138,2.9121-3.3623,5.1109-7.1148,3.7514a6.8289,6.8289,0,0,1-4.4919-8.2,71.7524,71.7524,0,0,1,4.8363-13.27c6.4942-13.0513,13.3283-25.9331,19.9939-38.8994.959-1.8655,1.6861-3.8486,2.5738-5.7525,1.7286-3.7075,4.9256-5.307,8.2718-4.1842a6.5348,6.5348,0,0,1,3.8426,8.73c-2.4939,6.4887-5.4437,12.8023-8.218,19.1826-.5153,1.1851-1.1063,2.3374-1.7633,3.7168l22.8554,10.3246q3.8515-7.5851,7.7393-15.2478c.7707-1.5229,1.4077-3.1235,2.2859-4.58a6.2178,6.2178,0,0,1,7.7587-3.0169c3.0379.9439,4.6611,4.1607,3.9568,7.6791a17.9638,17.9638,0,0,1-1.3049,3.6983q-11.6055,26.0982-23.289,52.1615a21.7191,21.7191,0,0,1-3.5822,5.5948,6.4367,6.4367,0,0,1-8.2527,1.5407c-3.178-1.685-4.228-4.6492-3.3892-8.0512a33.6365,33.6365,0,0,1,2.3622-5.8228C437.3493,1201.7127,440.5631,1194.8394,444.06,1187.3124Z" transform="translate(-130.2801 -346.507)"/><path class="m" d="M556.6139,1245.0963c-2.8433,1.592-5.53,3.6047-8.5492,4.6928a18.284,18.284,0,0,1-23.5755-11.417,48.2661,48.2661,0,0,1-2.4776-14.6394,230.8748,230.8748,0,0,1,1.19-23.9609c.5864-6.43,3.6091-9.3816,7.9236-8.7164,4.1518.64,5.4121,3.8572,5.092,10.3476-.4259,8.6346-.5,17.2991-.3421,25.9438.0632,3.46.5081,7.57,4.7464,8.6182,4.4177,1.0918,6.6759-2.4673,8.5629-5.5807,4.6989-7.7533,6.8588-16.4059,8.3389-25.2613.279-1.6685.31-3.7815,1.3343-4.8315a13.6,13.6,0,0,1,6.2215-3.9085c2.958-.6606,5.4426,1.2807,6.34,4.1627a19.5407,19.5407,0,0,1,.6795,6.9316c-.4984,7.72-1.5876,15.4181-1.7337,23.138-.0736,3.8863,1.18,7.8623,2.2389,11.6853.8986,3.2442.6824,6.0311-1.9166,8.2362a6.56,6.56,0,0,1-8.7134.3032C559.9452,1249.3131,558.4363,1247.0954,556.6139,1245.0963Z" transform="translate(-130.2801 -346.507)"/><path class="o" d="M646.1534,1233.0971c2.2717.91,4.59,2.6808,6.8059,2.561a79.44,79.44,0,0,0,16.5361-2.4137c5.129-1.3985,8.92-1.1033,10.7244,2.3651,1.9484,3.7447.2321,8.4019-4.5157,10.7555a39.5993,39.5993,0,0,1-31.7355,2.0334c-9.09-3.2528-13.3967-11.17-14.9226-20.2944-1.86-11.1217-1.5405-21.9158,8.3685-29.8178,4.7531-3.7905,10.0924-6.3363,16.3447-5.4788,13.2641,1.819,19.6089,17.9178,10.8465,28.4787-3.0176,3.6369-7.8778,5.8136-12.0683,8.376-1.7321,1.059-3.9162,1.3787-5.8947,2.0347Zm-2.7813-13.7774c3.4075-1.7891,6.8336-3.0872,9.5666-5.258,1.1658-.9262,1.1453-3.6833,1.08-5.5883-.0167-.4845-2.3862-1.4642-3.4691-1.2369C645.6244,1208.27,642.5908,1213.1493,643.3721,1219.32Z" transform="translate(-130.2801 -346.507)"/><path class="h" d="M463.2073,1213.2149c-1.09-13.6715,9.6347-29.0057,22.6028-31.6852,12.1226-2.5047,22.8792,4.7622,26.5388,17.76,3.2442,11.5217-1.929,27.3517-11.38,34.3581-6.9685,5.1662-14.5766,7.3675-22.9016,3.7923-8.4321-3.6211-12.7889-10.5171-14.33-19.3566C463.491,1216.6649,463.42,1215.2162,463.2073,1213.2149Zm35.5714-5.06a39.7691,39.7691,0,0,0-.7459-5.4012c-2.1033-7.6218-8.6663-9.5071-14.2923-3.9545-5.2333,5.1651-7.1066,11.5312-5.1343,18.7193,2.0168,7.35,8.754,9.1909,14.1577,3.8736C496.409,1217.8054,498.8957,1213.5789,498.7787,1208.1548Z" transform="translate(-130.2801 -346.507)"/><path class="m" d="M609.3566,1235.6041c-3.3714-1.5306-6.71-3.14-10.1235-4.57-3.4873-1.461-7.3679-2.2365-10.5138-4.209-7.726-4.8448-9.446-13.9521-4.5879-21.664,5.5046-8.7383,16.6482-12.4611,24.9709-8.3426,3.7234,1.8426,5.47,5.3474,4.3226,8.6727-1.1857,3.4354-4.4741,4.8168-8.755,3.67a7.333,7.333,0,0,0-1.8866-.5252c-1.1489.0262-2.6189-.122-3.3705.504a34.257,34.257,0,0,0-3.9487,4.5493c1.4564.94,2.7994,2.3644,4.3885,2.7359,7.399,1.73,14.3419,4.2242,19.8593,9.7489,5.665,5.6724,6.3821,13.4,1.3668,19.5635-4.5887,5.639-10.6483,9.5425-18.0035,8.9631a62.4735,62.4735,0,0,1-17.717-4.3753c-5.3444-2.1093-6.8676-6.8978-4.7125-10.8212,2.0821-3.7906,6.06-4.1943,11.4213-2.0678a38.9722,38.9722,0,0,0,11.339,2.4971c1.8755.14,3.885-1.5143,5.8338-2.3564Z" transform="translate(-130.2801 -346.507)"/><path class="h" d="M247.8665,980.9679c-.4307,16.1354-13.63,32.32-30.3414,37.3853-7.8347,2.3749-15.651,3.043-23.6441.8571-16.0321-4.3844-25.0054-19.3785-21.2278-35.6044,5.2958-22.7477,31.7078-38.1491,53.872-31.414C239.7723,956.2173,248.223,967.612,247.8665,980.9679ZM203.18,1005.8847c11.4.4752,23.8853-7.3329,28.4217-17.7748,4.8934-11.2637-1.1924-21.5818-13.4061-22.7289-11.3342-1.0645-23.8086,5.6672-29.1945,15.7546C182.2248,993.8278,188.7886,1005.2848,203.18,1005.8847Z" transform="translate(-130.2801 -346.507)"/><path class="h" d="M219.7512,1055.075c-5.2341,4.532-10.0743,8.7365-14.9323,12.92a49.25,49.25,0,0,1-4.2663,3.4778,7.3089,7.3089,0,0,1-9.6651-.8674,7.102,7.102,0,0,1,.2832-9.682c3.023-3.08,6.4191-5.8,9.7073-8.6135q18.99-16.2476,38.0068-32.4642c2.5813-2.2111,5.2024-4.2691,8.807-2.56,3.5637,1.69,3.9725,4.883,3.464,8.26,3.1442,1.2259,6.3342,2.1231,9.1874,3.65a18.0851,18.0851,0,0,1,9.404,19.8984c-2.1512,11.5776-13.8868,22.7232-25.6287,24.34-8.9655,1.2347-17.1847-3.4984-21.6332-12.4853C221.6159,1059.1932,220.8283,1057.3961,219.7512,1055.075Zm24.6626-16.1686c-8.6811.7679-15.3,3.3606-9.859,13.3161.6889,1.26,1.2716,2.5834,2.0238,3.8033,1.5987,2.5929,4.1606,3.6681,6.7512,2.35,3.4277-1.7444,7.1392-3.6532,9.5718-6.4852,5.6128-6.5342,3.7739-10.9066-4.6518-12.5012C246.8411,1039.1227,245.4,1039.0272,244.4138,1038.9064Z" transform="translate(-130.2801 -346.507)"/><path class="h" d="M340.948,1100.166h3.647c16.7727.0009,25.8426,11.2789,21.7252,27.5528-3.3157,13.1055-10.1249,24.45-19.1645,34.4286-3.3282,3.6741-7.8175,4.06-10.8377,1.3368-3.1523-2.8424-2.901-6.788-.0707-10.9782,4.7549-7.04,9.3668-14.2,13.5789-21.5719,1.5706-2.7486,2.1982-6.1871,2.635-9.3955.5848-4.2957-1.3884-6.5771-5.6995-6.6885a20.4283,20.4283,0,0,0-7.71,1.1967c-9.4978,3.665-17.6368,9.212-23.3839,17.8837-2.9736,4.487-7.1368,5.723-10.6591,3.4205-3.57-2.3332-4.4845-7.2832-1.3427-11.5338,5.4563-7.3818,11.3863-14.4131,17.1033-21.6027,3.02-3.7977,5.879-7.7328,9.0585-11.39a6.38,6.38,0,0,1,7.9271-1.6039c2.964,1.4045,3.9595,4.0263,3.3377,7.25A17.0045,17.0045,0,0,0,340.948,1100.166Z" transform="translate(-130.2801 -346.507)"/><path class="h" d="M274.4682,1085.6871c-2.7833,6.5158-.7736,12.85,5.0352,15.8282a60.2632,60.2632,0,0,0,9.5382,3.6c4.6792,1.4646,7.23,4.5832,6.5648,8.4273-.6663,3.85-4.3244,6.5338-8.9617,5.7346-15.1906-2.618-27.27-11.0464-28.1476-27.4464a26.474,26.474,0,0,1,1.2795-9.272c4.2081-13.1439,24.0306-24.8879,37.5845-22.5053,9.0223,1.5859,15.6551,8.86,15.9039,17.4409a15.0465,15.0465,0,0,1-13.8807,15.7653,34.5716,34.5716,0,0,1-21.7426-5.4669C276.6572,1087.1788,275.7063,1086.5108,274.4682,1085.6871Zm11.5032-9.1222q-.0091.6-.018,1.2c3.1343.6763,6.2457,1.54,9.4154,1.9288,1.137.1395,2.4147-.8673,3.6281-1.351-.93-1.2535-1.6147-3.198-2.8355-3.6309C292.5288,1073.4244,289.1085,1074.6545,285.9714,1076.5649Z" transform="translate(-130.2801 -346.507)"/><path class="p" d="M949.6631,592.47c-.71,2.1035-1.1978,6.5936-3.51,9.7462-4.3188,5.8886-13.5335,4.4463-17.8359-2.839a90.6219,90.6219,0,0,1-8.77-18.8405,282.3429,282.3429,0,0,0-28.9819-63.1948c-2.1808-3.5787-4.85-6.8564-7.1285-10.38-2.4011-3.7133-2.1539-6.494.5227-9.2724,2.7255-2.8292,6.2987-3.6011,9.5739-.88a209.7143,209.7143,0,0,1,16.9881,15.7836c12.4512,12.9245,23.1982,27.0894,30.7257,43.5474C946.2428,567.0618,948.4354,578.5832,949.6631,592.47Z" transform="translate(-130.2801 -346.507)"/><path class="q" d="M384.0924,686.253c1.83,11.8987,3.7192,23.7888,5.4772,35.6981,2.5806,17.481,5.3028,34.9461,7.5136,52.4748,1.5228,12.074,2.1614,24.2569,3.4383,36.3655.5577,5.2877,1.7235,10.5112,2.6129,15.7636-.76-.8954-1.8407-1.6693-2.2319-2.7039a306.1924,306.1924,0,0,1-15.0779-56.9363,292.1027,292.1027,0,0,1-2.26-78.7919A10.8778,10.8778,0,0,1,384.0924,686.253Z" transform="translate(-130.2801 -346.507)"/><path class="p" d="M868.297,481.3929c-.04,8.0868-7.9776,13.7655-15.38,10.2538-4.3473-2.0623-8.2144-5.5639-11.6072-9.0836-3.019-3.1318-3.3883-7.4223-1.0419-11.349,2.5826-4.3219,6.5186-7.0431,11.6185-6.9322C859.545,464.4485,868.3338,473.8738,868.297,481.3929Z" transform="translate(-130.2801 -346.507)"/><path class="r" d="M459.7463,809.2119c7.9687-13.6356,15.9055-27.29,23.9337-40.89,1.5667-2.6542,3.4888-5.0987,5.246-7.6413,1.7863,4.7681,3.714,9.4906,5.33,14.3175,2.8655,8.5594,5.87,17.0937,8.2177,25.8,3.2263,11.9622,9.23,22.5848,15.5831,32.9482,7.0427,11.4885,14.8729,22.5026,22.5668,33.58,3.2668,4.7034,7.4508,8.7937,10.5034,13.6153,3.0633,4.8386,2.0148,10.6462-2.0725,13.78-4.1632,3.1924-9.4235,4.5368-14.5471.8581-7.66-5.4992-15.4708-10.8356-22.7395-16.8216-19.8948-16.3841-35.35-36.4491-47.5246-59.0787C462.4512,816.3475,461.231,812.7085,459.7463,809.2119Z" transform="translate(-130.2801 -346.507)"/><path class="r" d="M563.76,915.152c.8009-9.3592,6.2312-19.0414,17.6462-15.1844,10.7211,3.6227,18.7321,9.8175,21.5166,21.3063,1.6248,6.7039-5.0972,18.4606-15.2044,16.1723-9.33-2.1122-16.9414-7.0121-21.7172-15.5048C564.6389,919.5183,564.21,916.57,563.76,915.152Z" transform="translate(-130.2801 -346.507)"/><path class="q" d="M702.7156,705.9876c6.7537,1.8714,13.5135,3.722,20.2475,5.6622.4386.1263.679.94,1.0117,1.4347Q713.3452,709.5358,702.7156,705.9876Z" transform="translate(-130.2801 -346.507)"/><path class="q" d="M700.3956,705.2875l2.36.7165Z" transform="translate(-130.2801 -346.507)"/><path class="a" d="M679.8492,697.99l2.0412.8965Q680.87,698.4382,679.8492,697.99Z" transform="translate(-130.2801 -346.507)"/><path class="s" d="M578.6849,786.1884c-.2913,3.9019-.1842,7.8845-.9555,11.6891-1.6874,8.3232-9.5749,14.5891-18.2309,16.2714-8.8,1.71-14.9569-1.5174-18.97-8.8869-6.18-11.35-11.8979-22.9511-17.81-34.4464,6.7027-6.7838,13.33-13.5839,13.6215-24.0414.0281-1.0059,1.0757-1.9834,1.65-2.9741a111.7434,111.7434,0,0,0,7.436,9.53c1.1762,1.2376,3.4688,1.4144,5.255,2.0758a52.3989,52.3989,0,0,1,3.55,4.6459A55.5083,55.5083,0,0,0,568.4634,776.06C572.2651,778.91,575.3041,782.7771,578.6849,786.1884Z" transform="translate(-130.2801 -346.507)"/><path class="t" d="M447.9793,809.5608c-6.8136,6.9461-14.1828,12.876-24.5149,13.3639a70.8957,70.8957,0,0,1-7.3341.22,3.3268,3.3268,0,0,1-2.4563-1.6467c-1.847-4.8461-4.146-9.6626-5.01-14.7089-1.4743-8.61-2.0008-17.382-2.9261-26.0867,9.76-5.3961,20.6637-8.6454,29.5211-15.7347a2.9041,2.9041,0,0,0,4.4839.8167c2.15,5.1392,4.55,10.1893,6.3855,15.437,2.3508,6.721,5.0664,13.4523,3.5792,20.8816-.4281,2.1393-.6156,4.3269-.9135,6.4923l.0652-.0845Z" transform="translate(-130.2801 -346.507)"/><path class="s" d="M448.5657,754.6414q2.5733-4.0779,5.1468-8.1559,7.7135-12.2057,15.44-24.4031c.6238-.982,1.3962-1.87,2.1008-2.7992,3.3445,3.0665,6.6758,6.1449,10.0357,9.1917,2.2774,2.0652,4.595,4.0859,6.8947,6.1265-3.9578,18.47-13.0383,34.605-22.9554,50.3589-3.6741-.8589-5.5266-3.2447-6.7-6.812-1.7262-5.25-3.98-10.3323-6.1261-15.4369C451.2494,759.9685,449.8526,757.3281,448.5657,754.6414Z" transform="translate(-130.2801 -346.507)"/><path class="t" d="M511.9324,754.9662q-7.9512-11.5686-15.91-23.1319c-.7289-1.0562-1.5635-2.04-2.35-3.0565-.202-1.2876-.4115-2.5744-.604-3.8636-1.4424-9.6587-8.498-18.2267-5.5834-28.7318a12.3571,12.3571,0,0,1,12.8909,3.6709c8.9975,9.4375,17.6384,19.215,26.4216,28.8582-2.51,7.06-4.8672,14.1789-7.6024,21.15A7.82,7.82,0,0,1,511.9324,754.9662Z" transform="translate(-130.2801 -346.507)"/><path class="t" d="M425.145,721.7578q3.24,14.5245,6.48,29.0492a57.5339,57.5339,0,0,1-7.0158,1.6438c-5.8291.6471-11.0946,2.2621-15.3649,6.62-1.5294,1.5607-3.7264,2.4673-5.6186,3.6724q-2.65-17.3263-5.3-34.6528a32.3874,32.3874,0,0,1,15.239-9.6886C418.4041,716.9006,422.2288,717.3637,425.145,721.7578Z" transform="translate(-130.2801 -346.507)"/><path class="t" d="M549.4769,732.7519q-1.8562-15.918-3.7127-31.8363c4.4273-.59,8.9119-1.9117,13.267-1.5723,4.8194.3755,9.52,2.271,14.273,3.5045q1.53,20.5244,3.0607,41.05c-1.6258-.3312-3.7532-.121-4.7962-1.0846C565.2721,736.9953,557.1918,735.3148,549.4769,732.7519Z" transform="translate(-130.2801 -346.507)"/><path class="u" d="M549.4769,732.7519c7.7149,2.5629,15.7952,4.2434,22.0918,10.0611,1.043.9636,3.17.7534,4.7962,1.0846.2508,6.2841.4221,12.5737.7737,18.8533.4377,7.8167,1.0242,15.6251,1.5464,23.4373-3.3809-3.4111-6.42-7.2785-10.2216-10.1281a55.5083,55.5083,0,0,1-14.2319-16.0081,52.3989,52.3989,0,0,0-3.55-4.6459q.19-2.8025.3822-5.6l-.2433.0976Z" transform="translate(-130.2801 -346.507)"/><path class="s" d="M396.0433,709.2474c-1.5878-10.3274-3.1952-20.6519-4.7508-30.9841-.4359-2.8955.7886-4.623,3.6874-5.543,7.6967-2.4429,19.5448,1.1557,21.5982,11.0189.9568,4.5959,2.152,9.142,3.238,13.712-2.6593,2.5491-4.906,6.0181-8.0708,7.4319C406.84,707.0742,401.309,707.8637,396.0433,709.2474Z" transform="translate(-130.2801 -346.507)"/><path class="s" d="M544.245,689.4767c-.5679-5.3062-1.208-10.606-1.6755-15.9211-.2652-3.0158,1.23-5.0321,4.3432-4.609a130.6956,130.6956,0,0,1,17.5772,3.176c4.89,1.366,6.9472,5.48,7.3259,10.5358a77.1657,77.1657,0,0,0,1.5277,8.4085c-4.264-.0459-8.5517-.3942-12.7863-.0631C554.9889,691.4393,549.43,692.7718,544.245,689.4767Z" transform="translate(-130.2801 -346.507)"/><path class="u" d="M448.5658,754.6415c1.2868,2.6866,2.6836,5.327,3.8366,8.07,2.146,5.1046,4.4,10.1867,6.1261,15.4369,1.173,3.5673,3.0255,5.9531,6.7,6.812-4.1549,8.7981-9.3329,16.8853-16.4342,23.6352.2979-2.1654.4854-4.353.9135-6.4923,1.4872-7.4293-1.2284-14.1606-3.5792-20.8816-1.8355-5.2477-4.2357-10.2978-6.3855-15.4369Q444.1536,760.2117,448.5658,754.6415Z" transform="translate(-130.2801 -346.507)"/><path class="v" d="M403.6254,762.7432c1.8922-1.2051,4.0892-2.1117,5.6186-3.6724,4.27-4.3579,9.5358-5.9729,15.3649-6.62a57.5339,57.5339,0,0,0,7.0158-1.6438q1.8177,7.0816,3.6333,14.1623c-8.8566,7.0879-19.7606,10.3372-29.52,15.7333Q404.6822,771.7236,403.6254,762.7432Z" transform="translate(-130.2801 -346.507)"/><path class="u" d="M511.9324,754.9662a7.82,7.82,0,0,0,7.2629-5.1049c2.7352-6.9709,5.0924-14.09,7.6024-21.15q5.5958,7.544,11.1929,15.0889c-.5743.99-1.6219,1.9679-1.65,2.9738-.2919,10.4575-6.9188,17.2576-13.6215,24.0414Q517.3236,762.8916,511.9324,754.9662Z" transform="translate(-130.2801 -346.507)"/><path class="u" d="M487.4852,696.1824c-2.9146,10.5051,4.141,19.0731,5.5834,28.7318.1925,1.2892.402,2.576.604,3.8636-3.9-.0119-4.7229,2.8776-5.4884,5.8227-2.3-2.04-4.618-4.06-6.8954-6.1256-3.36-3.0468-6.6912-6.1252-10.0357-9.1917,3.7295-6.5394,7.3141-13.1682,11.2936-19.5509C483.5387,698.1411,485.8047,697.3443,487.4852,696.1824Z" transform="translate(-130.2801 -346.507)"/><path class="w" d="M396.0433,709.2474c5.2657-1.3837,10.7969-2.1732,15.702-4.3643,3.1648-1.4138,5.4115-4.8828,8.0708-7.4319q2.6653,12.1522,5.3286,24.3067c-2.9159-4.3942-6.7406-4.8573-11.58-3.3561a32.3874,32.3874,0,0,0-15.239,9.6886Q397.1844,718.6689,396.0433,709.2474Z" transform="translate(-130.2801 -346.507)"/><path class="w" d="M544.245,689.4767c5.1851,3.2951,10.7439,1.9626,16.3122,1.5271,4.2346-.3311,8.5223.0172,12.7863.0631q-.0193,5.89-.0389,11.78c-4.7529-1.233-9.454-3.1285-14.2734-3.504-4.3551-.3394-8.84.9825-13.267,1.5723Q545.0047,695.1965,544.245,689.4767Z" transform="translate(-130.2801 -346.507)"/><path class="u" d="M447.9793,809.5608l.88-1.05Z" transform="translate(-130.2801 -346.507)"/><path class="s" d="M216.778,707.6091q9.82-10.4266,19.6451-20.8487c1.17-1.2387,2.4041-2.4169,3.6105-3.6212,4.4342-4.4266,5.6723-4.5769,8.6593.9988,2.8171,5.2585,4.5389,11.0991,6.8085,16.6567,3.901,9.5522,7.8087,19.1024,11.8449,28.5976.4642,1.0919,1.7649,1.8281,2.6772,2.73-.2726,3.4644-.8476,6.5572-5.4522,6.6054-.9416.01-1.9524,1.1892-2.7912,1.9785q-8.448,7.95-16.8327,15.9668-4.1911-5.21-8.3814-10.4194c2.3618-4.4811,4.7228-8.9618,7.2826-13.82-10.651-3.8158-16.9989-12.7635-24.7222-20.0244C217.9125,711.2676,217.54,709.2315,216.778,707.6091Z" transform="translate(-130.2801 -346.507)"/><path class="t" d="M284.714,719.1334q8.001-6.6075,16.0023-13.2146c1.9011,1.5748,4.0971,2.9034,5.649,4.7681,5.3278,6.4017,10.43,12.9912,15.6179,19.5092-11.3487,9.0326-22.7259,18.03-34.0317,27.1158-4.3822,3.5217-8.59,7.2594-12.905,10.8662a38.8612,38.8612,0,0,1-3.7654,2.8233c-6.8937,4.4653-10.906,3.924-16.4053-2.2444-1.2109-1.3584-2.2277-2.89-3.3329-4.3419a18.54,18.54,0,0,1,1.6032-1.673c12.0752-9.8731,24.2332-19.6467,36.2066-29.6414,3.5375-2.9529,3.145-4.2971-.1459-7.7274A52.1924,52.1924,0,0,1,284.714,719.1334Z" transform="translate(-130.2801 -346.507)"/><path class="t" d="M316.8843,692.9205c10.048-6.8544,19.9472-13.9417,30.19-20.4912,8.59-5.4926,15.9434-1.8738,17.1965,8.16.5653,4.528.5492,9.1286.7971,13.6968-8.2655,8.3712-16.4112,16.8665-24.8842,25.0218-2.0266,1.9507-5.1434,2.7687-7.7588,4.1076q-1.5963.048-3.1941.0945c-1.3247-2.9954-2.6855-5.9734-3.964-8.9862C322.2484,707.41,322.705,698.9485,316.8843,692.9205Z" transform="translate(-130.2801 -346.507)"/><path class="s" d="M362.8867,720.0961q-1.5027,22.2158-3,44.432c-.354,5.3194-.6433,10.6431-.9621,15.9649-2.81.9667-5.57,2.5348-8.44,2.7714-5.51.4545-11.0832.1537-16.63.1662.4837-10.0788,1.2082-20.1538,1.367-30.2377.107-6.7943-.5848-13.6012-.918-20.4024,3.1534-1.8371,6.14-4.6556,9.5063-5.223,3.0938-.5214,5.0662-2.1991,7.5669-3.3759C355.0437,722.4659,359.0341,721.4274,362.8867,720.0961Z" transform="translate(-130.2801 -346.507)"/><path class="s" d="M199.5253,783.4837c-6.178,8.3065-11.96,16.9511-18.6689,24.8046-4.7184,5.5239-10.5322,10.1711-16.1757,14.8231-3.2126,2.6482-6.9471,1.12-9.8857-.916A6.3443,6.3443,0,0,1,152.49,813.84c5.6275-11.6726,11.3922-23.2792,17.1538-34.8865.7507-1.5124,1.7856-2.8838,2.689-4.3205,6.0847-.01,12.2362.7131,17.9277-2.4689,2.65-1.4815,4.1655.448,5.2143,2.5168C196.9348,777.5594,198.1853,780.5443,199.5253,783.4837Z" transform="translate(-130.2801 -346.507)"/><path class="t" d="M231.2094,742.6278c-1.3037.99-2.8942,1.7577-3.8639,3.007-5.6047,7.2208-11.0628,14.5553-16.5708,21.8519-3.7553-1.162-7.43-2.172-8.6744-6.8163-1.4913-5.5674-4.162-10.2343-10.8-11.0554-1.2534-.155-2.3671-1.4391-3.5452-2.2022,3.6913-8.8915,9.4979-16.359,15.8117-23.4846,2.461.2521,4.952.3332,7.3739.7853,7.1839,1.341,11.6847,6.7709,16.5636,11.4459C229.2255,737.8084,230.0018,740.4431,231.2094,742.6278Z" transform="translate(-130.2801 -346.507)"/><path class="s" d="M356.5279,800.07c-.8318,7.5247-1.3389,15.1041-2.5953,22.5572-1.0537,6.2508-6.5539,8.8247-11.71,10.4681-3.9181,1.2487-8.4277.7762-12.6761.8087-2.9416.0224-3.7328-2.1889-2.6677-4.3511,4.6711-9.4824,4.3607-19.8088,5.4664-29.9022,5.6448-1.6206,11.321-3.1423,16.9212-4.9052,2.48-.7808,4.041-.0256,5.2694,2.0278C355.1949,797.8747,355.8635,798.9708,356.5279,800.07Z" transform="translate(-130.2801 -346.507)"/><path class="u" d="M284.714,719.1334a52.1924,52.1924,0,0,0,4.4928,6.24c3.2909,3.43,3.6834,4.7745.1459,7.7274-11.9734,9.9947-24.1314,19.7683-36.2066,29.6414a18.54,18.54,0,0,0-1.6032,1.673q-3.2979-3.8726-6.5947-7.7442c5.6057-5.3254,11.2-10.6654,16.8319-15.9652.8388-.7893,1.85-1.9686,2.7912-1.9785,4.6046-.0482,5.18-3.141,5.4522-6.6054,2.1671-1.7751,4.3952-3.481,6.4851-5.342C279.3,724.2941,281.9839,721.6879,284.714,719.1334Z" transform="translate(-130.2801 -346.507)"/><path class="v" d="M187.7555,747.4128c1.1781.7631,2.2918,2.0472,3.5452,2.2022,6.6376.8211,9.3083,5.488,10.8,11.0554,1.244,4.6443,4.9191,5.6543,8.6745,6.8163q-5.6238,7.9971-11.2486,15.9962c-1.3409-2.9386-2.5914-5.9235-4.051-8.8023-1.0488-2.0688-2.5646-3.9983-5.2143-2.5168-5.6915,3.182-11.843,2.4594-17.9277,2.4689Z" transform="translate(-130.2801 -346.507)"/><path class="u" d="M231.2094,742.6278c-1.2076-2.1847-1.9839-4.8194-3.7047-6.4684-4.8789-4.675-9.38-10.1049-16.5636-11.4459-2.4219-.4521-4.9129-.5332-7.3739-.7853q6.6052-8.16,13.212-16.3183c.7605,1.6216,1.1333,3.6577,2.3472,4.7991,7.7233,7.2609,14.0712,16.2086,24.7222,20.0244-2.56,4.8579-4.9208,9.3386-7.2826,13.82Q233.8869,744.4408,231.2094,742.6278Z" transform="translate(-130.2801 -346.507)"/><path class="u" d="M316.8843,692.9205c5.8207,6.028,5.3641,14.49,8.3827,21.6033,1.2785,3.0128,2.6393,5.9908,3.964,8.9862q-3.6232,3.3441-7.2485,6.6857c-5.1873-6.5176-10.2894-13.1071-15.6172-19.5088-1.5519-1.8647-3.7479-3.1933-5.649-4.7681Q308.8,699.4193,316.8843,692.9205Z" transform="translate(-130.2801 -346.507)"/><path class="w" d="M362.8867,720.0961c-3.8526,1.3313-7.843,2.37-11.51,4.0955-2.5007,1.1768-4.4731,2.8545-7.5669,3.3759-3.3662.5674-6.3529,3.3859-9.5063,5.223q-.9395-4.6883-1.8774-9.3756c2.6145-1.3383,5.7313-2.1563,7.7579-4.107,8.473-8.1553,16.6187-16.6506,24.8841-25.0218Q363.9772,707.1906,362.8867,720.0961Z" transform="translate(-130.2801 -346.507)"/><path class="u" d="M356.5279,800.07c-.6644-1.0987-1.333-2.1948-1.9922-3.2967-1.2284-2.0534-2.7891-2.8086-5.2694-2.0278-5.6,1.7629-11.2764,3.2846-16.9212,4.9052q.7547-8.1084,1.5089-16.219c5.5474-.0131,11.12.2877,16.6306-.1668,2.87-.2366,5.63-1.8047,8.44-2.7714Q357.7263,790.2813,356.5279,800.07Z" transform="translate(-130.2801 -346.507)"/><path class="s" d="M735.3632,759.2439q-2.4555-25.0832-4.9113-50.1669,9.3643.3953,18.7292.7914c1.0612,9.6762,1.9756,19.3716,3.239,29.0213.7395,5.6477,2.0359,11.2223,3.0821,16.83a35.0507,35.0507,0,0,1-17.8423,3.0964A8.557,8.557,0,0,0,735.3632,759.2439Z" transform="translate(-130.2801 -346.507)"/><path class="s" d="M726.2234,704.45q-16.9815-5.3985-33.9629-10.798c-1.2436-.3956-2.4726-.8406-3.7251-1.2046-9.1817-2.6687-10.7439-4.943-10.0772-14.7236q22.43-.0039,44.8595-.0028c4.5266,7.0808,4.9323,15.0619,4.8426,23.0892C728.1465,702.03,726.9,703.2368,726.2234,704.45Z" transform="translate(-130.2801 -346.507)"/><path class="s" d="M756.3506,771.5885c.2732,6.6549.6508,13.3075.79,19.9652.1359,6.4981.185,13.006-.0126,19.501-.2332,7.6631-3.8575,9.4705-12.7913,7.0322-5.8255-1.59-8.3246-6.6457-8.4456-12.44-.205-9.8157-.0285-19.6392-.0126-29.46,4.6641-1.2031,9.3131-2.4705,14-3.58C751.9971,772.1057,754.1908,771.9184,756.3506,771.5885Z" transform="translate(-130.2801 -346.507)"/><path class="v" d="M726.2234,704.45c.6764-1.213,1.9231-2.4195,1.9369-3.64.09-8.0273-.316-16.0084-4.8426-23.0892q12.7509-.6983,25.5029-1.3969,3.83,11.7132,7.6592,23.4261c-2.67.68-6.3952.5582-7.7009,2.2757-1.21,1.592.1655,5.15.4023,7.8426q-9.3649-.3957-18.7293-.7913C730.349,706.3412,728.6212,705.0894,726.2234,704.45Z" transform="translate(-130.2801 -346.507)"/><path class="s" d="M756.48,699.75q-3.8295-11.7131-7.6592-23.4261c6.6775-.0679,13.3668-.382,20.0273-.075a14.1481,14.1481,0,0,1,7.1861,2.7035c3.2794,2.3738,5.8269,5.8035,4.4292,10.1086-1.8108,5.5767-6.3153,8.6436-11.8968,9.68C764.6116,699.476,760.5137,699.4413,756.48,699.75Z" transform="translate(-130.2801 -346.507)"/><path class="v" d="M756.3506,771.5885c-2.16.33-4.3535.5172-6.4726,1.0188-4.6864,1.1094-9.3354,2.3768-14,3.58q-.2573-8.4717-.5152-16.9436a8.5666,8.5666,0,0,1,2.2966-.4275,35.0507,35.0507,0,0,0,17.8423-3.0964Q755.926,763.6539,756.3506,771.5885Z" transform="translate(-130.2801 -346.507)"/><path class="s" d="M653.7031,724.3227c-.9063,14.2663-1.8354,28.5311-2.69,42.8a46.6872,46.6872,0,0,0,.2795,5.3968c-9.0674,3.768-18.6756,3.2419-28.1787,3.5494q-.3843-25.6135-.7685-51.2273c1.46-.5317,2.89-1.4094,4.385-1.5384C635.7535,722.5252,644.8588,720.2431,653.7031,724.3227Z" transform="translate(-130.2801 -346.507)"/><path class="s" d="M620.7652,708.4272a97.5261,97.5261,0,0,1-.95-30.0706c.475-3.6009,3.4723-6.0148,6.937-4.7993,3.752,1.3163,7.9567,2.7876,10.6136,5.5095,8.0913,8.2888,14.0211,17.9187,14.2631,30.0771a6.6631,6.6631,0,0,1-1.3394.731A44.7371,44.7371,0,0,1,620.7652,708.4272Z" transform="translate(-130.2801 -346.507)"/><path class="s" d="M652.1308,784.8537c-.2223,7.3243.1056,14.718-.8081,21.955-1.11,8.7917-8.04,11.5426-15.2341,11.7792-2.901.0955-5.0651-1.3506-6.5262-4.14-4.8551-9.2686-7.5461-18.9519-6.4387-29.4956,1.6332-.2948,3.4824-.1935,4.8652-.9476C636.2552,779.4969,644.2743,779.0884,652.1308,784.8537Z" transform="translate(-130.2801 -346.507)"/><path class="w" d="M620.7652,708.4272a44.7371,44.7371,0,0,0,29.5242,1.4477,6.6665,6.6665,0,0,0,1.34-.731q1.0389,7.5864,2.0745,15.176c-8.8446-4.0768-17.95-1.7947-26.9735-1.0163-1.4948.129-2.925,1.0067-4.385,1.5384Q621.555,716.6347,620.7652,708.4272Z" transform="translate(-130.2801 -346.507)"/><path class="w" d="M652.1308,784.8537c-7.8565-5.7653-15.8756-5.3568-24.1419-.8488-1.3828.7541-3.232.6528-4.8652.9476q-.0053-4.44-.0108-8.8822c9.5036-.3085,19.1118.2176,28.1792-3.55Q651.7117,778.687,652.1308,784.8537Z" transform="translate(-130.2801 -346.507)"/><path class="w" d="M643.3721,1219.32c-.7813-6.17,2.2523-11.0493,7.1772-12.0832,1.0829-.2273,3.4524.7524,3.4691,1.2369.0656,1.905.0861,4.6621-1.08,5.5883C650.2057,1216.2325,646.78,1217.5306,643.3721,1219.32Z" transform="translate(-130.2801 -346.507)"/><path class="w" d="M498.7787,1208.1548c.117,5.4241-2.37,9.6506-6.0148,13.2372-5.4037,5.3173-12.1409,3.4765-14.1577-3.8736-1.9723-7.1881-.099-13.5542,5.1343-18.7193,5.626-5.5526,12.189-3.6673,14.2923,3.9545A39.7691,39.7691,0,0,1,498.7787,1208.1548Z" transform="translate(-130.2801 -346.507)"/><path class="b" d="M203.18,1005.8847c-14.3916-.6-20.9554-12.0569-14.1789-24.7491,5.3859-10.0874,17.86-16.8191,29.1945-15.7546,12.2137,1.1471,18.2995,11.4652,13.4061,22.7289C227.0655,998.5518,214.58,1006.36,203.18,1005.8847Z" transform="translate(-130.2801 -346.507)"/><path class="w" d="M244.4138,1038.9064c.9862.1208,2.4273.2163,3.836.4829,8.4257,1.5946,10.2646,5.967,4.6518,12.5012-2.4326,2.832-6.1441,4.7408-9.5718,6.4852-2.5906,1.3182-5.1525.243-6.7512-2.35-.7522-1.22-1.3349-2.543-2.0238-3.8033C229.1136,1042.267,235.7327,1039.6743,244.4138,1038.9064Z" transform="translate(-130.2801 -346.507)"/><path class="w" d="M285.9714,1076.5649c3.1371-1.91,6.5574-3.14,10.19-1.8526,1.2208.4329,1.9057,2.3774,2.8356,3.631-1.2135.4836-2.4912,1.49-3.6282,1.3509-3.17-.3888-6.2811-1.2525-9.4154-1.9288Q285.9624,1077.1651,285.9714,1076.5649Z" transform="translate(-130.2801 -346.507)"/></svg>