<svg xmlns="http://www.w3.org/2000/svg" viewBox="0 0 1920 1080"><defs><style>.a{fill:#fef2a0;}.b{opacity:0.15;}.c,.s{fill:#e2b124;}.d{opacity:0.3;}.e,.k{opacity:0.4;}.f,.g,.h,.i,.j,.k,.l,.m,.n,.o,.p,.q{fill:none;}.f,.g,.h,.i,.j,.k,.l,.m,.n,.o,.p,.q,.s{stroke:#e2b124;}.f,.l,.n,.q,.s{stroke-miterlimit:10;}.f{stroke-width:15px;}.g,.i,.k,.l,.m,.o,.p{stroke-linecap:round;}.g,.h,.i,.j,.k,.m,.o,.p{stroke-linejoin:round;}.g,.j{stroke-width:7px;}.h,.i,.s{stroke-width:5px;}.k{stroke-width:12px;}.l,.m,.n{stroke-width:10px;}.o{stroke-width:11px;}.p{stroke-width:14px;}.q{stroke-width:6px;}.r{opacity:0.2;}</style></defs><rect class="a" x="0.0005" y="-0.0018" width="1920" height="1080"/><g class="b"><path class="c" d="M1085.9805,687.5753c5.4787,1.2081,11.0672,1.2271,17.0342,5.6288,3.6355,2.6818,3.8508,4.364,3.8513,5.0362.0017,3.1483-4.7013,6.36-11.9981,7.9986a70.8924,70.8924,0,0,1-15.7012,1.4813c-11.8158-.2154-19.7968-3.3834-27.6991-5.9249a228.2334,228.2334,0,0,0-39.9933-8.295c-15.5636-1.7149-21.4529-.1112-30.7-.7956-2.2519-.1666-.3659-.0911-10.4789-1.5744-12.8891-1.89-17.7883-2.4383-22.8111-6.0731-1.1884-.86-5.0441-3.65-4.4437-5.3324.83-2.324,9.5791-.8966,17.4787-.1481,3.0554.29,13.7386.0448,35.1052-.4444,10.4545-.2394,25.4437-.8219,44.141-2.37,10.9473-1.0858,17.5937-2.14,26.2178.8888C1075.6341,681.04,1075.7219,685.3133,1085.9805,687.5753Z"/><path class="c" d="M841.0825,728.3588a200.98,200.98,0,0,1,21.5273-17.38c15.5231-10.8693,22.1678-12.24,26.2673-12.64,4.4588-.4349,8.4367.3025,16.3924,1.7775,10.9548,2.031,15.328,4.2145,25.6748,6.9124a196.0071,196.0071,0,0,0,22.91,4.345c21.13,3.1388,22.73.4882,47.2022,2.765,9.95.9257,20.7213,2.5949,42.2646,5.9249,7.9991,1.2365,12.0589,1.8689,15.01,2.5675,12.034,2.8486,15.64,5.6673,23.7,5.3325,8.8571-.368,10.0723-.5925,10.0723-.5925,3.1645-.5848,5.2053-1.3627,7.505-.395a7.1482,7.1482,0,0,1,3.95,4.1474c.5269,3.46-13.7588,10.26-68.8283,24.2923-55.319,11.9448-77.8588,14.4062-87.1955,13.8249a66.6448,66.6448,0,0,0-11.85.1975c-10.1474,1.0755-15.8784,4.0616-22.91,6.32-2.6487.8507-11.5391,1.8478-29.23,3.7524-5.2448.5647-13.7006,1.3639-30.6123,2.9625-15.8615,1.4993-17.478,1.6079-20.7373,1.3825-6.0641-.4194-9.2279-1.4013-15.2074-.395-2.3833.4011-4.3665.98-10.27,1.975a29.5256,29.5256,0,0,1-8.8874.5925c-3.2466-.3692-5.76-.655-6.5175-1.975-1.9007-3.3142,8.2136-11.5075,20.1448-23.5023C827.4523,744.4712,826.1027,742.279,841.0825,728.3588Z"/><path class="c" d="M1193.5183,780.3008c1.6271-5.63-3.4509-10.5411-16.4417-25.7735-22.7945-26.7278-26.1079-33.8265-34.2166-33.7722-7.7.0515-11.8729,6.5014-19.5524,13.7755-11.51,10.9018-26.781,16.6-57.3239,27.9954C1016.1482,781.12,959.07,787.3383,945.1148,788.7439c-20.6075,2.8791-38.0334,4.65-51.1027,5.7768-31.5527,2.72-47.329,4.08-57.7683,2.6662-13.1041-1.7746-26.491-1.024-39.549-3.1106-4.7261-.7552-10.5562-1.84-15.9974,1.3332-6.8466,3.9925-11.2467,13.6584-8.4431,19.1079,2.9411,5.7168,13.125,5.4626,24.8848,5.3325,65.1316-.7209,21.564,4.1,85.7637.4444,14.0365-.7992,23.9653-1.4764,41.3265-2.6663,33.9794-2.3288,48.0386-3.5494,66.6557-4.8881,27.9686-2.011,50.3443-3.1182,95.0955-5.3324,0,0,14.8916-.7368,87.9854-15.9974C1179.6418,790.2251,1191.4,787.63,1193.5183,780.3008Z"/><path class="c" d="M861.4248,834.2179c-.32,1.6984,3.26,3.7614,4.4437,4.4437,5.7241,3.2986,9.2465.61,17.1824,2.9625,3.3031.9789,2.4433,1.3707,8.5912,3.8512a107.4984,107.4984,0,0,0,12.7386,4.1474c13.74,3.76,15.0027,3.126,21.6261,5.3325,3.71,1.2359,3.8891,1.6264,16.2936,7.7024,14.2443,6.9772,21.4605,10.4935,26.07,11.85,6.3306,1.863,12.4039,2.2548,24.2924,2.9625,17.638,1.05,30.94.619,31.6985.5925,20.656-.7218,78.4279-2.7408,130.3489-14.5161,11.733-2.661,20.8329-7.1355,33.18-5.3325.29.0424,7.2046.4232,21.0336,1.185a20.7258,20.7258,0,0,0,10.6855-1.6915c1.4386-.6922,5.0254-2.418,6.7931-5.7147,2.2147-4.13-.3419-7.1547-4.74-22.5148-2.9774-10.3986-4.4662-15.598-4.4438-18.6636.0225-3.1019.4347-5.5113-1.185-7.11-2.3771-2.3462-6.9812-.4914-13.035.5925-10.1934,1.8251-15.29,2.7377-19.8485,4.1474-14.9614,4.6272-82.2744,21.3772-133.3114,29.0323-53.6959,8.054-80.5439,12.0809-106.0565,3.8512a211.9494,211.9494,0,0,0-44.7334-9.1836C883.8466,830.6732,862.1742,830.2415,861.4248,834.2179Z"/><path class="c" d="M756.257,929.0171c5.2377,3.6936,13.1209-1.8963,25.7735-6.2212,12.3261-4.2133,24.2147-4.3889,47.9921-4.74,23.5544-.3478,48.3938,1.28,109.0191,7.9987,49.2774,5.4613,57.4536,7.1108,75.2469,4.74,15.3994-2.0519,19.01-4.5845,48.2883-8.8875,10.63-1.5621,22.7126-3.074,39.1047-7.7024,2.8084-.793,26.963-7.6835,26.366-10.9612-.2533-1.39-6.2912-1.618-18.3673-2.0737a217.8319,217.8319,0,0,0-22.8111,0c-6.71.3842-7.3987.7571-17.3893,1.612-3.6912.3159-14.4888,1.24-21.4191,1.3505-12.819.2047-21.2066-2.2328-32.5872-4.74-20.4627-4.508-23.73-3.3215-45.6222-7.11-28.438-4.921-58.0633-14.4394-117.314-33.476-26.3981-8.4815-20.8953-7.3425-30.5135-10.0724-12.4606-3.5367-19.5991-4.853-28.1435-9.7762-2.4744-1.4257-5.402-3.0242-11.2574-6.2212-9.5791-5.23-10.2822-5.45-11.2574-5.3324-7.8039.9454-11.4691,20.9606-13.9236,34.3647-1.473,8.0436-2.0883,17.7167-3.2588,36.7347C752.7224,922.2377,753.0091,926.7267,756.257,929.0171Z"/><path class="c" d="M921.7112,1000.2646a190.3682,190.3682,0,0,1,39.8453.4444l52.88,8.443c10.3074,1.0107,18.621,2.3629,24.2923,3.4069,12.4213,2.2866,16.0911,3.8174,25.1811,4.5918,9.135.7783,12.5229-.1634,22.3667-.4444a211.5045,211.5045,0,0,1,36.29,2.6662c22.373,3.7387,20.9071,8.49,43.104,12.4425,18.9507,3.3741,30.2111,1.7253,31.9947,7.11.7242,2.1863-.5332,4.2661-8.5912,14.22-11.3646,14.0386-16.2064,18.9725-24.7366,28.7361-11.34,12.98-12.3237,15.1807-16.738,16.2936-5.58,1.4068-10.3486-.511-25.7735-7.8505-14.8-7.0422-22.2-10.5632-25.1811-12.2943-26.5728-15.4292-62.4041-26.88-66.3593-28.1435-30.2992-9.6825-54.0211-9.7137-101.4648-9.7762-19.3413-.0255-43.98.0535-65.767,5.4806-21.4624,5.3462-32.1935,8.0193-35.4016,9.48a56.3123,56.3123,0,0,1-14.6642,4.1475c-3.7372.5363-5.6537.7914-7.9987.1481-6.3352-1.7379-9.8639-7.9239-11.85-11.4056a31.2941,31.2941,0,0,1-2.6662-6.3692c-1.5146-4.5433-1.1612-5.8524-.8887-6.5175.2965-.7241.9016-1.6724,3.2586-3.1106a26.3493,26.3493,0,0,1,8.7393-3.2587s4.69-.9974,10.6649-2.37c5.8637-1.3471,7.2725-2.4016,13.6274-4.4436,4.6185-1.4841,7.75-2.1726,16.2937-3.9994,30.7428-6.5736,29.1661-5.993,33.92-7.258,12.6667-3.37,13.2515-4.6695,24.44-7.11A181.9893,181.9893,0,0,1,921.7112,1000.2646Z"/><path class="c" d="M767.8106,990.6366c3.917,9.896,3.6636,10.9973,5.925,12.8867,4.6724,3.9039,10.9241,3.5212,20.441,2.5181,24.3327-2.5645,30.5135-4.1474,30.5136-4.1474,32.0444-8.2068,4.8061.401,68.4331-15.7012,28.9443-7.3249,28.7676-7.635,34.3647-8.2949,9.5682-1.1281,24.4319-.1749,53.769,1.7775,24.6055,1.6375,33.123,2.5967,41.03,3.7031,6.2787.8786,15.4178,2.1574,26.5142,4.5918,11.869,2.6039,18.501,4.89,70.2106,22.663,7.8661,2.7037,14.7364,5.0492,24.2923,7.5543,11.6525,3.0548,11.9676,2.3278,21.6261,5.1843,10.821,3.2,13.8756,5.1331,22.07,6.2212,7.46.99,11.19,1.4857,14.9606.2962,5.9778-1.8857,9.941-7.1471,24.2922-50.51,4.5438-13.7293,6.6423-20.743,8.1468-30.3654.5129-3.2806.8851-9.9883,1.6294-23.4036.6745-12.1553.6085-15.5093-1.6294-17.0342-3.0233-2.06-7.4408.9686-16.738,4.74-8.8765,3.6007-7.87,2.0652-24.1441,7.2581-16.1664,5.1587-27.2151,9.8828-32.5872,11.9981-21.2986,8.3865-41.75,10.5679-64.8782,13.0348-10.5418,1.1245-23.3865,2.1311-117.61-.2962-43.2989-1.1155-64.9483-1.6732-87.2449-2.6662-11.945-.532-23.8986-.8559-35.8459-1.3332-14.7925-.5909-23.7668-1-36.8828-.7406-8.5111.1687-13.4752.5569-23.4036,1.3331-2.9935.2341-9.5994,1.39-22.8111,3.7031a23.0335,23.0335,0,0,0-9.5533,3.7752c-1.6909,1.1895-4.6424,3.3253-5.5553,6.89a10.9454,10.9454,0,0,0,.5925,6.5175C762.9015,977.434,765.4831,984.7564,767.8106,990.6366Z"/></g><g class="b"><path class="c" d="M937.5531,201.8281c-6.8389,2.9646-17.5209,8.9735-23.4111,20.1208a29.0753,29.0753,0,0,0-2.6555,6.7858c-2.8084,11.9378,3.825,22.3011,5.9576,25.6243,2.3668,3.6884,5.9463,9.2665,12.7813,12.7656h0a131.3706,131.3706,0,0,0,19.71,5.8349c10.83,1.847,28.1581-7.5386,36.5546-22.3249,4.982-8.7732,5.3455-17.007,5.6642-22.4.6083-10.2916-1.76-23.6131-12.3024-40.2074-21.3825-33.656-77.367-17.06-79.9561-13.5836s22.6387,22.68,20.6618,24.9569,13.9131-3.8224,15.3139-2.0225A10.0287,10.0287,0,0,1,937.5531,201.8281Z"/><path class="c" d="M886.789,182.0684s23.8786,14.72,24.8784,20.98.37,7.9311-.9419,8.8678-15.08,20.079-11.2424,32.8145c.6994,2.3211.5464,3.2184-.109,4.4964-2.2708,4.4284-10.8586,1.9774-24.4126,5.9436-2.802.82-7.2909,2.3456-10.37,6.4438a15.0159,15.0159,0,0,0-1.4932,2.444l-1.7856-.9907a25.19,25.19,0,0,1-2.5613-4.3439c-2.41-5.2291-2.603-10.47-.7827-23.0732,1.521-10.5306,2.2815-15.796,3.9438-20.6567a70.6515,70.6515,0,0,1,10.2844-19.6594A65.2744,65.2744,0,0,1,882.97,184.2471"/><path class="c" d="M906.9659,258.4021a66.4808,66.4808,0,0,0-12.4831,1.6181c-5.1175,1.1649-5.2513,1.8365-17.2726,6.373-8.7636,3.3072-11.34,3.9493-12.3106,6.5727-.8726,2.3576.118,4.7839,1.9982,8.3854a95.6481,95.6481,0,0,0,13.16,19.5071,108.8614,108.8614,0,0,0,17.7923,15.17,124.7752,124.7752,0,0,0,20.0225,11.4784c6.128,2.7924,9.4855,3.6574,16.2005,5.3874,7.3924,1.9045,9.2535,1.6476,10.2.6225,1.5565-1.6862-.2693-4.4677-1.8816-12.5155-.9271-4.6276-1.6523-8.2475-1.4748-12.9585.12-3.19.8922-7.1479,2.4362-15.0629.5624-2.8829.8436-4.3244,1.0353-4.9766.7352-2.5021,1.2853-3.2085.97-4.1664-.6107-1.8548-3.7006-2.3293-5.6849-2.7379-4.58-.9432-8.6657-3.5329-13.0893-5.05C921.9607,274.4629,915.3429,270.2454,906.9659,258.4021Z"/><path class="c" d="M997.71,253.1122a.9846.9846,0,0,1,.51.4787,125.9293,125.9293,0,0,0,12.2268,10.2825,146.9615,146.9615,0,0,0,25.375,14.568c5.9982,2.5931,8.9974,3.89,10.8093,4.3106,2.8884.6709,4.608.7027,5.1026,1.8427.6237,1.4374-1.3857,3.165-6.5166,8.5964-6.0951,6.4522-6.4786,7.4071-11.2127,11.8917-2.0284,1.9214-3.7156,3.4555-4.5338,4.12-8.3186,6.7555-16.6732,11.2-23.2462,14.6965l-.0006,0a159.1887,159.1887,0,0,1-49.4227,11.9118c-1.3374-6.682-2.9865-15.254-4.8179-25.6269-.9881-5.5965.2957,1.451-1.1094-19.0223-.1589-2.3151-.397-5.6355,1.6729-8.1552,2.007-2.4432,5.1319-2.8528,6.908-3.1618a51.9945,51.9945,0,0,0,19.7-8.6785c5.25-3.8917,12.8649-12.2005,15.3-15.4641C994.8974,255.11,996.6219,252.7367,997.71,253.1122Z"/><path class="c" d="M1001.5389,241.6747a109.8184,109.8184,0,0,0,8.2376,7.6351c9.72,8.1194,18.5925,12.6546,26.8285,16.8648,3.3954,1.7356,5.6729,2.7218,8.9777,4.1529.3711.1607,2.5561,1.1011,5.5341,2.1089,4.979,1.6851,5.9993,1.49,6.4589,1.32,2.0288-.7494,3.0139-2.7891,4.26-5.7893,3.7665-9.07,4.3537-12.1938,4.3537-12.1938,3.2634-17.3563,5.2712-17.3752,6.6052-30.2682,1.9152-18.511-1.5009-36.979-1.5009-36.979-2.423-12.7992-6.0936-21.416-11.52-34.1545a142.2776,142.2776,0,0,0-6.8589-13.2569c-.417-.729-2.1405-3.0872-5.5875-7.8037-1.54-2.1066-2.0887-2.8226-2.9293-2.859-2.2187-.096-3.6385,4.6651-6.0876,9.1556a41.5863,41.5863,0,0,1-10.392,12.3043c-1.4266,1.3562-3.5179,3.33-6.07,5.6886-6.5215,6.0257-9.7823,9.0386-11.4617,10.2865-6.51,4.8378-9.6187,5.1195-16.5271,11.1858-1.0516.9233-1.8916,1.7176-2.4495,2.2574a7.9279,7.9279,0,0,0-.1825,3.668,9.7908,9.7908,0,0,0,2.4869,4.4352c.9464,1.1735,1.9708,3.3807,4.02,7.7951,1.7728,3.82,2.3919,7.2325,3.558,13.9023,1.0841,6.2014,1.8009,10.3012,1.8,16.0226A69.1825,69.1825,0,0,1,1001.5389,241.6747Z"/><path class="c" d="M936.5959,155.5529a3.0164,3.0164,0,0,0,1.9432,1.2091c.9815.0914,1.5292-.5739,2.52-.9588,1.137-.4417,2.1353-.2337,4.5289.3942,3.4555.9067,5.1833,1.36,6.2884,1.7727a104.599,104.599,0,0,1,10.49,4.3095,71.852,71.852,0,0,1,13.55,7.9666c3.2349,2.4934,3.8166,3.4832,5.751,3.8361,4.5563.8312,8.8193-3.294,10.8409-5.2182,16.2617-15.4787,15.41-10.2992,26.8755-23.268a162.8728,162.8728,0,0,0,17.5289-23.9268c-10.6162-17.4922-33.9274-49.4047-71.3085-57.4287-17.7447-3.809-44.155-3.4146-47.6916,5.9209-1.1325,2.9894.7194,5.2087,4.4953,16.72,1.4547,4.4347,3.0466,10.8149,6.2306,23.5752A356.4847,356.4847,0,0,1,936.5959,155.5529Z"/><path class="c" d="M913.0612,86.8589a84.6134,84.6134,0,0,1,3.4354,10.8948c1.2613,5.5894,1.3718,9.8884,2.6077,16.97.9818,5.6257,2.0237,9.6395,3.3709,14.64,2.6818,9.9545,4.9051,15.1643,3.3859,22.424a25.769,25.769,0,0,1-.9264,3.3083c-.828.3331-2.1046.82-3.6926,1.3121-6.9672,2.16-10.4858,1.5-15.6286,2.8581-2.2867.6039-4.7035,1.9082-9.5373,4.5167A109.2617,109.2617,0,0,0,880.87,173.16c-12.5972,9.7635-12.5281,18.1735-18.8085,18.5153-4.2121.2293-6.5947-3.4255-13.3579-9.9615a180.57,180.57,0,0,0-24.5277-18.94c-6.7759-4.4217-19.06-12.4382-36.4288-17.0625-9.9835-2.6581-14.2858-2.2356-15.4215-5.3325-1.9762-5.3887,8.3416-14.0519,26.1033-28.9653,5.1385-4.3144,9.0814-7.625,15.0654-11.9749a194.276,194.276,0,0,1,36.24-21.4894c12.5352-5.621,20.4082-7.4261,36.1386-11.0327,8.7081-1.9965,13.2267-2.5615,17.1349-.0645C906.7525,69.2451,908.8554,75.1164,913.0612,86.8589Z"/><path class="c" d="M853.2167,273.0966c-1.1487,3.2139-4.7987,5.0349-18.9258,8.8511-8.4315,2.2776-14.2681,3.5568-17.9822,4.4361-8.2831,1.9609-14.0886,3.884-25.7,7.73-17.3817,5.7578-26.0725,8.6367-33.18,12.3062-10.5366,5.44-13.7737,8.9521-17.3774,7.2877-4.2516-1.9637-4.2508-8.9335-5.68-25.0373-2.1173-23.862-3.1-19.6159-3.4238-30.389-.817-27.1818,5.6193-48.2259,8.9053-58.66.6409-2.0349,5.3414-12.7033,14.7424-34.04,3.4034-7.7243,5.1819-11.626,8.9477-13.564,3.8668-1.99,9.1366-2.0408,31.744,9.3348a269.136,269.136,0,0,1,39.1,23.5548c17.42,12.6517,19.0856,16.76,19.6448,19.8035,1.7056,9.2819-6.4923,10.778-8.182,25.54-2.017,17.6215,4.6848,32.7721,4.6848,32.7721C852.48,267.4187,854.32,270.01,853.2167,273.0966Z"/><path class="c" d="M871.0011,302.9325c6.7069,8.8756,15.3261,15.0946,32.5644,27.5326,8.6392,6.2335,12.9587,9.35,16.3859,9.9891a5.1052,5.1052,0,0,1,3.4423,1.6115c1.9653,2.6455-.9828,7.4783-4.0144,13.9152-2.4095,5.1162-4.0438,10.5635-6.19,15.7953-2.5785,6.285-2.8955,8.1561-8.4181,26.1664-8.2964,27.0562-7.6423,23.0337-9.257,29.6667-1.427,5.8622-3.5273,15.5333-6.8936,31.034-.7621,3.5092-1.986,6.9078-2.7267,10.4216-.7848,3.7228-.8661,5.0657-1.9932,5.9276-2.9373,2.2462-9.4086-1.5043-12.2353-3.1781-23.088-13.6712-34.6321-20.5067-38.3913-23.5263-8.4226-6.7653-15.4438-13.075-21.543-18.8638-11.698-11.1028-25.3547-24.1864-39.7555-43.8223-10.1085-13.7831-14.3836-22.6428-22.9339-40.3623-4.983-10.3269-6.223-14.2359-4.9291-18.4339,2.2589-7.329,10.3042-9.2545,39.3082-18.7036,15.5989-5.0819,31.558-9.0858,47.002-14.6126,13.9648-4.9974,21.97-8.5852,29.5994-4.7108C864.9779,291.2954,864.442,294.2525,871.0011,302.9325Z"/><path class="c" d="M936.9127,344.4587a159.0159,159.0159,0,0,0,29.3253-.163c5.5962-.6154,12.0066-1.32,16.7225-3.0025,1.0776-.3844,2.5122-.7731,5.3815-1.55,4.3479-1.178,5.207-1.2306,6.0643-.8162.8856.4282,1.3925,1.1726,3.0735,5.2127,1.2242,2.9419,1.8362,4.413,2.2074,5.6018,1.8993,6.0845,6.4136,15.98,7.8042,19.3977,5.3156,13.0652,11.32,43.904,12.8127,76.1434.3532,7.6271.7145,20.9726-4.66,35.93-1.5314,4.2617-2.2971,6.3925-3.7776,8.1176-4.9736,5.7951-12.3482,5.6806-50.9045,3.96-14.6859-.6555-18.5436-.8589-24.6268-2.1218-6.9016-1.4329-9.732-2.79-19.4293-4.4572-.9636-.1656-5.2788-.899-10.9223-2.2064-6.5163-1.51-9.7963-2.2916-10.87-3.618-2.8618-3.5344.4569-9.032,4.1929-21.3181,2.8612-9.4092,1.0984-6.7887,5.3213-23.04,1.7672-6.8008,3.7587-13.26,7.56-25.9335,1.7551-5.8517,3.6768-12.1032,6.2069-20.1616Z"/></g><g class="b"><circle class="c" cx="1824.9889" cy="242.0102" r="113.9757"/><circle class="c" cx="1745.8917" cy="550.133" r="68.5779"/><circle class="c" cx="1597.7965" cy="20.9941" r="68.5779"/><polyline class="c" points="1865.762 416.346 1869.841 409.975 1853.012 409.443 1840.045 408.924 1828.099 407.849 1816.365 407.049 1806.394 406.605 1797.466 405.893 1787.796 404.27 1778.429 402.818 1767.649 401.853 1757.136 400.579 1747.426 399.73 1744.929 399.909 1749.937 407.849 1786.193 411.525 1792.53 412.423 1802.857 413.806 1813.329 414.504 1828.162 415.468 1838.523 415.981 1846.311 416.484 1852.588 416.55 1861.825 416.628 1865.359 416.568"/><polyline class="c" points="1905.823 417.916 1911.726 410.063 1918.92 409.452 1927.553 410.088 1935.33 409.531 1948.414 408.98 1951.206 416.983 1947.284 417.456 1938.534 417.89 1931.224 418.22 1926.807 418.537 1920.039 418.346 1914.745 418.532 1910.589 418.443 1907.099 418.211"/><polygon class="c" points="1706.201 400.785 1708.336 400.953 1708.226 399.417 1707.402 397.804 1706.396 395.431 1704.43 392.227 1701.412 391.413 1692.804 389.778 1681.562 388.203 1672.505 386.6 1666.598 384.964 1662.282 383.987 1658.154 382.931 1651.209 381.177 1642.299 378.92 1632.039 376.696 1624.496 374.663 1614.78 371.949 1605.563 369.006 1595.235 365.822 1580.509 361.408 1574.132 359.484 1569.198 357.071 1560.886 354.193 1544.848 348.522 1539.01 346.045 1534.479 343.861 1523.542 339.369 1517.1 336.549 1507.472 331.449 1497.646 326.298 1488.712 321.019 1483.235 318.195 1474.145 312.542 1464.681 305.242 1459.029 300.886 1453.648 296.704 1446.469 290.785 1440.777 285.853 1435.518 280.697 1430.466 274.819 1426.414 268.548 1422.792 262.888 1419.962 258.395 1416.358 251.191 1414.044 244.923 1411.958 239.154 1411.582 234.807 1411.06 229.312 1410.945 222.308 1411.291 218.166 1412.259 210.119 1412.876 207.052 1415.073 199.11 1416.618 193.725 1418.692 189.459 1423.103 182.774 1427.418 178.348 1431.678 174.055 1435.581 170.173 1441.734 164.457 1446.73 160.561 1451.795 156.725 1456.823 153.277 1462.427 149.787 1467.73 146.577 1473.576 142.878 1480.808 139.658 1488.401 136.091 1496.46 132.747 1503.765 129.651 1511.207 126.674 1518.444 124.419 1527.4 121.912 1536.483 119.396 1547.861 116.587 1556.259 114.377 1566.065 112.067 1576.927 109.23 1585.466 107.204 1602.376 104.385 1626.725 101.226 1636.499 100.269 1649.048 98.534 1661.524 97.576 1673.634 96.902 1687.522 95.908 1699.582 95.43 1716.648 94.787 1731.95 94.656 1751.361 95.325 1756.6 95.722 1772.139 95.317 1792.497 94.824 1812.955 96.64 1822.149 97.461 1833.931 98.483 1840.752 99.41 1849.923 99.911 1864.278 100.942 1871.903 101.425 1883.365 102.47 1892.847 103.721 1904.322 104.958 1909.593 106.704 1915.477 108.019 1921.645 109.701 1932.544 113.681 1927.182 89.104 1924.032 89.137 1917.046 87.707 1905.928 86.059 1897.145 84.693 1885.981 83.305 1875.745 82.301 1869.788 81.763 1860.855 80.987 1855.423 80.604 1849.535 80.125 1842.124 79.048 1832.135 77.897 1825.081 77.309 1819.266 76.953 1811.37 76.296 1800.494 75.338 1791.794 75.125 1785.357 75.071 1773.247 74.845 1767.454 74.809 1760.194 74.042 1748.546 73.976 1739.338 73.863 1725.454 74.021 1717.582 73.684 1705.887 72.977 1697.27 73.016 1675.184 74.533 1661.863 75.358 1653.236 76.169 1648.701 76.622 1645.359 76.668 1643.517 78.794 1641.318 80.882 1639.616 82.258 1637.597 83.271 1636.043 84.476 1634.153 85.48 1632.219 86.326 1630.336 87.426 1627.795 88.766 1624.837 90.135 1622.821 91.18 1619.726 92.431 1617.783 93.149 1615.87 93.833 1613.968 94.227 1607.548 94.847 1604.862 95.072 1602.245 95.356 1597.924 95.215 1595.842 94.881 1592.822 94.486 1589.617 94.201 1585.338 93.736 1581.955 93.206 1578.302 92.052 1575.653 91.438 1571.931 90.225 1569.689 89.452 1567.236 88.888 1565.037 87.823 1563.583 86.834 1560.328 87.196 1558.118 88.222 1553.24 89.279 1547.848 90.791 1543.073 91.937 1537.55 92.976 1532.963 94.044 1526.046 95.376 1520.298 96.399 1516.238 97.654 1509.836 98.981 1504.457 100.235 1496.979 102.7 1490.636 104.409 1486.775 105.747 1479.641 108.091 1475.763 109.623 1469.516 111.775 1463.408 113.177 1456.736 115.231 1450.746 117.815 1441.973 121.531 1435.866 124.284 1429.539 127.568 1423.025 130.929 1418.44 133.381 1412.251 137.233 1408.672 139.805 1403.968 142.844 1396.634 147.326 1391.107 151.453 1385.853 155.785 1381.247 159.75 1376.558 164.782 1371.841 169.88 1368.957 174.075 1366.164 178.649 1362.931 184.252 1360.575 188.635 1358.761 193.396 1357.372 197.806 1356.095 202.433 1355.867 208.239 1356.092 214.077 1356.521 221.862 1357.914 226.941 1359.638 230.806 1361.475 236.239 1364.187 241.32 1367.829 247.718 1371.529 254.015 1374.217 258.325 1378.452 263.104 1383.998 268.69 1389.661 274.106 1397.123 280.841 1403.262 287.06 1409.116 291.112 1415.582 295.602 1423.654 301.876 1429.769 305.973 1437.533 311.078 1444.414 315.089 1451.473 319.344 1457.888 322.68 1466.634 327.136 1475.705 331.633 1482.413 335.012 1487.318 337.041 1495.308 339.911 1503.268 343.265 1511.111 346.338 1519.469 350.307 1525.929 353.383 1531.594 355.229 1540.07 358.16 1546.8 360.509 1554.794 363.442 1560.274 365.398 1566.347 367.118 1574.419 369.789 1581.323 371.868 1588.084 373.764 1593.745 375.546 1599.64 377.472 1604.729 378.909 1611.225 380.245 1615.808 381.364 1621.414 382.828 1626.623 384.16 1636.979 386.828 1644.824 388.132 1652.21 390.208 1661.287 392.099 1670.214 394.13 1677.91 395.605 1683.118 396.905 1691.511 398.234 1696.696 399.214 1701.768 400.426 1706.201 400.785"/><polygon class="c" points="1816.921 500.611 1811.786 493.13 1805.997 487.304 1804.63 485.279 1804.058 484.034 1804.145 482.998 1811.858 475.273 1822.058 464.539 1833.042 453.074 1842.512 443.389 1851.321 434.331 1857.74 428.307 1862.101 424.071 1867.581 418.403 1873.009 412.45 1875.274 409.939 1881.728 402.594 1890.821 391.682 1896.492 385.518 1902.004 378.498 1907.84 370.167 1909.71 367.975 1913.476 363.523 1916.952 359.511 1921.155 354.868 1924.423 351.096 1928.109 346.425 1930.886 342.527 1932.783 339.818 1935.763 335.616 1938.304 331.575 1943.708 323.95 1946.479 348.712 1946.076 360.16 1944.823 357.483 1938.908 363.375 1932.557 371.26 1927.418 378.093 1922.102 382.913 1918.272 388.719 1912.151 395.784 1906.66 402.192 1900.425 409.007 1895.598 415.721 1891.17 422.15 1886.195 429.036 1882.44 433.647 1878.696 437.968 1873.851 443.075 1869.02 447.474 1864.476 451.852 1861.409 456.189 1857.531 459.973 1853.785 463.811 1849.971 468.041 1844.591 474.216 1840.203 478.068 1833.934 483.503 1828.033 489.136 1820.854 495.794 1818.763 498.935 1816.921 500.611"/><polygon class="c" points="1864.675 -32.766 1851.619 -31.155 1858.275 -22.417 1861.432 -19.096 1863.037 -16.895 1866.184 -13.381 1869.874 -8.676 1872.998 -4.799 1879.283 4.811 1882.692 10.646 1885.515 15.365 1890.225 22.193 1892.417 26.861 1894.411 29.444 1896.651 33.771 1899.266 37.612 1902.044 41.707 1905.047 46.245 1908.266 51.104 1912.038 56.286 1916.056 61.861 1917.179 64.072 1919.422 67.434 1923.433 71.561 1922.645 57.867 1917.303 48.624 1912.68 40.994 1909.228 35.234 1905.697 29.384 1902.264 23.888 1898.533 18.269 1895.748 14.078 1892.81 9.439 1888.717 3.822 1884.95 -1.288 1881.421 -6.101 1877.074 -12.569 1873.68 -17.175 1869.801 -22.832 1866.732 -26.954 1864.59 -29.913 1864.675 -32.766"/><polygon class="c" points="1752.753 65.344 1749.165 64.877 1746.369 64.691 1744.048 64.391 1743.993 64.298 1748.667 59.493 1753.424 54.279 1757.04 50.208 1761.008 45.871 1764.102 42.144 1767.201 38.705 1769.505 36.064 1771.774 34.068 1773.863 31.57 1776.349 28.996 1778.612 26.92 1781.791 23.701 1784.385 20.845 1786.773 18.037 1789.799 14.925 1793.492 11.461 1796.377 8.632 1798.369 6.351 1801.27 3.522 1804.175 0.29 1807.378 -3.043 1811.218 -6.454 1814.438 -9.339 1817.422 -12.351 1820.433 -15.67 1822.295 -17.975 1824.536 -20.371 1826.25 -22.037 1827.773 -23.449 1829.09 -25.039 1831.329 -28.368 1843.812 -27.878 1845.49 -27.58 1846.721 -27.685 1842.525 -23.846 1838.902 -20.756 1835.137 -17.64 1831.372 -14.282 1828.687 -11.581 1825.509 -8.121 1822.427 -5.118 1819.481 -2.237 1815.748 1.102 1812.945 4.181 1809.844 7.137 1806.617 10.135 1803.292 13.123 1800.342 15.94 1796.885 18.873 1793.563 22.569 1789.998 25.783 1786.166 29.547 1782.526 33.057 1779.132 36.195 1774.73 40.756 1770.833 44.959 1767.277 48.977 1763.409 53.355 1759.661 57.612 1755.606 62.068 1752.753 65.344"/><polygon class="c" points="1727.943 98.449 1724.892 97.606 1719.303 97.717 1717.437 98.172 1712.037 105.41 1708.23 110.636 1704.388 115.833 1701.011 120.32 1696.872 125.409 1693.529 129.927 1689.758 134.764 1686.328 139.416 1683.37 143.038 1679.737 147.994 1677.191 152.422 1674.38 156.741 1670.651 161.704 1666.66 166.171 1663.605 170.668 1659.933 175.53 1657.035 180.434 1654.089 184.666 1652.266 187.048 1651.767 188.177 1651.69 189.341 1652.209 191.201 1653.716 193.377 1655.296 197.027 1656.138 198.897 1656.762 199.528 1657.239 198.11 1659.195 194.432 1661.734 189.908 1663.775 186.513 1666.572 182.453 1668.101 179.995 1669.954 177.129 1672.436 173.606 1674.492 170.435 1677.056 166.263 1680.397 161.263 1684.351 155.834 1687.818 151.243 1691.166 146.79 1693.856 143.477 1695.841 140.215 1698.931 136.198 1701.703 132.686 1705.134 128.485 1708.002 124.966 1710.886 121.221 1713.699 117.385 1715.859 114.304 1717.991 111.288 1720.827 108.673 1723.304 105.086 1725.626 101.574 1727.943 98.449"/><path class="c" d="M1633.5809,237.856a1.2554,1.2554,0,0,0-.0933-.1931l-1.3039-2.6982-1.5664-3.4582-1.8249-4.3726-.5623-.2169-4.2464,4.0352-2.4929,5.1641-4.0381,5.5964-2.6463,3.9207-3.9284,5.7815q-2.1114,3.5286-4.223,7.0571l-4.3237,6.1q-1.6979,3.2415-3.3956,6.4832-2.13,3.4975-4.26,6.9954l-3.5874,7.8479-2.8745,6.1242-3.0778,6.8786-2.8058,7.0843q-1.4427,4.1079-2.8856,8.2158-1.083,2.8438-2.1659,5.6876l-2.98,6.9037-2.92,7.7358-3.199,6.5335-1.4991,2.8735.1809,1.6275,2.2472,1.2866,6.7642,2.3783,1.735.4226,1.5608-2.91,2.5568-6.0693,2.0656-4.3937,2.5271-5.5848,2.3946-5.6395,2.3536-4.8647,2.3626-5.187,3.094-6.2043,4.2866-8.8629,2.3512-5.7973,2.6369-5.4,2.2756-5.9527,3.8687-7.0639,2.7238-5.0842,3.2129-5.8912,1.8622-4.09,3.01-5.1368,4.0448-6.401s3.56-5.08,3.6542-5.1186c1.1677-.4837,2.068-3.4612,2.068-3.4612h0C1632.8062,240.2294,1633.9841,238.9159,1633.5809,237.856Z"/><polygon class="c" points="1685.988 607.013 1679.396 599.186 1674.32 590.961 1669.56 583.1 1666.154 575.287 1664.847 573.884 1663.87 573.713 1657.17 576.509 1647.443 578.797 1640.398 580.798 1633.369 582.362 1625.065 583.632 1616.064 583.939 1605.946 582.782 1599.942 581.813 1590.293 578.451 1584.433 576.12 1577.036 571.873 1570.157 566.769 1565.75 560.475 1560.911 553.536 1556.764 546.161 1553.691 539.627 1550.47 533.054 1547.527 525.642 1547.025 517.283 1546.619 509.592 1545.798 500.146 1545.426 488.207 1546.199 478.116 1547.503 465.333 1548.701 456.466 1551.511 444.493 1554.149 433.496 1556.729 423.71 1559.587 413.759 1562.239 404.306 1564.652 396.22 1567.421 388.399 1569.368 384.593 1570.594 380.838 1570.676 377.262 1570.491 375.345 1566.722 373.251 1556.946 368.788 1556.315 369.412 1554.43 370.705 1551.496 376.223 1547.777 384.933 1542.259 399.513 1539.6 408.195 1537.116 416.623 1534.772 425.668 1532.527 432.729 1530.475 440.451 1528.09 449.595 1525.321 458.092 1523.042 466.699 1520.27 475.823 1517.584 484.797 1516.323 492.8 1514.792 500.388 1514.042 508.788 1513.811 516.332 1513.562 524.986 1513.786 534.185 1514.831 548.778 1516.667 558.248 1518.14 568.709 1520.71 580.345 1523.307 590.34 1526.381 598.225 1530.15 605.048 1534.16 610.502 1539.482 616.104 1547.829 622.84 1556.679 627.176 1564.909 630.253 1571.825 632.508 1578.124 634.229 1584.433 635.417 1589.95 636.325 1599.794 636.344 1609.014 635.056 1621.199 632.736 1631.927 629.604 1641.352 626.468 1654.072 621.505 1666.363 616.62 1676.416 612.812 1683.053 609.153 1685.988 607.013"/><polygon class="c" points="1968.503 676.059 1960.191 674.08 1954.43 671.791 1948.5 667.584 1940.925 661.854 1934.751 657.158 1929.12 653.653 1922.725 648.9 1915.239 644.08 1908.921 639.732 1902.001 635.403 1896.21 631.017 1890.005 626.226 1883.066 620.282 1876.765 614.147 1870.611 608.726 1865.282 603.366 1859.783 597.994 1853.495 591.714 1847.01 584.699 1840.984 577.701 1836.713 572.965 1831.337 565.943 1825.968 559.694 1822.611 556.605 1819.989 553.343 1818.364 551.53 1817.357 549.599 1817.806 547.444 1818.134 543.609 1818.106 540.523 1817.905 535.689 1817.455 531.765 1815.877 526.908 1814.597 520.824 1812.085 516.058 1809.519 512.913 1806.872 509.629 1803.338 504.743 1800.056 501.022 1796.373 497.426 1793.113 493.341 1788.562 488.746 1785.352 486.032 1781.431 483.491 1777.443 481.026 1774.758 479.578 1771.195 478.337 1768.787 478.727 1765.416 478.824 1762.916 475.915 1759.612 471.881 1758.01 469.391 1756.22 466.286 1754.39 462.63 1752.341 459.616 1750.171 454.923 1746.737 450.078 1744.13 446.019 1741.366 441.103 1739.328 437.244 1737.289 433.699 1734.842 429.846 1732.71 426.018 1729.284 419.267 1726.374 414.675 1723.513 410.103 1720.406 405.453 1717.534 400.713 1713.937 393.275 1710.933 387.7 1707.77 381.268 1704.769 375.404 1702.505 370.066 1700.526 365.335 1697.187 359.808 1695.203 356.356 1693.608 353.623 1692.471 349.869 1690.742 346.953 1688.047 341.983 1684.909 334.778 1682.597 329.668 1678.169 323.745 1676.64 319.464 1675.375 315.952 1673.578 311.513 1671.849 306.909 1669.507 301.834 1667.874 298.123 1665.902 293.713 1663.923 290.107 1661.65 285.542 1660.463 280.641 1658.143 275.419 1655.453 269.742 1652.975 264.113 1649.75 255.016 1648.51 252.966 1646.446 247.726 1644.973 242.878 1643.109 238.187 1641.016 232.531 1638.637 226.268 1636.975 220.79 1634.088 211.701 1630.336 201.967 1626.878 191.407 1623.333 184.134 1620.87 175.336 1618.063 164.89 1614.386 155.311 1611.886 146.902 1610.155 140.239 1608.451 135.761 1605.537 127.864 1603.623 121.793 1602.347 116.996 1601.558 114.061 1601.415 112.077 1602.693 110.602 1612.387 108.975 1618.757 107.65 1623.804 106.26 1627.423 106.483 1628.955 109.461 1630.707 114.611 1631.822 124.792 1634.489 135.087 1637.766 145.821 1640.28 156.223 1643.274 166.591 1645.843 175.06 1647.632 184.324 1649.249 189.837 1651.835 196.76 1654.646 204.118 1657.548 211.855 1660.189 219.096 1662.661 225.32 1665.093 233.67 1668.043 241.178 1670.705 247.356 1673.062 252.881 1674.485 257.925 1677.195 263.425 1679.408 269.185 1681.164 273.498 1682.443 278.327 1684.037 282.62 1686.107 287.715 1688.583 292.652 1689.944 296.832 1692.109 301.47 1696.074 307.876 1698.756 313.442 1701.484 319.197 1704.361 326.132 1707.233 331.652 1710.039 338.945 1712.897 344.273 1716.089 350.22 1718.781 356.364 1721.642 362.174 1724.294 367.324 1726.567 371.664 1729.373 376.706 1732.011 382.114 1734.92 387.245 1738.066 393.003 1741.089 398.383 1744.471 404.735 1747.331 409.194 1750.304 414.32 1753.336 419.829 1756.191 424.224 1759.5 429.552 1763.391 435.384 1765.445 439.355 1769.869 445.889 1774.442 452.252 1777.801 457.383 1781.992 463.355 1786.372 468.381 1789.21 473.421 1794.407 480.865 1799.252 487.433 1803.763 493.833 1808.557 500.598 1814.172 506.694 1819.356 513.495 1823.62 519.591 1830.572 526.845 1837.559 534.579 1842.845 540.569 1849.139 547.163 1854.514 552.6 1860.408 558.997 1865.584 563.451 1871.891 569.336 1877.872 575.148 1884.02 580.594 1891.713 586.959 1899.611 592.151 1907.866 597.381 1915.378 602.569 1919.66 606.219 1927.536 608.839 1935.249 611.889 1944.244 615.33 1949.852 617.727 1954.161 619.059 1958.211 619.477 1962.006 619.913 1967.515 621.384 1968.503 676.059"/></g><g class="d"><g class="e"><path class="f" d="M1669.8947,1007.4265a18.2505,18.2505,0,1,0,4.8869,25.2315,18.0941,18.0941,0,0,0-4.8869-25.2315Zm0,0"/><path class="f" d="M1820.84,940.3324c12.201-7.8141.263-26.6577-11.9011-18.8528q-27.6845,17.7358-55.3834,35.4685c-.51-1.1395-13.1843-16.6649-17.3172-24.2665q13.0027-.94,25.9846-1.87c14.3261-1.0265,13.2649-23.4325-1.1218-22.4051-13.3953.955-44.7046,3.8972-46.2842,5.1392-4.8813,1.973-8.3338,6.8721-5.8324,13.2314a138.8491,138.8491,0,0,0,16.1526,30.0431c-12.1583,8.762-24.5165,17.2811-37.0988,25.4165-17.8387-17.454-41.9866-20.0451-66.7958-7.0756-12.8323,6.7244-.7822,25.5133,11.91,18.8736,19.4358-10.1626,35.4437-4.28,46.6753,13.7759.7607,1.2363,4.2454,6.4686,5,7.6855,18.0549,29.047,47.26,36.2822,77.4286,20.4947,12.8465-6.7209.78-25.5021-11.8963-18.87-15.5862,8.1613-28.9627,5.9627-39.4523-4.54,12.2251-7.9781,86.4905-57.233,109.9318-72.2474Zm0,0"/></g><g class="e"><path class="g" d="M1129.0089,596.5308a1.3579,1.3579,0,0,1-.4393-1.8694l13.51-21.8092a8.4689,8.4689,0,0,0,1.3367-3.793,8.37,8.37,0,0,0-.4935-3.5974,9.6924,9.6924,0,0,0-2.0036-3.2035,14.8379,14.8379,0,0,0-3.102-2.5545,23.4162,23.4162,0,0,0-6.5021-2.8883,10.7832,10.7832,0,0,0-3.5138-.2712,1.3624,1.3624,0,0,0-.6316,2.5143l4.5993,2.849-2.6071,4.2087a7.12,7.12,0,0,0-3.3663-.1861,4.1073,4.1073,0,0,0-2.6038,2.0574l-10.45,16.8693a1.3579,1.3579,0,0,1-1.8694.4393l-5.1015-3.16a1.3579,1.3579,0,0,1-.4393-1.87l9.0327-14.5819a8.583,8.583,0,0,1,2.7266-2.8688,11.4989,11.4989,0,0,1,1.1657-.6263,1.3529,1.3529,0,0,0,.1235-2.372l-2.3236-1.4393a1.358,1.358,0,0,1-.4393-1.87l2.4538-3.9612a1.3583,1.3583,0,0,1,1.2459-.6341,6.12,6.12,0,0,0,1.7792-.1619q3.3861-.5611,5.78-.8494a18.7336,18.7336,0,0,1,4.5682-.0188,16.7416,16.7416,0,0,1,4.3857,1.1974,38.7492,38.7492,0,0,1,5.23,2.7965,22.5069,22.5069,0,0,1,5.2432,4.5139,19.9481,19.9481,0,0,1,3.5258,5.8555,15.44,15.44,0,0,1,.9957,6.566,14.1322,14.1322,0,0,1-2.1981,6.6143l-12.83,20.7113a1.3579,1.3579,0,0,1-1.8694.4393Z"/></g><g class="e"><rect class="h" x="1063.6509" y="402.8976" width="20.4996" height="20.4996" transform="translate(252.7326 -392.8528) rotate(23.4234)"/><line class="i" x1="1072.6722" y1="397.1492" x2="1071.1053" y2="400.766"/><line class="i" x1="1077.2268" y1="399.1223" x2="1075.6599" y2="402.7392"/><line class="i" x1="1081.7814" y1="401.0955" x2="1080.2145" y2="404.7124"/><line class="i" x1="1086.336" y1="403.0686" x2="1084.7691" y2="406.6855"/><line class="i" x1="1062.87" y1="419.7753" x2="1061.3031" y2="423.3922"/><line class="i" x1="1067.4246" y1="421.7485" x2="1065.8577" y2="425.3654"/><line class="i" x1="1071.9792" y1="423.7216" x2="1070.4123" y2="427.3385"/><line class="i" x1="1076.5338" y1="425.6948" x2="1074.9669" y2="429.3117"/><line class="i" x1="1089.9008" y1="412.0831" x2="1086.2839" y2="410.5161"/><line class="i" x1="1087.9276" y1="416.6377" x2="1084.3108" y2="415.0707"/><line class="i" x1="1085.9545" y1="421.1923" x2="1082.3376" y2="419.6253"/><line class="i" x1="1083.9813" y1="425.7469" x2="1080.3644" y2="424.1799"/><line class="i" x1="1067.2746" y1="402.2809" x2="1063.6577" y2="400.714"/><line class="i" x1="1065.3015" y1="406.8355" x2="1061.6846" y2="405.2686"/><line class="i" x1="1063.3283" y1="411.3901" x2="1059.7114" y2="409.8232"/><line class="i" x1="1061.3552" y1="415.9447" x2="1057.7383" y2="414.3778"/></g><g class="e"><ellipse class="j" cx="1266.3566" cy="514.995" rx="34.4064" ry="33.5868"/><polyline class="j" points="1232.713 522.029 1225.525 515.785 1266.84 470.458 1311.615 509.349 1270.299 554.676 1263.17 548.483"/><line class="g" x1="1289.2279" y1="489.9032" x2="1272.9966" y2="507.7103"/><ellipse class="j" cx="1247.912" cy="535.2304" rx="5.5494" ry="5.4172"/><polyline class="j" points="1268.241 548.787 1266.681 539.522 1266.69 539.511 1276.525 548.054"/><polyline class="j" points="1300.011 510.483 1277.16 514.552 1265 527.892 1281.689 542.388"/><polyline class="j" points="1295.032 494.945 1283.77 507.3 1283.77 507.3 1299.07 504.576"/><polyline class="j" points="1231.755 517.096 1241.364 517.532 1241.374 517.521 1231.539 508.979"/><polyline class="j" points="1233.435 524.764 1250.09 525.52 1253.814 528.755 1257.538 531.99 1260.244 548.05"/><polyline class="j" points="1267.035 481.84 1265.551 504.469 1253.392 517.809 1236.703 503.313"/><polyline class="j" points="1283.424 484.862 1272.162 497.217 1272.162 497.217 1273.155 482.066"/></g><path class="k" d="M1520.2812,786.9725c17.1022-3.7824,45.3637,31.1,45.3637,31.1l-10.679,12.7951c-1.1136,1.3343-4.623,7.2561,1.7866,12.3753,7.8831,6.2961,12.7415-.4865,12.7415-.4865l39.3115-47.1014c6.4527-7.7313,3.2207-21.9428.0939-31.1192-1.6828-4.8939-3.6545-4.4605-5.0851.5017-4.9643,17.4278-10.0531,19.3932-10.0531,19.3932-5.18-2.6328-25.4091-18.2869-30.5447-27.875-4.6357-9.2655-8.898-22.9362-21.9752-18.31-9.995,3.7943-7.7618,17.9212,7.1634,28.6246,7.8646,5.7086,36.7615,27.8121,36.7615,27.8121l-9.8513,11.8035c-4.12-3.9024-25.046-23.9531-40.18-32.5555-24.1712-15.6783-39.66,11.5389-30.6969,26.09,2.5805,3.8963,5.4887,5.785,8.1967,6.584,5.0233,1.5012,7.3254-.8594,5.3288-1.9891a12.4808,12.4808,0,0,1-3.1253-2.6739c-2.63-2.9617-2.3255-12.915,5.4429-14.9687Zm0,0"/><g class="e"><path class="l" d="M1356.291,715.0633l-10.7458-23.319a6.4317,6.4317,0,0,1,3.1107-8.5231l1.9324-.8978a6.3832,6.3832,0,0,1,8.4835,3.1364l10.7458,23.319"/><line class="l" x1="1350.0227" y1="701.4605" x2="1363.5492" y2="695.1761"/><path class="m" d="M1328.6584,692.8542l-35.6333,16.5552a4.251,4.251,0,0,0-2.0565,5.6347l18.6993,40.5786a4.219,4.219,0,0,0,5.6085,2.0734l23.4959-10.9162,9.5812-4.4514,15.4767,9.9249-11.8711-25.7611"/><path class="m" d="M1383.4509,711.1609l.1727-.08a4.2509,4.2509,0,0,0,2.0565-5.6346l-16.8892-36.6506a4.2191,4.2191,0,0,0-5.6085-2.0735L1328.66,682.761a4.2509,4.2509,0,0,0-2.0564,5.6346l16.8891,36.6506a4.2191,4.2191,0,0,0,5.6085,2.0735l6.6327-2.9737,5.288,11.4753,2.3341-15.1244Z"/><path class="n" d="M1308.9355,711.435s6.5741,19.3673,16.8222,30.3874"/><path class="n" d="M1302.3924,721.0744s9.0966-1.9308,20.552-11.1266"/><path class="n" d="M1323.3119,715.5309c4.3561,9.7054,4.5276,18.8756.0384,23.0366-1.64,1.52-5.7348,4.07-8.8275,2.5533a6.6853,6.6853,0,0,1-3.0109-3.93,9.2225,9.2225,0,0,1,.4386-6.2111c2.2736-6.0665,10.74-13.8,18.0644-11.2619a10.5521,10.5521,0,0,1,6.3055,6.2524,11.0849,11.0849,0,0,1-2.95,11.0905"/></g><g class="e"><rect class="o" x="1350.8714" y="885.224" width="23.6593" height="50.0841" transform="matrix(0.9635, -0.2677, 0.2677, 0.9635, -193.9662, 398.0889)"/><rect class="o" x="1352.9313" y="934.0081" width="38.6065" height="21.1292" transform="translate(-202.8036 401.8939) rotate(-15.5301)"/><line class="o" x1="1364.787" y1="979.7941" x2="1396.7863" y2="970.9018"/><path class="o" d="M1351.1694,915.0949c-25.0343,6.5578-40.653,30.6143-34.6862,52.9594,6.041,22.6236,32.103,35.6031,57.2438,28.2151"/><line class="o" x1="1327.8651" y1="1009.0198" x2="1416.5865" y2="984.365"/></g><g class="e"><path class="p" d="M1839.3939,758.1521l-46.44-32.2325-15.1653-41.6829-27.4063,9.9711,15.1653,41.683-14.87,54.5383c-1.62,5.943,4.2723,10.9739,10.2893,8.7848l76.1874-27.719C1843.1719,769.3058,1844.4539,761.6644,1839.3939,758.1521Z"/><path class="p" d="M1762.1773,749.5379a30.0421,30.0421,0,0,1,12.83-5.2157c6.3578-.9373,9.7482.7794,15.7657.63,4.339-.1078,10.65-1.2006,18.1989-6.0857"/></g><g class="e"><ellipse class="q" cx="1183.4978" cy="402.7631" rx="32.7893" ry="13.806" transform="translate(314.3569 1301.3616) rotate(-64.7489)"/><ellipse class="q" cx="1183.4978" cy="402.7631" rx="13.806" ry="32.7893" transform="translate(-18.4996 746.4017) rotate(-34.7489)"/><ellipse class="q" cx="1183.4978" cy="402.7631" rx="32.7893" ry="13.806" transform="translate(-29.2818 99.3642) rotate(-4.7489)"/><path class="q" d="M1185.5182,398.4793a4.7363,4.7363,0,1,0,2.2636,6.305A4.7422,4.7422,0,0,0,1185.5182,398.4793Z"/></g></g><g class="r"><ellipse class="s" cx="166.0993" cy="540.0531" rx="20.535" ry="20.0293"/><ellipse class="s" cx="112.59" cy="409.1573" rx="20.535" ry="20.0293"/><ellipse class="s" cx="-19.2233" cy="320.1144" rx="19.5705" ry="19.0886"/><ellipse class="s" cx="28.8004" cy="185.9218" rx="19.5933" ry="19.1108"/><ellipse class="s" cx="55.748" cy="15.2087" rx="12.1053" ry="11.8072"/><ellipse class="s" cx="79.1372" cy="143.6068" rx="11.5737" ry="11.2887"/><ellipse class="s" cx="67.327" cy="242.0978" rx="11.0269" ry="10.7554"/><ellipse class="s" cx="2.798" cy="273.8035" rx="11.0269" ry="10.7554"/><ellipse class="s" cx="25.9037" cy="340.6971" rx="12.599" ry="12.2887"/><ellipse class="s" cx="-6.3441" cy="417.9458" rx="11.0269" ry="10.7554"/><ellipse class="s" cx="78.2984" cy="505.462" rx="11.0269" ry="10.7554"/><ellipse class="s" cx="47.9469" cy="566.0769" rx="11.437" ry="11.1554"/><ellipse class="s" cx="194.2668" cy="482.9403" rx="11.0269" ry="10.7554"/><ellipse class="s" cx="156.4233" cy="591.7304" rx="11.6497" ry="11.3628"/><ellipse class="s" cx="220.9504" cy="587.7586" rx="11.7712" ry="11.4813"/><ellipse class="s" cx="208.4495" cy="640.2591" rx="11.9838" ry="11.6887"/><ellipse class="s" cx="128.227" cy="632.2266" rx="8.5132" ry="8.3036"/><ellipse class="s" cx="86.0358" cy="691.7907" rx="10.8978" ry="10.6295"/><ellipse class="s" cx="107.782" cy="745.9494" rx="11.6649" ry="11.3776"/><ellipse class="s" cx="210.8713" cy="701.8543" rx="20.6186" ry="20.1108"/><ellipse class="s" cx="284.0782" cy="733.0863" rx="11.9079" ry="11.6146"/><ellipse class="s" cx="249.8449" cy="803.6756" rx="11.0269" ry="10.7554"/><ellipse class="s" cx="185.584" cy="764.4748" rx="11.5282" ry="11.2443"/><ellipse class="s" cx="116.4078" cy="836.1257" rx="11.5737" ry="11.2887"/><ellipse class="s" cx="174.2708" cy="919.0885" rx="20.5578" ry="20.0515"/><ellipse class="s" cx="198.1755" cy="870.0839" rx="11.0269" ry="10.7554"/><ellipse class="s" cx="216.1662" cy="912.1047" rx="11.0269" ry="10.7554"/><ellipse class="s" cx="318.0351" cy="864.8735" rx="20.1857" ry="19.6886"/><ellipse class="s" cx="239.099" cy="968.9443" rx="19.6845" ry="19.1997"/><ellipse class="s" cx="277.6681" cy="1061.2383" rx="7.3589" ry="7.1777"/><ellipse class="s" cx="341.4273" cy="1012.0816" rx="11.0269" ry="10.7554"/><ellipse class="s" cx="313.5878" cy="963.858" rx="11.0269" ry="10.7554"/><ellipse class="s" cx="270.348" cy="1013.6002" rx="11.5434" ry="11.2591"/><ellipse class="s" cx="153.3787" cy="1009.7328" rx="12.2724" ry="11.9702"/><ellipse class="s" cx="65.1847" cy="1025.577" rx="21.0438" ry="20.5256"/><ellipse class="s" cx="123.0625" cy="936.3469" rx="13.5786" ry="13.2442"/><ellipse class="s" cx="44.5063" cy="926.7197" rx="12.1509" ry="11.8517"/><ellipse class="s" cx="-3.2155" cy="646.0181" rx="20.6261" ry="20.1182"/><ellipse class="s" cx="15.3407" cy="808.693" rx="20.4135" ry="19.9108"/><ellipse class="s" cx="390.2472" cy="1051.3847" rx="19.0313" ry="18.5626"/><ellipse class="s" cx="461.9787" cy="1021.4903" rx="11.3079" ry="11.0294"/><ellipse class="s" cx="585.3517" cy="1089.7511" rx="20.9223" ry="20.4071"/><ellipse class="s" cx="15.8771" cy="1041.3594" rx="13.2141" ry="12.8887"/><line class="s" x1="47.4982" y1="17.4279" x2="-27.1708" y2="36.301"/><line class="s" x1="-13.0504" y1="92.4829" x2="21.7409" y2="170.2206"/><line class="s" x1="37.7821" y1="200.9603" x2="64.442" y2="236.7618"/><line class="s" x1="74.6193" y1="146.8981" x2="42.3659" y2="175.0298"/><line class="s" x1="-15.3861" y1="159.0798" x2="14.9223" y2="179.246"/><line class="s" x1="-51.2617" y1="206.0909" x2="13.8071" y2="189.5133"/><line class="s" x1="-7.6956" y1="327.4843" x2="16.3759" y2="336.0664"/><line class="s" x1="-12.5517" y1="305.134" x2="-1.6762" y2="279.0965"/><line class="s" x1="-14.3996" y1="485.5782" x2="44.9639" y2="559.7358"/><line class="s" x1="69.5916" y1="502.4507" x2="-9.1003" y2="479.1828"/><line class="s" x1="33.6618" y1="346.6591" x2="99.1501" y2="400.1643"/><line class="s" x1="107.567" y1="425.5852" x2="80.7427" y2="498.6551"/><line class="s" x1="189.5641" y1="489.9229" x2="175.1783" y2="522.7975"/><line class="s" x1="161.6552" y1="554.9054" x2="156.4436" y2="584.6987"/><line class="s" x1="151.7675" y1="532.8571" x2="84.9906" y2="508.8517"/><line class="s" x1="148.918" y1="543.5761" x2="57.2113" y2="563.9545"/><line class="s" x1="216.2921" y1="582.0734" x2="178.5723" y2="549.6015"/><line class="s" x1="210.4708" y1="645.3265" x2="211.0346" y2="683.6776"/><line class="s" x1="197.8106" y1="691.4275" x2="130.6006" y2="634.7011"/><line class="s" x1="124.5679" y1="629.8083" x2="52.8866" y2="570.1256"/><line class="s" x1="43.5411" y1="574.2604" x2="6.7391" y2="632.6478"/><line class="s" x1="-0.4085" y1="800.3779" x2="-59.447" y2="766.2294"/><line class="s" x1="123.0465" y1="638.0329" x2="90.1082" y2="685.1381"/><line class="s" x1="194.4165" y1="710.4171" x2="117.295" y2="741.5406"/><line class="s" x1="202.3324" y1="719.0509" x2="190.9652" y2="758.3321"/><line class="s" x1="276.2814" y1="729.5857" x2="225.6312" y2="706.2741"/><line class="s" x1="216.9729" y1="717.5349" x2="246.1729" y2="796.748"/><line class="s" x1="306.7613" y1="852.0155" x2="254.8839" y2="806.7347"/><line class="s" x1="300.812" y1="864.7752" x2="206.5565" y2="870.1799"/><line class="s" x1="193.04" y1="877.2695" x2="182.7331" y2="903.215"/><line class="s" x1="219.9436" y1="917.2486" x2="234.5885" y2="953.1723"/><line class="s" x1="189.5013" y1="928.5609" x2="236.1604" y2="954.8553"/><line class="s" x1="224.3848" y1="965.994" x2="130.1138" y2="936.2973"/><line class="s" x1="157.762" y1="924.388" x2="130.4277" y2="934.3659"/><line class="s" x1="116.1034" y1="945.2906" x2="72.7681" y2="1010.9476"/><line class="s" x1="144.6864" y1="1011.2686" x2="81.0423" y2="1022.4867"/><line class="s" x1="151.6193" y1="1060.5793" x2="80.6581" y2="1030.5271"/><line class="s" x1="231.8115" y1="983.882" x2="181.8926" y2="1061.6606"/><ellipse class="s" cx="181.8401" cy="1080.7169" rx="23.9676" ry="23.3774"/><line class="s" x1="266.7958" y1="1006.9761" x2="247.8548" y2="981.6829"/><line class="s" x1="252.7525" y1="968.5806" x2="305.6375" y2="964.5186"/><line class="s" x1="276.2118" y1="1060.4056" x2="204.0015" y2="1072.0991"/><line class="s" x1="278.2007" y1="1061.7932" x2="376.2958" y2="1053.2023"/><line class="s" x1="346.2266" y1="1014.5337" x2="378.1048" y2="1039.8024"/><line class="s" x1="278.7818" y1="1064.4629" x2="293.4267" y2="1100.3865"/><line class="s" x1="396.5124" y1="1044.6287" x2="454.9778" y2="1026.67"/><line class="s" x1="394.1402" y1="1062.1564" x2="427.473" y2="1126.634"/><line class="s" x1="404.9666" y1="1056.1957" x2="487.7759" y2="1095.0998"/><line class="s" x1="-32.2995" y1="913.7032" x2="38.9953" y2="925.8075"/><line class="s" x1="181.4727" y1="770.1839" x2="122.3254" y2="832.0759"/><line class="s" x1="47.107" y1="934.5616" x2="64.0374" y2="1012.0575"/><line class="s" x1="50.5085" y1="1028.685" x2="20.1547" y2="1039.8309"/></g></svg>